<svg width="80" height="199" viewBox="0 0 80 199" fill="none" xmlns="http://www.w3.org/2000/svg">
<mask id="path-1-inside-1" fill="white">
<path fill-rule="evenodd" clip-rule="evenodd" d="M60 159V179H40C51.0457 179 60 170.046 60 159Z"/>
</mask>
<path fill-rule="evenodd" clip-rule="evenodd" d="M60 159V179H40C51.0457 179 60 170.046 60 159Z" fill="black"/>
<path d="M60 179H61V180H60V179ZM61 159V179H59V159H61ZM60 180H40V178H60V180ZM40 178C50.4934 178 59 169.493 59 159H61C61 170.598 51.598 180 40 180V178Z" fill="black" mask="url(#path-1-inside-1)"/>
<mask id="path-3-inside-2" fill="white">
<path fill-rule="evenodd" clip-rule="evenodd" d="M20 159V179H40C28.9543 179 20 170.046 20 159Z"/>
</mask>
<path fill-rule="evenodd" clip-rule="evenodd" d="M20 159V179H40C28.9543 179 20 170.046 20 159Z" fill="black"/>
<path d="M20 179H19V180H20V179ZM19 159V179H21V159H19ZM20 180H40V178H20V180ZM40 178C29.5066 178 21 169.493 21 159H19C19 170.598 28.402 180 40 180V178Z" fill="black" mask="url(#path-3-inside-2)"/>
<mask id="path-5-inside-3" fill="white">
<path fill-rule="evenodd" clip-rule="evenodd" d="M0 58V38H20C8.95431 38 0 46.9543 0 58Z"/>
</mask>
<path fill-rule="evenodd" clip-rule="evenodd" d="M0 58V38H20C8.95431 38 0 46.9543 0 58Z" fill="black"/>
<path d="M0 38H-1V37H0V38ZM-1 58V38H1V58H-1ZM0 37H20V39H0V37ZM20 39C9.50659 39 1 47.5066 1 58H-1C-1 46.402 8.40202 37 20 37V39Z" fill="black" mask="url(#path-5-inside-3)"/>
<mask id="path-7-inside-4" fill="white">
<path fill-rule="evenodd" clip-rule="evenodd" d="M20 38V18H40C28.9543 18 20 26.9543 20 38Z"/>
</mask>
<path fill-rule="evenodd" clip-rule="evenodd" d="M20 38V18H40C28.9543 18 20 26.9543 20 38Z" fill="black"/>
<path d="M20 18H19V17H20V18ZM19 38V18H21V38H19ZM20 17H40V19H20V17ZM40 19C29.5066 19 21 27.5066 21 38H19C19 26.402 28.402 17 40 17V19Z" fill="black" mask="url(#path-7-inside-4)"/>
<mask id="path-9-inside-5" fill="white">
<path fill-rule="evenodd" clip-rule="evenodd" d="M20 129V109H40C28.9543 109 20 117.954 20 129Z"/>
</mask>
<path fill-rule="evenodd" clip-rule="evenodd" d="M20 129V109H40C28.9543 109 20 117.954 20 129Z" fill="black"/>
<path d="M20 109H19V108H20V109ZM19 129V109H21V129H19ZM20 108H40V110H20V108ZM40 110C29.5066 110 21 118.507 21 129H19C19 117.402 28.402 108 40 108V110Z" fill="black" mask="url(#path-9-inside-5)"/>
<rect x="0.5" y="159.5" width="19" height="19" fill="black" stroke="black"/>
<rect x="0.5" y="139.5" width="19" height="19" fill="black" stroke="black"/>
<rect x="0.5" y="159.5" width="19" height="19" fill="black" stroke="black"/>
<rect x="0.5" y="139.5" width="19" height="19" fill="black" stroke="black"/>
<rect x="40.5" y="99.5" width="19" height="8" fill="black" stroke="black"/>
<mask id="path-16-inside-6" fill="white">
<path fill-rule="evenodd" clip-rule="evenodd" d="M30 89H40V99H30V109H20V99V89H30Z"/>
</mask>
<path fill-rule="evenodd" clip-rule="evenodd" d="M30 89H40V99H30V109H20V99V89H30Z" fill="black"/>
<path d="M40 89V88H41V89H40ZM40 99H41V100H40V99ZM30 99H29V98H30V99ZM30 109H31V110H30V109ZM20 109V110H19V109H20ZM20 89H19V88H20V89ZM40 90H30V88H40V90ZM39 99V89H41V99H39ZM30 98H40V100H30V98ZM31 99V109H29V99H31ZM30 110H20V108H30V110ZM19 109V99H21V109H19ZM21 89V99H19V89H21ZM30 90H20V88H30V90Z" fill="black" mask="url(#path-16-inside-6)"/>
<rect x="0.5" y="109.5" width="19" height="29" fill="black" stroke="black"/>
<rect x="40.5" y="179.5" width="19" height="19" fill="black" stroke="black"/>
<rect x="20.5" y="179.5" width="19" height="19" fill="black" stroke="black"/>
<rect x="60.5" y="159.5" width="19" height="19" fill="black" stroke="black"/>
<mask id="path-22-inside-7" fill="white">
<path fill-rule="evenodd" clip-rule="evenodd" d="M20 179H0C11.0457 179 20 187.954 20 199V179Z"/>
</mask>
<path fill-rule="evenodd" clip-rule="evenodd" d="M20 179H0C11.0457 179 20 187.954 20 199V179Z" fill="black"/>
<path d="M20 179V178H21V179H20ZM0 178H20V180H0V178ZM0 178C11.598 178 21 187.402 21 199H19C19 188.507 10.4934 180 0 180V178ZM21 179V199H19V179H21Z" fill="black" mask="url(#path-22-inside-7)"/>
<mask id="path-24-inside-8" fill="white">
<path fill-rule="evenodd" clip-rule="evenodd" d="M80 179C68.9543 179 60 187.954 60 199V179H80Z"/>
</mask>
<path fill-rule="evenodd" clip-rule="evenodd" d="M80 179C68.9543 179 60 187.954 60 199V179H80Z" fill="black"/>
<path d="M60 179H59V178H60V179ZM59 199C59 187.402 68.402 178 80 178V180C69.5066 180 61 188.507 61 199H59ZM59 199V179H61V199H59ZM60 178H80V180H60V178Z" fill="black" mask="url(#path-24-inside-8)"/>
<rect x="60.5" y="159.5" width="19" height="19" fill="black" stroke="black"/>
<rect x="0.5" y="18.5" width="19" height="19" fill="black" stroke="black"/>
<mask id="path-28-inside-9" fill="white">
<path fill-rule="evenodd" clip-rule="evenodd" d="M41.8333 90.8333L40.0829 90.8333C41.0086 101.02 49.5724 109 60 109C71.0457 109 80 100.046 80 89V20C80 19.6853 79.9927 19.3724 79.9784 19.0613C79.9927 18.7649 80 18.4666 80 18.1667C80 8.13349 71.8665 0 61.8333 0H60H18.1667C8.13349 0 0 8.13349 0 18.1667C0 21.4756 0.884666 24.5779 2.43037 27.25C5.57147 21.82 11.4424 18.1667 18.1667 18.1667H20H40H40.0829H41.8333C51.8665 18.1667 60 26.3001 60 36.3333C60 36.6333 59.9927 36.9315 59.9784 37.2279C59.9927 37.539 60 37.852 60 38.1667V70.8333C60 71.148 59.9927 71.461 59.9784 71.7721C59.9927 72.0685 60 72.3667 60 72.6667C60 82.6998 51.8665 90.8333 41.8333 90.8333Z"/>
</mask>
<path fill-rule="evenodd" clip-rule="evenodd" d="M41.8333 90.8333L40.0829 90.8333C41.0086 101.02 49.5724 109 60 109C71.0457 109 80 100.046 80 89V20C80 19.6853 79.9927 19.3724 79.9784 19.0613C79.9927 18.7649 80 18.4666 80 18.1667C80 8.13349 71.8665 0 61.8333 0H60H18.1667C8.13349 0 0 8.13349 0 18.1667C0 21.4756 0.884666 24.5779 2.43037 27.25C5.57147 21.82 11.4424 18.1667 18.1667 18.1667H20H40H40.0829H41.8333C51.8665 18.1667 60 26.3001 60 36.3333C60 36.6333 59.9927 36.9315 59.9784 37.2279C59.9927 37.539 60 37.852 60 38.1667V70.8333C60 71.148 59.9927 71.461 59.9784 71.7721C59.9927 72.0685 60 72.3667 60 72.6667C60 82.6998 51.8665 90.8333 41.8333 90.8333Z" fill="black"/>
<path d="M40.0829 90.8333L39.087 90.9238L38.9879 89.8333L40.0829 89.8333L40.0829 90.8333ZM41.8333 90.8333L41.8333 91.8333L41.8333 91.8333L41.8333 90.8333ZM79.9784 19.0613L78.9794 19.1074L78.9772 19.0601L78.9795 19.0128L79.9784 19.0613ZM2.43037 27.25L3.29598 27.7507L2.43037 29.2471L1.56477 27.7507L2.43037 27.25ZM59.9784 37.2279L58.9794 37.2741L58.9772 37.2268L58.9795 37.1795L59.9784 37.2279ZM59.9784 71.7721L58.9795 71.8205L58.9772 71.7732L58.9794 71.7259L59.9784 71.7721ZM40.0829 89.8333L41.8333 89.8333L41.8333 91.8333L40.0829 91.8333L40.0829 89.8333ZM60 110C49.0504 110 40.0591 101.621 39.087 90.9238L41.0788 90.7428C41.9581 100.419 50.0943 108 60 108V110ZM81 89C81 100.598 71.598 110 60 110V108C70.4934 108 79 99.4934 79 89H81ZM81 20V89H79V20H81ZM80.9773 19.0151C80.9924 19.3416 81 19.6699 81 20H79C79 19.7007 78.9931 19.4032 78.9794 19.1074L80.9773 19.0151ZM81 18.1667C81 18.4828 80.9923 18.7972 80.9772 19.1097L78.9795 19.0128C78.9931 18.7326 79 18.4505 79 18.1667H81ZM61.8333 -1C72.4188 -1 81 7.58121 81 18.1667H79C79 8.68578 71.3142 1 61.8333 1V-1ZM60 -1H61.8333V1H60V-1ZM18.1667 -1H60V1H18.1667V-1ZM-1 18.1667C-1 7.58121 7.58121 -1 18.1667 -1V1C8.68578 1 1 8.68578 1 18.1667H-1ZM1.56477 27.7507C-0.0666136 24.9305 -1 21.6561 -1 18.1667H1C1 21.2951 1.83595 24.2253 3.29598 26.7493L1.56477 27.7507ZM18.1667 19.1667C11.8138 19.1667 6.26568 22.617 3.29598 27.7507L1.56477 26.7493C4.87726 21.0229 11.071 17.1667 18.1667 17.1667V19.1667ZM20 19.1667H18.1667V17.1667H20V19.1667ZM40 19.1667H20V17.1667H40V19.1667ZM40.0829 19.1667H40V17.1667H40.0829V19.1667ZM41.8333 19.1667H40.0829V17.1667H41.8333V19.1667ZM59 36.3333C59 26.8524 51.3142 19.1667 41.8333 19.1667V17.1667C52.4188 17.1667 61 25.7479 61 36.3333H59ZM58.9795 37.1795C58.9931 36.8992 59 36.6171 59 36.3333H61C61 36.6494 60.9923 36.9638 60.9772 37.2763L58.9795 37.1795ZM59 38.1667C59 37.8674 58.9931 37.5698 58.9794 37.2741L60.9773 37.1818C60.9924 37.5082 61 37.8366 61 38.1667H59ZM59 70.8333V38.1667H61V70.8333H59ZM58.9794 71.7259C58.9931 71.4302 59 71.1326 59 70.8333H61C61 71.1634 60.9924 71.4918 60.9773 71.8182L58.9794 71.7259ZM59 72.6667C59 72.3829 58.9931 72.1008 58.9795 71.8205L60.9772 71.7236C60.9923 72.0362 61 72.3505 61 72.6667H59ZM41.8333 89.8333C51.3142 89.8333 59 82.1476 59 72.6667H61C61 83.2521 52.4188 91.8333 41.8333 91.8333V89.8333Z" fill="black" mask="url(#path-28-inside-9)"/>
<mask id="path-30-inside-10" fill="white">
<path fill-rule="evenodd" clip-rule="evenodd" d="M57.3244 79H60V69C60 72.6429 59.0261 76.0583 57.3244 79Z"/>
</mask>
<path fill-rule="evenodd" clip-rule="evenodd" d="M57.3244 79H60V69C60 72.6429 59.0261 76.0583 57.3244 79Z" fill="black"/>
<path d="M57.3244 79L56.4588 78.4993L55.5906 80H57.3244V79ZM60 79V80H61V79H60ZM57.3244 80H60V78H57.3244V80ZM61 79V69H59V79H61ZM59 69C59 72.4624 58.0748 75.7056 56.4588 78.4993L58.19 79.5007C59.9773 76.4109 61 72.8234 61 69H59Z" fill="black" mask="url(#path-30-inside-10)"/>
<mask id="path-32-inside-11" fill="white">
<path fill-rule="evenodd" clip-rule="evenodd" d="M57.3244 79C53.8663 84.978 47.4028 89 40 89V99H60V79H57.3244Z"/>
</mask>
<path fill-rule="evenodd" clip-rule="evenodd" d="M57.3244 79C53.8663 84.978 47.4028 89 40 89V99H60V79H57.3244Z" fill="black"/>
<path d="M40 89H39V88H40V89ZM57.3244 79L56.4587 78.4993L56.7476 78H57.3244V79ZM40 99V100H39V99H40ZM60 99H61V100H60V99ZM60 79V78H61V79H60ZM40 88C47.0314 88 53.1721 84.181 56.4587 78.4993L58.19 79.5007C54.5605 85.775 47.7742 90 40 90V88ZM41 89V99H39V89H41ZM40 98H60V100H40V98ZM59 99V79H61V99H59ZM60 80H57.3244V78H60V80Z" fill="black" mask="url(#path-32-inside-11)"/>
<mask id="path-34-inside-12" fill="white">
<path fill-rule="evenodd" clip-rule="evenodd" d="M19.6756 119C23.1337 113.022 29.5972 109 37 109V99H17V119H19.6756Z"/>
</mask>
<path fill-rule="evenodd" clip-rule="evenodd" d="M19.6756 119C23.1337 113.022 29.5972 109 37 109V99H17V119H19.6756Z" fill="black"/>
<path d="M37 109H38V110H37V109ZM19.6756 119L20.5413 119.501L20.2524 120H19.6756V119ZM37 99V98H38V99H37ZM17 99H16V98H17V99ZM17 119V120H16V119H17ZM37 110C29.9686 110 23.8279 113.819 20.5413 119.501L18.81 118.499C22.4395 112.225 29.2258 108 37 108V110ZM36 109V99H38V109H36ZM37 100H17V98H37V100ZM18 99V119H16V99H18ZM17 118H19.6756V120H17V118Z" fill="black" mask="url(#path-34-inside-12)"/>
<mask id="path-36-inside-13" fill="white">
<path fill-rule="evenodd" clip-rule="evenodd" d="M61 109C61 97.9543 52.0457 89 41 89H20C8.95431 89 0 97.9543 0 109H30.5H61Z"/>
</mask>
<path fill-rule="evenodd" clip-rule="evenodd" d="M61 109C61 97.9543 52.0457 89 41 89H20C8.95431 89 0 97.9543 0 109H30.5H61Z" fill="black"/>
<path d="M61 109H62V110H61V109ZM0 109V110H-1V109H0ZM41 88C52.598 88 62 97.402 62 109H60C60 98.5066 51.4934 90 41 90V88ZM20 88H41V90H20V88ZM-1 109C-1 97.402 8.40202 88 20 88V90C9.50659 90 1 98.5066 1 109H-1ZM30.5 110H0V108H30.5V110ZM61 110H30.5V108H61V110Z" fill="black" mask="url(#path-36-inside-13)"/>
</svg>
