<svg width="80" height="200" viewBox="0 0 80 200" fill="none" xmlns="http://www.w3.org/2000/svg">
<path fill-rule="evenodd" clip-rule="evenodd" d="M57.3244 80C53.8663 85.978 47.4028 90 40 90V100H60V80H57.3244Z" fill="black"/>
<path fill-rule="evenodd" clip-rule="evenodd" d="M22.6756 80C26.1337 85.978 32.5972 90 40 90V100H20V80H22.6756Z" fill="black"/>
<rect width="20" height="20" transform="matrix(-1 0 0 1 80 160)" fill="black"/>
<rect width="20" height="20" transform="matrix(-1 0 0 1 80 40)" fill="black"/>
<rect width="20" height="20" transform="matrix(-1 0 0 1 80 80)" fill="black"/>
<rect width="20" height="20" transform="matrix(-1 0 0 1 80 140)" fill="black"/>
<rect width="20" height="20" transform="matrix(-1 0 0 1 80 60)" fill="black"/>
<rect width="20" height="20" transform="matrix(-1 0 0 1 80 120)" fill="black"/>
<rect width="20" height="20" transform="matrix(-1 0 0 1 80 100)" fill="black"/>
<path fill-rule="evenodd" clip-rule="evenodd" d="M57.3244 120C53.8663 114.022 47.4028 110 40 110V100H60V120H57.3244Z" fill="black"/>
<path fill-rule="evenodd" clip-rule="evenodd" d="M22.6756 120C26.1337 114.022 32.5972 110 40 110V100H20V120H22.6756Z" fill="black"/>
<rect width="20" height="20" transform="matrix(-1 0 0 1 60 180)" fill="black"/>
<rect width="20" height="20" transform="matrix(-1 0 0 1 40 180)" fill="black"/>
<rect width="20" height="20" transform="matrix(-1 0 0 1 20 160)" fill="black"/>
<path fill-rule="evenodd" clip-rule="evenodd" d="M0 180H20V200C20 188.954 11.0457 180 0 180Z" fill="black"/>
<path fill-rule="evenodd" clip-rule="evenodd" d="M80 180H60V200C60 188.954 68.9543 180 80 180Z" fill="black"/>
<rect width="20" height="20" transform="matrix(-1 0 0 1 20 140)" fill="black"/>
<rect width="20" height="20" transform="matrix(-1 0 0 1 80 20)" fill="black"/>
<rect width="20" height="20" transform="matrix(-1 0 0 1 20 20)" fill="black"/>
<path fill-rule="evenodd" clip-rule="evenodd" d="M60 161V180H41C51.4934 180 60 171.493 60 161Z" fill="black"/>
<path fill-rule="evenodd" clip-rule="evenodd" d="M20 161V180H39C28.5066 180 20 171.493 20 161Z" fill="black"/>
<path fill-rule="evenodd" clip-rule="evenodd" d="M0 40H20V60C20 48.9543 11.0457 40 0 40Z" fill="black"/>
<path fill-rule="evenodd" clip-rule="evenodd" d="M22.6756 80H20V70C20 73.6429 20.9739 77.0583 22.6756 80Z" fill="black"/>
<path fill-rule="evenodd" clip-rule="evenodd" d="M22.6756 120H20V130C20 126.357 20.9739 122.942 22.6756 120Z" fill="black"/>
<path fill-rule="evenodd" clip-rule="evenodd" d="M57.3244 80H60V70C60 73.6429 59.0261 77.0583 57.3244 80Z" fill="black"/>
<path fill-rule="evenodd" clip-rule="evenodd" d="M57.3244 120H60V130C60 126.357 59.0261 122.942 57.3244 120Z" fill="black"/>
<path fill-rule="evenodd" clip-rule="evenodd" d="M60 0C71.0457 0 80 8.95431 80 20C80 31.0457 71.0457 40 60 40C60 28.9543 51.0457 20 40 20C28.9543 20 20 28.9543 20 40C8.95431 40 0 31.0457 0 20C0 8.95431 8.95431 0 20 0H60Z" fill="black"/>
</svg>
