<svg width="80" height="199" viewBox="0 0 80 199" fill="none" xmlns="http://www.w3.org/2000/svg">
<mask id="path-1-inside-1" fill="white">
<path fill-rule="evenodd" clip-rule="evenodd" d="M20 159V179H40C28.9543 179 20 170.046 20 159Z"/>
</mask>
<path fill-rule="evenodd" clip-rule="evenodd" d="M20 159V179H40C28.9543 179 20 170.046 20 159Z" fill="black"/>
<path d="M20 179H19V180H20V179ZM19 159V179H21V159H19ZM20 180H40V178H20V180ZM40 178C29.5066 178 21 169.493 21 159H19C19 170.598 28.402 180 40 180V178Z" fill="black" mask="url(#path-1-inside-1)"/>
<mask id="path-3-inside-2" fill="white">
<path fill-rule="evenodd" clip-rule="evenodd" d="M60 159V179H40C51.0457 179 60 170.046 60 159Z"/>
</mask>
<path fill-rule="evenodd" clip-rule="evenodd" d="M60 159V179H40C51.0457 179 60 170.046 60 159Z" fill="black"/>
<path d="M60 179H61V180H60V179ZM61 159V179H59V159H61ZM60 180H40V178H60V180ZM40 178C50.4934 178 59 169.493 59 159H61C61 170.598 51.598 180 40 180V178Z" fill="black" mask="url(#path-3-inside-2)"/>
<mask id="path-5-inside-3" fill="white">
<path fill-rule="evenodd" clip-rule="evenodd" d="M80 78V58H60C71.0457 58 80 66.9543 80 78Z"/>
</mask>
<path fill-rule="evenodd" clip-rule="evenodd" d="M80 78V58H60C71.0457 58 80 66.9543 80 78Z" fill="black"/>
<path d="M80 58H81V57H80V58ZM81 78V58H79V78H81ZM80 57H60V59H80V57ZM60 59C70.4934 59 79 67.5066 79 78H81C81 66.402 71.598 57 60 57V59Z" fill="black" mask="url(#path-5-inside-3)"/>
<mask id="path-7-inside-4" fill="white">
<path fill-rule="evenodd" clip-rule="evenodd" d="M60 38V18H40C51.0457 18 60 26.9543 60 38Z"/>
</mask>
<path fill-rule="evenodd" clip-rule="evenodd" d="M60 38V18H40C51.0457 18 60 26.9543 60 38Z" fill="black"/>
<path d="M60 18H61V17H60V18ZM61 38V18H59V38H61ZM60 17H40V19H60V17ZM40 19C50.4934 19 59 27.5066 59 38H61C61 26.402 51.598 17 40 17V19Z" fill="black" mask="url(#path-7-inside-4)"/>
<mask id="path-9-inside-5" fill="white">
<path fill-rule="evenodd" clip-rule="evenodd" d="M60 129V109H40C51.0457 109 60 117.954 60 129Z"/>
</mask>
<path fill-rule="evenodd" clip-rule="evenodd" d="M60 129V109H40C51.0457 109 60 117.954 60 129Z" fill="black"/>
<path d="M60 109H61V108H60V109ZM61 129V109H59V129H61ZM60 108H40V110H60V108ZM40 110C50.4934 110 59 118.507 59 129H61C61 117.402 51.598 108 40 108V110Z" fill="black" mask="url(#path-9-inside-5)"/>
<mask id="path-11-inside-6" fill="white">
<path fill-rule="evenodd" clip-rule="evenodd" d="M20 129V109H40C28.9543 109 20 117.954 20 129Z"/>
</mask>
<path fill-rule="evenodd" clip-rule="evenodd" d="M20 129V109H40C28.9543 109 20 117.954 20 129Z" fill="black"/>
<path d="M20 109H19V108H20V109ZM19 129V109H21V129H19ZM20 108H40V110H20V108ZM40 110C29.5066 110 21 118.507 21 129H19C19 117.402 28.402 108 40 108V110Z" fill="black" mask="url(#path-11-inside-6)"/>
<rect x="-0.5" y="0.5" width="19" height="19" transform="matrix(-1 0 0 1 79 159)" fill="black" stroke="black"/>
<rect x="-0.5" y="0.5" width="19" height="19" transform="matrix(-1 0 0 1 79 139)" fill="black" stroke="black"/>
<rect x="-0.5" y="0.5" width="19" height="19" transform="matrix(-1 0 0 1 79 159)" fill="black" stroke="black"/>
<rect x="-0.5" y="0.5" width="19" height="19" transform="matrix(-1 0 0 1 79 139)" fill="black" stroke="black"/>
<rect x="-0.5" y="0.5" width="19" height="8" transform="matrix(-1 0 0 1 39 99)" fill="black" stroke="black"/>
<mask id="path-18-inside-7" fill="white">
<path fill-rule="evenodd" clip-rule="evenodd" d="M50 89H40V99H50V109H60V99V89H50Z"/>
</mask>
<path fill-rule="evenodd" clip-rule="evenodd" d="M50 89H40V99H50V109H60V99V89H50Z" fill="black"/>
<path d="M40 89V88H39V89H40ZM40 99H39V100H40V99ZM50 99H51V98H50V99ZM50 109H49V110H50V109ZM60 109V110H61V109H60ZM60 89H61V88H60V89ZM40 90H50V88H40V90ZM41 99V89H39V99H41ZM50 98H40V100H50V98ZM49 99V109H51V99H49ZM50 110H60V108H50V110ZM61 109V99H59V109H61ZM59 89V99H61V89H59ZM50 90H60V88H50V90Z" fill="black" mask="url(#path-18-inside-7)"/>
<rect x="-0.5" y="0.5" width="19" height="29" transform="matrix(-1 0 0 1 79 109)" fill="black" stroke="black"/>
<rect x="-0.5" y="0.5" width="19" height="19" transform="matrix(-1 0 0 1 39 179)" fill="black" stroke="black"/>
<rect x="-0.5" y="0.5" width="19" height="19" transform="matrix(-1 0 0 1 59 179)" fill="black" stroke="black"/>
<rect x="-0.5" y="0.5" width="19" height="19" transform="matrix(-1 0 0 1 19 159)" fill="black" stroke="black"/>
<mask id="path-24-inside-8" fill="white">
<path fill-rule="evenodd" clip-rule="evenodd" d="M60 179H80C68.9543 179 60 187.954 60 199V179Z"/>
</mask>
<path fill-rule="evenodd" clip-rule="evenodd" d="M60 179H80C68.9543 179 60 187.954 60 199V179Z" fill="black"/>
<path d="M60 179V178H59V179H60ZM80 178H60V180H80V178ZM80 178C68.402 178 59 187.402 59 199H61C61 188.507 69.5066 180 80 180V178ZM59 179V199H61V179H59Z" fill="black" mask="url(#path-24-inside-8)"/>
<mask id="path-26-inside-9" fill="white">
<path fill-rule="evenodd" clip-rule="evenodd" d="M0 179C11.0457 179 20 187.954 20 199V179H0Z"/>
</mask>
<path fill-rule="evenodd" clip-rule="evenodd" d="M0 179C11.0457 179 20 187.954 20 199V179H0Z" fill="black"/>
<path d="M20 179H21V178H20V179ZM21 199C21 187.402 11.598 178 0 178V180C10.4934 180 19 188.507 19 199H21ZM21 199V179H19V199H21ZM20 178H0V180H20V178Z" fill="black" mask="url(#path-26-inside-9)"/>
<rect x="-0.5" y="0.5" width="19" height="19" transform="matrix(-1 0 0 1 19 159)" fill="black" stroke="black"/>
<rect x="-0.5" y="0.5" width="19" height="19" transform="matrix(-1 0 0 1 19 139)" fill="black" stroke="black"/>
<rect x="-0.5" y="0.5" width="19" height="19" transform="matrix(-1 0 0 1 19 119)" fill="black" stroke="black"/>
<rect x="-0.5" y="0.5" width="19" height="19" transform="matrix(-1 0 0 1 19 100)" fill="black" stroke="black"/>
<rect x="-0.5" y="0.5" width="19" height="19" transform="matrix(-1 0 0 1 19 80)" fill="black" stroke="black"/>
<rect x="-0.5" y="0.5" width="19" height="19" transform="matrix(-1 0 0 1 79 18)" fill="black" stroke="black"/>
<rect x="-0.5" y="0.5" width="19" height="19" transform="matrix(-1 0 0 1 79 38)" fill="black" stroke="black"/>
<mask id="path-35-inside-10" fill="white">
<path fill-rule="evenodd" clip-rule="evenodd" d="M38.1667 90.8333L39.9171 90.8333C38.9914 101.02 30.4276 109 20 109C8.95431 109 0 100.046 0 89V20C0 19.6853 0.00726677 19.3724 0.0216417 19.0613C0.00726941 18.7649 0 18.4666 0 18.1667C0 8.13349 8.13349 0 18.1667 0H20H61.8333C71.8665 0 80 8.13349 80 18.1667C80 21.4756 79.1153 24.5779 77.5696 27.25C74.4285 21.82 68.5576 18.1667 61.8333 18.1667H60H40H39.9171H38.1667C28.1335 18.1667 20 26.3001 20 36.3333C20 36.6333 20.0073 36.9315 20.0216 37.2279C20.0073 37.539 20 37.852 20 38.1667V70.8333C20 71.148 20.0073 71.461 20.0216 71.7721C20.0073 72.0685 20 72.3667 20 72.6667C20 82.6998 28.1335 90.8333 38.1667 90.8333Z"/>
</mask>
<path fill-rule="evenodd" clip-rule="evenodd" d="M38.1667 90.8333L39.9171 90.8333C38.9914 101.02 30.4276 109 20 109C8.95431 109 0 100.046 0 89V20C0 19.6853 0.00726677 19.3724 0.0216417 19.0613C0.00726941 18.7649 0 18.4666 0 18.1667C0 8.13349 8.13349 0 18.1667 0H20H61.8333C71.8665 0 80 8.13349 80 18.1667C80 21.4756 79.1153 24.5779 77.5696 27.25C74.4285 21.82 68.5576 18.1667 61.8333 18.1667H60H40H39.9171H38.1667C28.1335 18.1667 20 26.3001 20 36.3333C20 36.6333 20.0073 36.9315 20.0216 37.2279C20.0073 37.539 20 37.852 20 38.1667V70.8333C20 71.148 20.0073 71.461 20.0216 71.7721C20.0073 72.0685 20 72.3667 20 72.6667C20 82.6998 28.1335 90.8333 38.1667 90.8333Z" fill="black"/>
<path d="M39.9171 90.8333L40.913 90.9238L41.0121 89.8333L39.9171 89.8333L39.9171 90.8333ZM38.1667 90.8333L38.1667 91.8333L38.1667 91.8333L38.1667 90.8333ZM0.0216417 19.0613L1.02058 19.1074L1.02276 19.0601L1.02047 19.0128L0.0216417 19.0613ZM77.5696 27.25L76.704 27.7507L77.5696 29.2471L78.4352 27.7507L77.5696 27.25ZM20.0216 37.2279L21.0206 37.2741L21.0228 37.2268L21.0205 37.1795L20.0216 37.2279ZM20.0216 71.7721L21.0205 71.8205L21.0228 71.7732L21.0206 71.7259L20.0216 71.7721ZM39.9171 89.8333L38.1667 89.8333L38.1667 91.8333L39.9171 91.8333L39.9171 89.8333ZM20 110C30.9496 110 39.9409 101.621 40.913 90.9238L38.9212 90.7428C38.0419 100.419 29.9057 108 20 108V110ZM-1 89C-1 100.598 8.40202 110 20 110V108C9.50659 108 1 99.4934 1 89H-1ZM-1 20V89H1V20H-1ZM-0.977293 19.0151C-0.992378 19.3416 -1 19.6699 -1 20H1C1 19.7007 1.00691 19.4032 1.02058 19.1074L-0.977293 19.0151ZM-1 18.1667C-1 18.4828 -0.992339 18.7972 -0.977185 19.1097L1.02047 19.0128C1.00688 18.7326 1 18.4505 1 18.1667H-1ZM18.1667 -1C7.58121 -1 -1 7.58121 -1 18.1667H1C1 8.68578 8.68578 1 18.1667 1V-1ZM20 -1H18.1667V1H20V-1ZM61.8333 -1H20V1H61.8333V-1ZM81 18.1667C81 7.58121 72.4188 -1 61.8333 -1V1C71.3142 1 79 8.68578 79 18.1667H81ZM78.4352 27.7507C80.0666 24.9305 81 21.6561 81 18.1667H79C79 21.2951 78.1641 24.2253 76.704 26.7493L78.4352 27.7507ZM61.8333 19.1667C68.1862 19.1667 73.7343 22.617 76.704 27.7507L78.4352 26.7493C75.1227 21.0229 68.929 17.1667 61.8333 17.1667V19.1667ZM60 19.1667H61.8333V17.1667H60V19.1667ZM40 19.1667H60V17.1667H40V19.1667ZM39.9171 19.1667H40V17.1667H39.9171V19.1667ZM38.1667 19.1667H39.9171V17.1667H38.1667V19.1667ZM21 36.3333C21 26.8524 28.6858 19.1667 38.1667 19.1667V17.1667C27.5812 17.1667 19 25.7479 19 36.3333H21ZM21.0205 37.1795C21.0069 36.8992 21 36.6171 21 36.3333H19C19 36.6494 19.0077 36.9638 19.0228 37.2763L21.0205 37.1795ZM21 38.1667C21 37.8674 21.0069 37.5698 21.0206 37.2741L19.0227 37.1818C19.0076 37.5082 19 37.8366 19 38.1667H21ZM21 70.8333V38.1667H19V70.8333H21ZM21.0206 71.7259C21.0069 71.4302 21 71.1326 21 70.8333H19C19 71.1634 19.0076 71.4918 19.0227 71.8182L21.0206 71.7259ZM21 72.6667C21 72.3829 21.0069 72.1008 21.0205 71.8205L19.0228 71.7236C19.0077 72.0362 19 72.3505 19 72.6667H21ZM38.1667 89.8333C28.6858 89.8333 21 82.1476 21 72.6667H19C19 83.2521 27.5812 91.8333 38.1667 91.8333V89.8333Z" fill="black" mask="url(#path-35-inside-10)"/>
<mask id="path-37-inside-11" fill="white">
<path fill-rule="evenodd" clip-rule="evenodd" d="M22.6756 79H20V69C20 72.6429 20.9739 76.0583 22.6756 79Z"/>
</mask>
<path fill-rule="evenodd" clip-rule="evenodd" d="M22.6756 79H20V69C20 72.6429 20.9739 76.0583 22.6756 79Z" fill="black"/>
<path d="M22.6756 79L23.5412 78.4993L24.4094 80H22.6756V79ZM20 79V80H19V79H20ZM22.6756 80H20V78H22.6756V80ZM19 79V69H21V79H19ZM21 69C21 72.4624 21.9252 75.7056 23.5412 78.4993L21.81 79.5007C20.0227 76.4109 19 72.8234 19 69H21Z" fill="black" mask="url(#path-37-inside-11)"/>
<mask id="path-39-inside-12" fill="white">
<path fill-rule="evenodd" clip-rule="evenodd" d="M22.6756 79C26.1337 84.978 32.5972 89 40 89V99H20V79H22.6756Z"/>
</mask>
<path fill-rule="evenodd" clip-rule="evenodd" d="M22.6756 79C26.1337 84.978 32.5972 89 40 89V99H20V79H22.6756Z" fill="black"/>
<path d="M40 89H41V88H40V89ZM22.6756 79L23.5413 78.4993L23.2524 78H22.6756V79ZM40 99V100H41V99H40ZM20 99H19V100H20V99ZM20 79V78H19V79H20ZM40 88C32.9686 88 26.8279 84.181 23.5413 78.4993L21.81 79.5007C25.4395 85.775 32.2258 90 40 90V88ZM39 89V99H41V89H39ZM40 98H20V100H40V98ZM21 99V79H19V99H21ZM20 80H22.6756V78H20V80Z" fill="black" mask="url(#path-39-inside-12)"/>
<mask id="path-41-inside-13" fill="white">
<path fill-rule="evenodd" clip-rule="evenodd" d="M60.3244 119C56.8663 113.022 50.4028 109 43 109V99H63V119H60.3244Z"/>
</mask>
<path fill-rule="evenodd" clip-rule="evenodd" d="M60.3244 119C56.8663 113.022 50.4028 109 43 109V99H63V119H60.3244Z" fill="black"/>
<path d="M43 109H42V110H43V109ZM60.3244 119L59.4587 119.501L59.7476 120H60.3244V119ZM43 99V98H42V99H43ZM63 99H64V98H63V99ZM63 119V120H64V119H63ZM43 110C50.0314 110 56.1721 113.819 59.4587 119.501L61.19 118.499C57.5605 112.225 50.7742 108 43 108V110ZM44 109V99H42V109H44ZM43 100H63V98H43V100ZM62 99V119H64V99H62ZM63 118H60.3244V120H63V118Z" fill="black" mask="url(#path-41-inside-13)"/>
<mask id="path-43-inside-14" fill="white">
<path fill-rule="evenodd" clip-rule="evenodd" d="M19 109C19 97.9543 27.9543 89 39 89H60C71.0457 89 80 97.9543 80 109H49.5H19Z"/>
</mask>
<path fill-rule="evenodd" clip-rule="evenodd" d="M19 109C19 97.9543 27.9543 89 39 89H60C71.0457 89 80 97.9543 80 109H49.5H19Z" fill="black"/>
<path d="M19 109H18V110H19V109ZM80 109V110H81V109H80ZM39 88C27.402 88 18 97.402 18 109H20C20 98.5066 28.5066 90 39 90V88ZM60 88H39V90H60V88ZM81 109C81 97.402 71.598 88 60 88V90C70.4934 90 79 98.5066 79 109H81ZM49.5 110H80V108H49.5V110ZM19 110H49.5V108H19V110Z" fill="black" mask="url(#path-43-inside-14)"/>
</svg>
