<svg width="80" height="200" viewBox="0 0 80 200" fill="none" xmlns="http://www.w3.org/2000/svg">
<rect x="40" y="20" width="20" height="20" transform="rotate(-180 40 20)" fill="black"/>
<rect x="20" y="170" width="20" height="20" transform="rotate(-180 20 170)" fill="black"/>
<rect x="60" y="20" width="20" height="20" transform="rotate(-180 60 20)" fill="black"/>
<path fill-rule="evenodd" clip-rule="evenodd" d="M0 20H20V0C20 11.0457 11.0457 20 0 20Z" fill="black"/>
<path fill-rule="evenodd" clip-rule="evenodd" d="M80 20H60V0C60 11.0457 68.9543 20 80 20Z" fill="black"/>
<rect x="20" y="150" width="20" height="20" transform="rotate(-180 20 150)" fill="black"/>
<rect x="20" y="110" width="20" height="20" transform="rotate(-180 20 110)" fill="black"/>
<rect x="20" y="40" width="20" height="20" transform="rotate(-180 20 40)" fill="black"/>
<rect x="20" y="130" width="20" height="20" transform="rotate(-180 20 130)" fill="black"/>
<rect x="20" y="60" width="20" height="20" transform="rotate(-180 20 60)" fill="black"/>
<rect x="20" y="90" width="20" height="20" transform="rotate(-180 20 90)" fill="black"/>
<rect x="20" y="70" width="20" height="10" transform="rotate(-180 20 70)" fill="black"/>
<path fill-rule="evenodd" clip-rule="evenodd" d="M39 20H20V39C20 28.5066 28.5066 20 39 20Z" fill="black"/>
<rect x="20" y="180" width="20" height="20" transform="rotate(-180 20 180)" fill="black"/>
<path fill-rule="evenodd" clip-rule="evenodd" d="M20 200V180H0C0 191.046 8.95431 200 20 200Z" fill="black"/>
<path fill-rule="evenodd" clip-rule="evenodd" d="M0 20C0 8.95431 8.9543 0 20 0H41C52.0457 0 61 8.95431 61 20H30.5H0Z" fill="black"/>
</svg>
