<svg width="84" height="200" viewBox="0 0 84 200" fill="none" xmlns="http://www.w3.org/2000/svg">
<path fill-rule="evenodd" clip-rule="evenodd" d="M26.6756 120H24V130C24 126.357 24.9739 122.942 26.6756 120Z" fill="black"/>
<path fill-rule="evenodd" clip-rule="evenodd" d="M26.6756 80C24.9739 77.0583 24 73.6429 24 70V80H26.6756Z" fill="black"/>
<path fill-rule="evenodd" clip-rule="evenodd" d="M44 100H24V120H26.6756C30.1337 114.022 36.5972 110 44 110V100Z" fill="black"/>
<path fill-rule="evenodd" clip-rule="evenodd" d="M44 100H64V120H61.3244C57.8663 114.022 51.4028 110 44 110V100Z" fill="black"/>
<path fill-rule="evenodd" clip-rule="evenodd" d="M44 90V100H64V80H61.3244C57.8663 85.978 51.4028 90 44 90Z" fill="black"/>
<path fill-rule="evenodd" clip-rule="evenodd" d="M26.6756 80C30.1337 85.978 36.5972 90 44 90V100H24V80H26.6756Z" fill="black"/>
<rect x="4" y="30" width="20" height="10" fill="white"/>
<rect x="4" y="30" width="20" height="10" stroke="#A9A9A9"/>
<rect x="44" width="20" height="20" fill="black"/>
<rect x="64" y="80" width="20" height="20" fill="white"/>
<rect x="64" y="80" width="20" height="20" stroke="#A9A9A9"/>
<rect x="4" y="140" width="20" height="20" fill="white"/>
<rect x="4" y="140" width="20" height="20" stroke="#A9A9A9"/>
<rect x="4" y="140" width="20" height="20" fill="black"/>
<rect x="4" y="140" width="20" height="20" stroke="#A9A9A9"/>
<rect x="4" y="160" width="20" height="20" fill="black"/>
<rect x="4" y="160" width="20" height="20" stroke="#A9A9A9"/>
<rect x="4" y="120" width="20" height="20" fill="white"/>
<rect x="4" y="120" width="20" height="20" stroke="#A9A9A9"/>
<rect x="4" y="100" width="20" height="20" fill="white"/>
<rect x="4" y="100" width="20" height="20" stroke="#A9A9A9"/>
<rect x="4" y="100" width="20" height="20" fill="black"/>
<rect x="4" y="100" width="20" height="20" stroke="#A9A9A9"/>
<rect x="4" y="120" width="20" height="20" fill="black"/>
<rect x="4" y="120" width="20" height="20" stroke="#A9A9A9"/>
<rect x="4" y="60" width="20" height="20" fill="white"/>
<rect x="4" y="60" width="20" height="20" stroke="#A9A9A9"/>
<rect x="64" y="60" width="20" height="20" fill="white"/>
<rect x="64" y="60" width="20" height="20" stroke="#A9A9A9"/>
<rect x="4" y="80" width="20" height="20" fill="white"/>
<rect x="4" y="80" width="20" height="20" stroke="#A9A9A9"/>
<rect x="64" y="110" width="20" height="20" fill="black"/>
<rect x="64" y="110" width="20" height="20" stroke="#A9A9A9"/>
<rect x="64" y="140" width="20" height="20" fill="white"/>
<rect x="64" y="140" width="20" height="20" stroke="#A9A9A9"/>
<rect x="64" y="100" width="20" height="20" fill="white"/>
<rect x="64" y="100" width="20" height="20" stroke="#A9A9A9"/>
<rect x="64" y="100" width="20" height="20" fill="black"/>
<rect x="64" y="100" width="20" height="20" stroke="#A9A9A9"/>
<rect x="64" y="60" width="20" height="20" fill="black"/>
<rect x="64" y="60" width="20" height="20" stroke="#A9A9A9"/>
<rect x="64" y="120" width="20" height="20" fill="black"/>
<rect x="64" y="120" width="20" height="20" stroke="#A9A9A9"/>
<rect x="24" width="20" height="20" fill="black"/>
<rect x="24" width="20" height="20" stroke="#A9A9A9"/>
<rect x="64" y="40" width="20" height="20" fill="white"/>
<rect x="64" y="40" width="20" height="20" stroke="#A9A9A9"/>
<rect x="4" y="40" width="20" height="20" fill="white"/>
<rect x="4" y="40" width="20" height="20" stroke="#A9A9A9"/>
<rect x="64" y="80" width="20" height="20" fill="black"/>
<rect x="64" y="80" width="20" height="20" stroke="#A9A9A9"/>
<g filter="url(#filter0_d)">
<rect x="4" y="80" width="20" height="10" fill="black"/>
</g>
<rect x="64" y="140" width="20" height="20" fill="black"/>
<rect x="64" y="140" width="20" height="20" stroke="#A9A9A9"/>
<rect x="64" y="160" width="20" height="20" fill="black"/>
<rect x="64" y="160" width="20" height="20" stroke="#A9A9A9"/>
<path d="M84 40L64 40L64 20L84 20V40Z" fill="black"/>
<rect x="4" y="40" width="20" height="20" fill="black"/>
<rect x="4" y="40" width="20" height="20" stroke="#A9A9A9"/>
<rect x="4" y="60" width="20" height="20" fill="black"/>
<rect x="4" y="60" width="20" height="20" stroke="#A9A9A9"/>
<rect x="4" y="80" width="20" height="20" fill="black"/>
<rect x="4" y="80" width="20" height="20" stroke="#A9A9A9"/>
<rect x="64" y="40" width="20" height="20" fill="black"/>
<rect x="64" y="40" width="20" height="20" stroke="#A9A9A9"/>
<rect x="4" y="20" width="20" height="20" fill="black"/>
<rect x="4" y="20" width="20" height="20" stroke="#A9A9A9"/>
<path d="M4.00007 19.9991C4.10696 8.95389 13.1475 0.0866481 24.1927 0.193534L23.9991 20.1926L4.00007 19.9991Z" fill="black"/>
<path d="M4.00007 19.9991C4.10696 8.95389 13.1475 0.0866481 24.1927 0.193534L23.9991 20.1926L4.00007 19.9991Z" stroke="#A9A9A9"/>
<path d="M84 20C84 8.95431 75.0457 0 64 0V20H84Z" fill="black"/>
<path fill-rule="evenodd" clip-rule="evenodd" d="M44 100H64V80C64 91.0457 55.0457 100 44 100Z" fill="black"/>
<path fill-rule="evenodd" clip-rule="evenodd" d="M44 100H24V80C24 91.0457 32.9543 100 44 100Z" fill="black"/>
<path fill-rule="evenodd" clip-rule="evenodd" d="M84 180V200C84 188.954 75.0457 180 64 180H84Z" fill="black"/>
<path fill-rule="evenodd" clip-rule="evenodd" d="M24 20H44C32.9543 20 24 28.9543 24 40V20Z" fill="black"/>
<path fill-rule="evenodd" clip-rule="evenodd" d="M64 20H44C55.0457 20 64 28.9543 64 40V20Z" fill="black"/>
<path fill-rule="evenodd" clip-rule="evenodd" d="M61.3244 120H64V130C64 126.357 63.0261 122.942 61.3244 120Z" fill="black"/>
<path fill-rule="evenodd" clip-rule="evenodd" d="M61.3244 80C63.0261 77.0583 64 73.6429 64 70V80H61.3244Z" fill="black"/>
<path fill-rule="evenodd" clip-rule="evenodd" d="M4 180H24C12.9543 180 4 188.954 4 200V180Z" fill="black"/>
<defs>
<filter id="filter0_d" x="0" y="80" width="28" height="18" filterUnits="userSpaceOnUse" color-interpolation-filters="sRGB">
<feFlood flood-opacity="0" result="BackgroundImageFix"/>
<feColorMatrix in="SourceAlpha" type="matrix" values="0 0 0 0 0 0 0 0 0 0 0 0 0 0 0 0 0 0 127 0"/>
<feOffset dy="4"/>
<feGaussianBlur stdDeviation="2"/>
<feColorMatrix type="matrix" values="0 0 0 0 0 0 0 0 0 0 0 0 0 0 0 0 0 0 0.25 0"/>
<feBlend mode="normal" in2="BackgroundImageFix" result="effect1_dropShadow"/>
<feBlend mode="normal" in="SourceGraphic" in2="effect1_dropShadow" result="shape"/>
</filter>
</defs>
</svg>
