<svg xmlns="http://www.w3.org/2000/svg" viewBox="0 0 81 81"><g id="Layer_2" data-name="Layer 2"><g id="Layer_1-2" data-name="Layer 1"><path d="M72.94,62A12.24,12.24,0,0,0,60.68,74.21,12.28,12.28,0,0,0,48.38,62a12.28,12.28,0,0,0,12.3-12.26A12.24,12.24,0,0,0,72.94,62Z"/><path d="M29.72,20.34A10.64,10.64,0,0,0,19.07,31,10.67,10.67,0,0,0,8.38,20.34,10.67,10.67,0,0,0,19.07,9.69,10.64,10.64,0,0,0,29.72,20.34Z"/><path d="M75.35,24.71A6.28,6.28,0,0,0,69.06,31a6.29,6.29,0,0,0-6.3-6.28,6.29,6.29,0,0,0,6.3-6.28A6.28,6.28,0,0,0,75.35,24.71Z"/><path d="M72.33,0H8.67A8.68,8.68,0,0,0,0,8.67V72.33A8.68,8.68,0,0,0,8.67,81H72.33A8.68,8.68,0,0,0,81,72.33V8.67A8.68,8.68,0,0,0,72.33,0ZM79,72.33A6.67,6.67,0,0,1,72.33,79H8.67A6.67,6.67,0,0,1,2,72.33V8.67A6.67,6.67,0,0,1,8.67,2H72.33A6.67,6.67,0,0,1,79,8.67Z"/><path d="M37.24,55.78c-4,4-9.88,4.5-13.2,1.18s-2.8-9.23,1.18-13.2,9.88-4.49,13.19-1.17S41.21,51.81,37.24,55.78Z"/><path d="M60.21,19.45c-.67.34-8.83,4.51-17.46,9.22S25.06,38.62,22.56,41.11c-5.67,5.68-6.07,13.2-1,18.3A11.46,11.46,0,0,0,29.84,63c.33,0,.65,0,1,0a14.76,14.76,0,0,0,9.07-4.47c5-5,21-36.31,21.66-37.65L63,18.05ZM38.47,57a12.74,12.74,0,0,1-7.81,3.9A9.46,9.46,0,0,1,23,58c-4.27-4.26-3.87-10.62,1-15.46C27.91,38.6,50.4,26.78,58.34,22.66,54.22,30.6,42.4,53.09,38.47,57Z"/><path d="M8.38,20.34A10.67,10.67,0,0,0,19.07,9.69,10.64,10.64,0,0,0,29.72,20.34,10.64,10.64,0,0,0,19.07,31,10.67,10.67,0,0,0,8.38,20.34Z"/><path d="M25.22,43.76c4-4,9.88-4.49,13.19-1.17s2.8,9.22-1.17,13.19S27.36,60.28,24,57,21.24,47.73,25.22,43.76Z"/><path d="M60.21,19.45c-.67.34-8.83,4.51-17.46,9.22S25.06,38.62,22.56,41.11c-5.67,5.68-6.07,13.2-1,18.3A11.46,11.46,0,0,0,29.84,63c.33,0,.65,0,1,0a14.76,14.76,0,0,0,9.07-4.47c5-5,21-36.31,21.66-37.65L63,18.05ZM38.47,57a12.74,12.74,0,0,1-7.81,3.9A9.46,9.46,0,0,1,23,58c-4.27-4.26-3.87-10.62,1-15.46C27.91,38.6,50.4,26.78,58.34,22.66,54.22,30.6,42.4,53.09,38.47,57Z"/><path d="M72.94,62A12.24,12.24,0,0,0,60.68,74.21,12.28,12.28,0,0,0,48.38,62a12.28,12.28,0,0,0,12.3-12.26A12.24,12.24,0,0,0,72.94,62Z"/><path d="M62.76,24.71a6.29,6.29,0,0,0,6.3-6.28,6.28,6.28,0,0,0,6.29,6.28A6.28,6.28,0,0,0,69.06,31,6.29,6.29,0,0,0,62.76,24.71Z"/><path d="M72.33,0H8.67A8.68,8.68,0,0,0,0,8.67V72.33A8.68,8.68,0,0,0,8.67,81H72.33A8.68,8.68,0,0,0,81,72.33V8.67A8.68,8.68,0,0,0,72.33,0ZM79,72.33A6.67,6.67,0,0,1,72.33,79H8.67A6.67,6.67,0,0,1,2,72.33V8.67A6.67,6.67,0,0,1,8.67,2H72.33A6.67,6.67,0,0,1,79,8.67Z"/></g></g></svg>