<svg width="80" height="200" viewBox="0 0 80 200" fill="none" xmlns="http://www.w3.org/2000/svg">
<path fill-rule="evenodd" clip-rule="evenodd" d="M22.6756 80C26.1337 85.978 32.5972 90 40 90V100H20V80H22.6756Z" fill="black"/>
<path fill-rule="evenodd" clip-rule="evenodd" d="M57.3244 80C53.8663 85.978 47.4028 90 40 90V100H60V80H57.3244Z" fill="black"/>
<rect y="160" width="20" height="20" fill="black"/>
<rect y="40" width="20" height="20" fill="black"/>
<rect y="80" width="20" height="20" fill="black"/>
<rect y="140" width="20" height="20" fill="black"/>
<rect y="60" width="20" height="20" fill="black"/>
<rect y="120" width="20" height="20" fill="black"/>
<rect y="100" width="20" height="20" fill="black"/>
<path fill-rule="evenodd" clip-rule="evenodd" d="M22.6756 120C26.1337 114.022 32.5972 110 40 110V100H20V120H22.6756Z" fill="black"/>
<path fill-rule="evenodd" clip-rule="evenodd" d="M57.3244 120C53.8663 114.022 47.4028 110 40 110V100H60V120H57.3244Z" fill="black"/>
<rect x="20" y="180" width="20" height="20" fill="black"/>
<rect x="40" y="180" width="20" height="20" fill="black"/>
<rect x="60" y="160" width="20" height="20" fill="black"/>
<path fill-rule="evenodd" clip-rule="evenodd" d="M80 180H60V200C60 188.954 68.9543 180 80 180Z" fill="black"/>
<path fill-rule="evenodd" clip-rule="evenodd" d="M0 180H20V200C20 188.954 11.0457 180 0 180Z" fill="black"/>
<rect x="60" y="140" width="20" height="20" fill="black"/>
<rect y="20" width="20" height="20" fill="black"/>
<rect x="60" y="20" width="20" height="20" fill="black"/>
<path fill-rule="evenodd" clip-rule="evenodd" d="M20 161V180H39C28.5066 180 20 171.493 20 161Z" fill="black"/>
<path fill-rule="evenodd" clip-rule="evenodd" d="M60 161V180H41C51.4934 180 60 171.493 60 161Z" fill="black"/>
<path fill-rule="evenodd" clip-rule="evenodd" d="M80 40H60V60C60 48.9543 68.9543 40 80 40Z" fill="black"/>
<path fill-rule="evenodd" clip-rule="evenodd" d="M57.3244 80H60V70C60 73.6429 59.0261 77.0583 57.3244 80Z" fill="black"/>
<path fill-rule="evenodd" clip-rule="evenodd" d="M57.3244 120H60V130C60 126.357 59.0261 122.942 57.3244 120Z" fill="black"/>
<path fill-rule="evenodd" clip-rule="evenodd" d="M22.6756 80H20V70C20 73.6429 20.9739 77.0583 22.6756 80Z" fill="black"/>
<path fill-rule="evenodd" clip-rule="evenodd" d="M22.6756 120H20V130C20 126.357 20.9739 122.942 22.6756 120Z" fill="black"/>
<path fill-rule="evenodd" clip-rule="evenodd" d="M20 0C8.95431 0 0 8.95431 0 20C0 31.0457 8.95431 40 20 40C20 28.9543 28.9543 20 40 20C51.0457 20 60 28.9543 60 40C71.0457 40 80 31.0457 80 20C80 8.95431 71.0457 0 60 0H20Z" fill="black"/>
</svg>
