<svg width="80" height="200" viewBox="0 0 80 200" fill="none" xmlns="http://www.w3.org/2000/svg">
<rect y="160" width="20" height="20" fill="black"/>
<rect y="140" width="20" height="20" fill="black"/>
<rect y="160" width="20" height="20" fill="black"/>
<rect y="140" width="20" height="20" fill="black"/>
<rect x="40" y="180" width="20" height="20" fill="black"/>
<rect x="60" y="30" width="20" height="20" fill="black"/>
<rect x="20" y="180" width="20" height="20" fill="black"/>
<path fill-rule="evenodd" clip-rule="evenodd" d="M80 180H60V200C60 188.954 68.9543 180 80 180Z" fill="black"/>
<path fill-rule="evenodd" clip-rule="evenodd" d="M0 180H20V200C20 188.954 11.0457 180 0 180Z" fill="black"/>
<rect x="60" y="50" width="20" height="20" fill="black"/>
<rect x="60" y="90" width="20" height="20" fill="black"/>
<rect x="60" y="160" width="20" height="20" fill="black"/>
<rect x="60" y="70" width="20" height="20" fill="black"/>
<rect x="60" y="140" width="20" height="20" fill="black"/>
<rect x="60" y="110" width="20" height="20" fill="black"/>
<rect x="60" y="130" width="20" height="10" fill="black"/>
<path fill-rule="evenodd" clip-rule="evenodd" d="M41 180H60V161C60 171.493 51.4934 180 41 180Z" fill="black"/>
<path fill-rule="evenodd" clip-rule="evenodd" d="M39 180H20V161C20 171.493 28.5066 180 39 180Z" fill="black"/>
<rect x="60" y="20" width="20" height="20" fill="black"/>
<path fill-rule="evenodd" clip-rule="evenodd" d="M60 0V20H80C80 8.95431 71.0457 0 60 0Z" fill="black"/>
</svg>
