<svg width="120" height="200" viewBox="0 0 120 200" fill="none" xmlns="http://www.w3.org/2000/svg">
<path fill-rule="evenodd" clip-rule="evenodd" d="M20 0C8.95431 0 0 8.95431 0 20V40V60V80V100V120V140V160V180C11.0457 180 20 188.954 20 200V180V160V140V120V100V80V60V40V22.6756C22.9417 20.9739 26.3571 20 30 20C41.0457 20 50 28.9543 50 40V60V80V82.6756V100V120V140V160V180V200H70H100V180H120V160V140V120V100V80V60V40V20H100V40V60V80V100V120V140V160V180H90C78.9543 180 70 171.046 70 160V140V120V100V82.6756V80V60V40V20C70 8.95431 61.0457 0 50 0H20Z" fill="black"/>
<path fill-rule="evenodd" clip-rule="evenodd" d="M100 0V20H120C120 8.95431 111.046 0 100 0Z" fill="black"/>
<path fill-rule="evenodd" clip-rule="evenodd" d="M120 180H100V200C111.046 200 120 191.046 120 180Z" fill="black"/>
</svg>
