<svg width="80" height="200" viewBox="0 0 80 200" fill="none" xmlns="http://www.w3.org/2000/svg">
<path fill-rule="evenodd" clip-rule="evenodd" d="M22.6756 80C26.1337 85.978 32.5972 90 40 90V100H20V80H22.6756Z" fill="black"/>
<path fill-rule="evenodd" clip-rule="evenodd" d="M57.3244 80C53.8663 85.978 47.4028 90 40 90V100H60V80H57.3244Z" fill="black"/>
<rect y="160" width="20" height="20" fill="black"/>
<rect y="40" width="20" height="20" fill="black"/>
<rect y="80" width="20" height="20" fill="black"/>
<rect y="140" width="20" height="20" fill="black"/>
<rect y="60" width="20" height="20" fill="black"/>
<rect y="120" width="20" height="20" fill="black"/>
<rect y="100" width="20" height="20" fill="black"/>
<rect x="60" y="40" width="20" height="20" fill="black"/>
<rect x="60" y="60" width="20" height="20" fill="black"/>
<path fill-rule="evenodd" clip-rule="evenodd" d="M0 180H20V200C20 188.954 11.0457 180 0 180Z" fill="black"/>
<rect y="20" width="20" height="20" fill="black"/>
<rect x="60" y="20" width="20" height="20" fill="black"/>
<path fill-rule="evenodd" clip-rule="evenodd" d="M20 119V100H39C28.5066 100 20 108.507 20 119Z" fill="black"/>
<path fill-rule="evenodd" clip-rule="evenodd" d="M80 40H60V60C60 48.9543 68.9543 40 80 40Z" fill="black"/>
<path fill-rule="evenodd" clip-rule="evenodd" d="M57.3244 80H60V70C60 73.6429 59.0261 77.0583 57.3244 80Z" fill="black"/>
<path fill-rule="evenodd" clip-rule="evenodd" d="M22.6756 80H20V70C20 73.6429 20.9739 77.0583 22.6756 80Z" fill="black"/>
<path fill-rule="evenodd" clip-rule="evenodd" d="M21.6756 110H19V120C19 116.357 19.9739 112.942 21.6756 110Z" fill="black"/>
<path fill-rule="evenodd" clip-rule="evenodd" d="M77.3244 90C79.0261 87.0583 80 83.6429 80 80H60V100C67.4028 100 73.8663 95.978 77.3244 90Z" fill="black"/>
<path fill-rule="evenodd" clip-rule="evenodd" d="M20 0C8.95431 0 0 8.95431 0 20C0 31.0457 8.95431 40 20 40C20 28.9543 28.9543 20 40 20C51.0457 20 60 28.9543 60 40C71.0457 40 80 31.0457 80 20C80 8.95431 71.0457 0 60 0H20Z" fill="black"/>
<path fill-rule="evenodd" clip-rule="evenodd" d="M22.6756 110C26.1337 104.022 32.5972 100 40 100V90H20V110H22.6756Z" fill="black"/>
</svg>
