<svg xmlns="http://www.w3.org/2000/svg" viewBox="0 0 1145.78 1262.69"><defs><style>.cls-1{fill:red;}</style></defs><g id="Layer_2" data-name="Layer 2"><g id="Layer_1-2" data-name="Layer 1"><path class="cls-1" d="M922.77,429.39a11.72,11.72,0,1,0,9.82,18.11v3.66a14.37,14.37,0,0,1-11.17,14,15.31,15.31,0,0,0,3.27.35,15.09,15.09,0,0,0,15.09-15.08v-6a15.1,15.1,0,0,0-15.09-15.09c-.34,0-.68,0-1,0S923.07,429.39,922.77,429.39Z"/><path class="cls-1" d="M245.51,1248.66a14,14,0,1,1-14-14A14,14,0,0,1,245.51,1248.66Z"/><path class="cls-1" d="M711.15,1238H691v-2.28h20.2Z"/><path class="cls-1" d="M726.12,1245.48h10.43v2.37H723.2v-22h2.92Z"/><path class="cls-1" d="M742.47,1247.85h-2.8v-16.36h2.8Zm-3-20.7a1.69,1.69,0,0,1,.41-1.15,1.61,1.61,0,0,1,1.24-.47,1.58,1.58,0,0,1,1.24.47,1.6,1.6,0,0,1,.42,1.15,1.55,1.55,0,0,1-.42,1.13,1.61,1.61,0,0,1-1.24.46,1.5,1.5,0,0,1-1.65-1.59Z"/><path class="cls-1" d="M757.06,1247.85a5.92,5.92,0,0,1-.39-1.72,6.25,6.25,0,0,1-4.66,2,5.83,5.83,0,0,1-4-1.36,4.48,4.48,0,0,1-1.54-3.48,4.62,4.62,0,0,1,1.94-4,9.13,9.13,0,0,1,5.47-1.42h2.72v-1.28a3.12,3.12,0,0,0-.87-2.33,3.5,3.5,0,0,0-2.59-.88,4.11,4.11,0,0,0-2.51.75,2.23,2.23,0,0,0-1,1.83h-2.82a3.9,3.9,0,0,1,.86-2.36,6.05,6.05,0,0,1,2.37-1.81,8,8,0,0,1,3.28-.67,6.45,6.45,0,0,1,4.43,1.43,5.06,5.06,0,0,1,1.66,3.88V1244a9.29,9.29,0,0,0,.57,3.59v.24Zm-4.64-2.13a4.91,4.91,0,0,0,2.49-.68,4.1,4.1,0,0,0,1.71-1.77v-3.36h-2.19q-5.14,0-5.14,3a2.57,2.57,0,0,0,.87,2.06A3.42,3.42,0,0,0,752.42,1245.72Z"/><path class="cls-1" d="M766.44,1231.49l.07,1.81a6.06,6.06,0,0,1,4.86-2.12q3.42,0,4.67,2.64a6.1,6.1,0,0,1,2.12-1.91,6.37,6.37,0,0,1,3.1-.73q5.38,0,5.47,5.71v11h-2.8v-10.8a3.68,3.68,0,0,0-.8-2.61,3.48,3.48,0,0,0-2.69-.88,3.69,3.69,0,0,0-2.59.94,3.73,3.73,0,0,0-1.19,2.49v10.86h-2.81v-10.72q0-3.57-3.5-3.57a3.74,3.74,0,0,0-3.76,2.34v11.95h-2.8v-16.36Z"/><path class="cls-1" d="M815.28,1240.86a8.11,8.11,0,0,1-2.58,5.4,8.48,8.48,0,0,1-5.77,1.89,7.77,7.77,0,0,1-6.25-2.79,11.27,11.27,0,0,1-2.35-7.49v-2.12a12.61,12.61,0,0,1,1.09-5.4,8.24,8.24,0,0,1,3.11-3.57,8.71,8.71,0,0,1,4.66-1.25,7.91,7.91,0,0,1,5.63,2,8.15,8.15,0,0,1,2.46,5.41h-2.92a6.29,6.29,0,0,0-1.64-3.81,4.94,4.94,0,0,0-3.53-1.18,5.22,5.22,0,0,0-4.37,2,9.5,9.5,0,0,0-1.57,5.86V1238a9.68,9.68,0,0,0,1.5,5.7,4.82,4.82,0,0,0,4.18,2.12,5.62,5.62,0,0,0,3.71-1.09,6.08,6.08,0,0,0,1.72-3.83Z"/><path class="cls-1" d="M828.92,1247.85a5.92,5.92,0,0,1-.39-1.72,6.23,6.23,0,0,1-4.66,2,5.83,5.83,0,0,1-4-1.36,4.48,4.48,0,0,1-1.54-3.48,4.62,4.62,0,0,1,1.94-4,9.13,9.13,0,0,1,5.47-1.42h2.72v-1.28a3.12,3.12,0,0,0-.87-2.33,3.5,3.5,0,0,0-2.59-.88,4.11,4.11,0,0,0-2.51.75,2.25,2.25,0,0,0-1,1.83h-2.82a3.85,3.85,0,0,1,.87-2.36,6,6,0,0,1,2.36-1.81,8,8,0,0,1,3.28-.67,6.45,6.45,0,0,1,4.43,1.43,5.06,5.06,0,0,1,1.66,3.88V1244a9.09,9.09,0,0,0,.58,3.59v.24Zm-4.64-2.13a4.91,4.91,0,0,0,2.49-.68,4.1,4.1,0,0,0,1.71-1.77v-3.36h-2.19q-5.14,0-5.14,3A2.54,2.54,0,0,0,822,1245,3.37,3.37,0,0,0,824.28,1245.72Z"/><path class="cls-1" d="M838.71,1247.85h-2.8v-23.23h2.8Z"/><path class="cls-1" d="M846.24,1247.85h-2.8v-23.23h2.8Z"/><path class="cls-1" d="M860.83,1247.85a5.92,5.92,0,0,1-.39-1.72,6.25,6.25,0,0,1-4.66,2,5.83,5.83,0,0,1-4-1.36,4.45,4.45,0,0,1-1.54-3.48,4.62,4.62,0,0,1,1.94-4,9.13,9.13,0,0,1,5.47-1.42h2.72v-1.28a3.12,3.12,0,0,0-.87-2.33,3.5,3.5,0,0,0-2.59-.88,4.09,4.09,0,0,0-2.51.75,2.23,2.23,0,0,0-1,1.83h-2.82a3.9,3.9,0,0,1,.86-2.36,6.09,6.09,0,0,1,2.36-1.81,8.1,8.1,0,0,1,3.29-.67,6.45,6.45,0,0,1,4.43,1.43,5.1,5.1,0,0,1,1.66,3.88V1244a9.09,9.09,0,0,0,.58,3.59v.24Zm-4.64-2.13a4.94,4.94,0,0,0,2.49-.68,4.1,4.1,0,0,0,1.71-1.77v-3.36H858.2q-5.15,0-5.14,3a2.54,2.54,0,0,0,.88,2.06A3.37,3.37,0,0,0,856.19,1245.72Z"/><path class="cls-1" d="M870.22,1231.49l.09,2.06a6,6,0,0,1,4.9-2.37c3.46,0,5.2,2,5.23,5.86v10.81h-2.79V1237a3.74,3.74,0,0,0-.82-2.61,3.19,3.19,0,0,0-2.46-.85,4,4,0,0,0-2.39.72,5,5,0,0,0-1.61,1.91v11.66h-2.79v-16.36Z"/><path class="cls-1" d="M894.76,1247.85a5.92,5.92,0,0,1-.39-1.72,6.23,6.23,0,0,1-4.65,2,5.81,5.81,0,0,1-4-1.36,4.45,4.45,0,0,1-1.54-3.48,4.61,4.61,0,0,1,1.93-4,9.13,9.13,0,0,1,5.47-1.42h2.73v-1.28a3.09,3.09,0,0,0-.88-2.33,3.5,3.5,0,0,0-2.59-.88,4.11,4.11,0,0,0-2.51.75,2.25,2.25,0,0,0-1,1.83h-2.81a3.9,3.9,0,0,1,.86-2.36,6,6,0,0,1,2.36-1.81,8,8,0,0,1,3.28-.67,6.43,6.43,0,0,1,4.43,1.43,5.06,5.06,0,0,1,1.66,3.88V1244a9.27,9.27,0,0,0,.58,3.59v.24Zm-4.64-2.13a5,5,0,0,0,2.5-.68,4.21,4.21,0,0,0,1.71-1.77v-3.36h-2.19q-5.14,0-5.15,3a2.54,2.54,0,0,0,.88,2.06A3.39,3.39,0,0,0,890.12,1245.72Z"/><path class="cls-1" d="M904.16,1231.49l.09,2.06a6,6,0,0,1,4.9-2.37c3.45,0,5.2,2,5.23,5.86v10.81h-2.8V1237a3.69,3.69,0,0,0-.82-2.61,3.18,3.18,0,0,0-2.46-.85,4,4,0,0,0-2.39.72,4.89,4.89,0,0,0-1.6,1.91v11.66h-2.8v-16.36Z"/><path class="cls-1" d="M918.51,1252.23l-1.59-1.08a7.3,7.3,0,0,0,1.48-4.09v-2.52h2.74v2.19a6.78,6.78,0,0,1-.76,3.06A7,7,0,0,1,918.51,1252.23Z"/><path class="cls-1" d="M947.4,1228.22h-7.07v19.63h-2.89v-19.63h-7.06v-2.39h17Z"/><path class="cls-1" d="M953,1233.47a6,6,0,0,1,4.84-2.29c3.46,0,5.2,2,5.23,5.86v10.81h-2.79V1237a3.74,3.74,0,0,0-.82-2.61,3.22,3.22,0,0,0-2.47-.85,4.09,4.09,0,0,0-2.39.72,5,5,0,0,0-1.6,1.91v11.66h-2.8v-23.23H953Z"/><path class="cls-1" d="M974.08,1248.15a7.15,7.15,0,0,1-5.41-2.17,8.18,8.18,0,0,1-2.09-5.86v-.51a9.88,9.88,0,0,1,.92-4.34,7.34,7.34,0,0,1,2.6-3,6.6,6.6,0,0,1,3.63-1.09,6.13,6.13,0,0,1,5,2.11,9.08,9.08,0,0,1,1.77,6v1.16H969.38a5.92,5.92,0,0,0,1.4,3.92,4.48,4.48,0,0,0,3.45,1.48,4.79,4.79,0,0,0,2.51-.61,6.07,6.07,0,0,0,1.8-1.6l1.71,1.33A6.87,6.87,0,0,1,974.08,1248.15Zm-.35-14.67a3.74,3.74,0,0,0-2.84,1.24,5.94,5.94,0,0,0-1.42,3.45h8.2V1238a5.41,5.41,0,0,0-1.15-3.3A3.54,3.54,0,0,0,973.73,1233.48Z"/><path class="cls-1" d="M1008,1240.86a8.11,8.11,0,0,1-2.58,5.4,8.48,8.48,0,0,1-5.77,1.89,7.8,7.8,0,0,1-6.26-2.79,11.32,11.32,0,0,1-2.34-7.49v-2.12a12.61,12.61,0,0,1,1.09-5.4,8.18,8.18,0,0,1,3.11-3.57,8.71,8.71,0,0,1,4.66-1.25,7.88,7.88,0,0,1,5.62,2,8.11,8.11,0,0,1,2.47,5.41h-2.92a6.23,6.23,0,0,0-1.65-3.81,4.91,4.91,0,0,0-3.52-1.18,5.22,5.22,0,0,0-4.37,2,9.5,9.5,0,0,0-1.57,5.86V1238a9.68,9.68,0,0,0,1.5,5.7,4.82,4.82,0,0,0,4.18,2.12,5.62,5.62,0,0,0,3.71-1.09,6.13,6.13,0,0,0,1.72-3.83Z"/><path class="cls-1" d="M1014.61,1247.85h-2.8v-23.23h2.8Z"/><path class="cls-1" d="M1018.36,1239.52a9.66,9.66,0,0,1,.94-4.33,7,7,0,0,1,2.63-3,7.16,7.16,0,0,1,3.86-1,6.88,6.88,0,0,1,5.39,2.32,8.87,8.87,0,0,1,2.07,6.15v.2a9.69,9.69,0,0,1-.92,4.3,6.93,6.93,0,0,1-2.61,2.95,7.26,7.26,0,0,1-3.91,1.05,6.9,6.9,0,0,1-5.39-2.31,8.9,8.9,0,0,1-2.06-6.13Zm2.81.33a7,7,0,0,0,1.26,4.37,4.05,4.05,0,0,0,3.38,1.65,4,4,0,0,0,3.39-1.67,7.64,7.64,0,0,0,1.26-4.68,6.91,6.91,0,0,0-1.29-4.36,4.23,4.23,0,0,0-6.73,0A7.58,7.58,0,0,0,1021.17,1239.85Z"/><path class="cls-1" d="M1046.86,1246.23a5.93,5.93,0,0,1-4.79,1.92,5.12,5.12,0,0,1-4-1.51,6.63,6.63,0,0,1-1.38-4.51v-10.64h2.8v10.57q0,3.72,3,3.72,3.2,0,4.26-2.39v-11.9h2.8v16.36h-2.66Z"/><path class="cls-1" d="M1053.17,1239.53a9.57,9.57,0,0,1,1.79-6,6.05,6.05,0,0,1,9.22-.33v-8.53h2.8v23.23h-2.57l-.14-1.75a5.69,5.69,0,0,1-4.67,2.05,5.58,5.58,0,0,1-4.64-2.33,9.71,9.71,0,0,1-1.79-6.07Zm2.8.32a7.21,7.21,0,0,0,1.15,4.35,3.71,3.71,0,0,0,3.17,1.58,4.09,4.09,0,0,0,3.89-2.39v-7.52a4.12,4.12,0,0,0-3.86-2.31,3.73,3.73,0,0,0-3.2,1.59A8,8,0,0,0,1056,1239.85Z"/><path class="cls-1" d="M1091.61,1242.1h-9.22l-2.07,5.75h-3l8.41-22h2.54l8.42,22h-3Zm-8.35-2.39h7.49l-3.75-10.29Z"/><path class="cls-1" d="M1102.74,1227.53v4h3.06v2.16h-3.06v10.15a2.31,2.31,0,0,0,.41,1.48,1.74,1.74,0,0,0,1.39.48,6.8,6.8,0,0,0,1.33-.18v2.27a8.19,8.19,0,0,1-2.15.3,3.46,3.46,0,0,1-2.82-1.13,4.85,4.85,0,0,1-1-3.22v-10.15h-3v-2.16h3v-4Z"/><path class="cls-1" d="M1112.12,1247.85h-2.8v-23.23h2.8Z"/><path class="cls-1" d="M1126.71,1247.85a5.92,5.92,0,0,1-.39-1.72,6.23,6.23,0,0,1-4.66,2,5.83,5.83,0,0,1-4-1.36,4.45,4.45,0,0,1-1.54-3.48,4.61,4.61,0,0,1,1.93-4,9.18,9.18,0,0,1,5.48-1.42h2.72v-1.28a3.09,3.09,0,0,0-.88-2.33,3.46,3.46,0,0,0-2.58-.88,4.09,4.09,0,0,0-2.51.75,2.24,2.24,0,0,0-1,1.83h-2.81a3.85,3.85,0,0,1,.87-2.36,6,6,0,0,1,2.35-1.81,8,8,0,0,1,3.28-.67,6.46,6.46,0,0,1,4.44,1.43,5.06,5.06,0,0,1,1.66,3.88V1244a9.29,9.29,0,0,0,.57,3.59v.24Zm-4.64-2.13a4.91,4.91,0,0,0,2.49-.68,4.1,4.1,0,0,0,1.71-1.77v-3.36h-2.19q-5.14,0-5.14,3a2.57,2.57,0,0,0,.87,2.06A3.42,3.42,0,0,0,1122.07,1245.72Z"/><path class="cls-1" d="M1143,1243.51a2,2,0,0,0-.86-1.75,7.86,7.86,0,0,0-3-1.09,14.17,14.17,0,0,1-3.37-1.09,4.93,4.93,0,0,1-1.85-1.51,3.71,3.71,0,0,1-.59-2.09,4.24,4.24,0,0,1,1.7-3.4,6.66,6.66,0,0,1,4.35-1.4,6.8,6.8,0,0,1,4.51,1.44,4.56,4.56,0,0,1,1.74,3.68h-2.81a2.5,2.5,0,0,0-1-2,3.59,3.59,0,0,0-2.45-.84,3.81,3.81,0,0,0-2.38.67,2.08,2.08,0,0,0-.87,1.74,1.71,1.71,0,0,0,.8,1.53,10.28,10.28,0,0,0,2.89,1,14.52,14.52,0,0,1,3.4,1.12,4.82,4.82,0,0,1,1.92,1.57,3.73,3.73,0,0,1,.64,2.22,4.19,4.19,0,0,1-1.76,3.53,7.4,7.4,0,0,1-4.55,1.31,8.23,8.23,0,0,1-3.47-.69,5.74,5.74,0,0,1-2.38-1.94,4.76,4.76,0,0,1-.84-2.71h2.79a2.94,2.94,0,0,0,1.12,2.24,4.4,4.4,0,0,0,2.78.82,4.5,4.5,0,0,0,2.55-.64A2,2,0,0,0,1143,1243.51Z"/><path class="cls-1" d="M820.9,411.57V429.5h7.39a7.42,7.42,0,0,1-7.39-7.42Z"/><path class="cls-1" d="M856.75,411.57h0V429.5h-7.42a7.42,7.42,0,0,0,7.42-7.42Z"/><path class="cls-1" d="M874.68,339V321h-7.42a7.42,7.42,0,0,1,7.42,7.42Z"/><path class="cls-1" d="M856.75,303.12h0V285.19h-7.42a7.42,7.42,0,0,1,7.42,7.42Z"/><path class="cls-1" d="M856.75,384.68h0V366.75h-7.42a7.42,7.42,0,0,1,7.42,7.42Z"/><path class="cls-1" d="M874.68,411.57H856.75V429.5h17.93Z"/><path class="cls-1" d="M874.68,393.64H856.75v17.93h17.93Z"/><path class="cls-1" d="M874.68,411.57H856.75V429.5h17.93Z"/><path class="cls-1" d="M874.68,393.64H856.75v17.93h17.93Z"/><path class="cls-1" d="M838.83,357.79H820.9v8.07h17.93Z"/><path class="cls-1" d="M847.79,348.83h-9v9h9Z"/><path class="cls-1" d="M856.75,348.83h-9v9h9Z"/><path class="cls-1" d="M847.79,366.75v-9h9v9Z"/><path class="cls-1" d="M874.68,366.75H856.75v26.89h17.93Z"/><path class="cls-1" d="M838.83,429.5H820.9v17.92h17.93Z"/><path class="cls-1" d="M856.75,429.5H838.82v17.92h17.92Z"/><path class="cls-1" d="M820.9,411.57H803V429.5H820.9Z"/><path class="cls-1" d="M856.75,429.5h17.93a17.92,17.92,0,0,0-17.93,17.92Z"/><path class="cls-1" d="M803,429.5a17.92,17.92,0,0,1,17.93,17.92V429.5Z"/><path class="cls-1" d="M820.9,411.57H803V429.5H820.9Z"/><path class="cls-1" d="M820.9,393.64H803v17.93H820.9Z"/><path class="cls-1" d="M874.68,285.19H856.75v17.93h17.93Z"/><path class="cls-1" d="M874.68,303.12H856.75V321h17.93Z"/><path class="cls-1" d="M829.82,269.06H812a9,9,0,0,0-9,9v79.63a9,9,0,0,0,9,9h17.78a9,9,0,0,0,9-9v-7.25h-10.5a7.4,7.4,0,0,1-6.77-4.39,7.29,7.29,0,0,1-.65-3V301.62h0v-8.93a7.42,7.42,0,0,1,7.39-7.35h39.94a6.45,6.45,0,0,1,6,4,16.29,16.29,0,0,0-15.79-20.26Z"/><path class="cls-1" d="M820.9,331a17.72,17.72,0,0,0,2.4,8.88h-2.4Z"/><path class="cls-1" d="M823.3,339.86a17.92,17.92,0,0,0,15.52,9h0v9H820.9V339.86Z"/><path class="cls-1" d="M857,375.72h2.4V357.79H841.51v9A17.92,17.92,0,0,1,857,375.72Z"/><path class="cls-1" d="M820,366.75a17.92,17.92,0,0,1,17.93-17.92h18.82a17.92,17.92,0,0,1,17.93,17.92H820v0Z"/><path class="cls-1" d="M701,411.5H719v17.92H701Z"/><path class="cls-1" d="M701,303.94H719v17.93H701Z"/><path class="cls-1" d="M701,339.79H719v17.93H701Z"/><path class="cls-1" d="M701,393.57H719V411.5H701Z"/><path class="cls-1" d="M701,321.87H719v17.92H701Z"/><path class="cls-1" d="M701,375.65H719v17.92H701Z"/><path class="cls-1" d="M701,357.72H719v17.93H701Z"/><path class="cls-1" d="M754.81,411.5h17.92v17.92H754.81Z"/><path class="cls-1" d="M719,429.42H701A17.93,17.93,0,0,1,719,447.35Z"/><path class="cls-1" d="M772.73,429.42H754.81v17.93A17.92,17.92,0,0,1,772.73,429.42Z"/><path class="cls-1" d="M719,447.35v-9h35.85v9Z"/><path class="cls-1" d="M754.81,303.94h17.92v17.93H754.81Z"/><path class="cls-1" d="M754.81,393.57h17.92V411.5H754.81Z"/><path class="cls-1" d="M754.81,321.87h17.92v17.92H754.81Z"/><path class="cls-1" d="M754.81,339.79h17.92v17.93H754.81Z"/><path class="cls-1" d="M754.81,357.72h17.92v17.93H754.81Z"/><path class="cls-1" d="M754.81,375.65h17.92v17.92H754.81Z"/><path class="cls-1" d="M701,286H719v17.93H701Z"/><path class="cls-1" d="M754.81,286h17.92v17.93H754.81Z"/><path class="cls-1" d="M721.35,420.46a17.88,17.88,0,0,1-2.39-9v9Z"/><path class="cls-1" d="M752.41,420.46a17.78,17.78,0,0,0,2.4-9v9Z"/><path class="cls-1" d="M736.88,429.42h0a17.91,17.91,0,0,0,15.53-9h2.4v17.93H736.88Z"/><path class="cls-1" d="M721.35,420.46H719v17.93h17.92v-9A17.92,17.92,0,0,1,721.35,420.46Z"/><path class="cls-1" d="M754.81,268.09V286h17.92A17.92,17.92,0,0,0,754.81,268.09Z"/><path class="cls-1" d="M701,286A17.92,17.92,0,0,1,719,268.09V286Z"/><path class="cls-1" d="M119.87,1222v17.93h7.39a7.42,7.42,0,0,1-7.39-7.42Z"/><path class="cls-1" d="M155.72,1222h0v17.93H148.3a7.42,7.42,0,0,0,7.42-7.42Z"/><path class="cls-1" d="M173.65,1149.36v-17.93h-7.42a7.42,7.42,0,0,1,7.42,7.42Z"/><path class="cls-1" d="M155.72,1113.51h0v-17.93H148.3a7.42,7.42,0,0,1,7.42,7.42Z"/><path class="cls-1" d="M155.72,1195.07h0v-17.92H148.3a7.42,7.42,0,0,1,7.42,7.42Z"/><path class="cls-1" d="M173.65,1222H155.72v17.93h17.93Z"/><path class="cls-1" d="M173.65,1204H155.72V1222h17.93Z"/><path class="cls-1" d="M173.65,1222H155.72v17.93h17.93Z"/><path class="cls-1" d="M173.65,1204H155.72V1222h17.93Z"/><path class="cls-1" d="M137.8,1168.19H119.87v8.06H137.8Z"/><path class="cls-1" d="M146.76,1159.22h-9v9h9Z"/><path class="cls-1" d="M155.72,1159.22h-9v9h9Z"/><path class="cls-1" d="M146.76,1177.15v-9h9v9Z"/><path class="cls-1" d="M173.65,1177.15H155.72V1204h17.93Z"/><path class="cls-1" d="M137.8,1239.89H119.87v17.93H137.8Z"/><path class="cls-1" d="M155.72,1239.89H137.8v17.93h17.92Z"/><path class="cls-1" d="M119.87,1222H101.94v17.93h17.93Z"/><path class="cls-1" d="M155.72,1239.89h17.93a17.93,17.93,0,0,0-17.93,17.93Z"/><path class="cls-1" d="M101.94,1239.89a17.93,17.93,0,0,1,17.93,17.93v-17.93Z"/><path class="cls-1" d="M119.87,1222H101.94v17.93h17.93Z"/><path class="cls-1" d="M119.87,1204H101.94V1222h17.93Z"/><path class="cls-1" d="M173.65,1095.58H155.72v17.93h17.93Z"/><path class="cls-1" d="M173.65,1113.51H155.72v17.92h17.93Z"/><path class="cls-1" d="M128.8,1079.45H111a9,9,0,0,0-9,9v79.63a9,9,0,0,0,9,9h17.78a9,9,0,0,0,9-9v-7.24H127.29a7.42,7.42,0,0,1-6.77-4.4,7.28,7.28,0,0,1-.65-3V1112h0v-8.94a7.42,7.42,0,0,1,7.4-7.35H167.2a6.46,6.46,0,0,1,6,4,16.29,16.29,0,0,0-15.79-20.26Z"/><path class="cls-1" d="M119.87,1141.37a17.86,17.86,0,0,0,2.4,8.89h-2.4Z"/><path class="cls-1" d="M122.27,1150.26a17.91,17.91,0,0,0,15.53,9h0v9H119.87v-17.93Z"/><path class="cls-1" d="M156,1186.11h2.4v-17.92H140.49v9A17.91,17.91,0,0,1,156,1186.11Z"/><path class="cls-1" d="M119,1177.15a17.93,17.93,0,0,1,17.93-17.93h18.82a17.93,17.93,0,0,1,17.93,17.93H119v0Z"/><path class="cls-1" d="M0,1221.89H17.93v17.93H0Z"/><path class="cls-1" d="M0,1114.33H17.93v17.93H0Z"/><path class="cls-1" d="M0,1150.19H17.93v17.92H0Z"/><path class="cls-1" d="M0,1204H17.93v17.92H0Z"/><path class="cls-1" d="M0,1132.26H17.93v17.93H0Z"/><path class="cls-1" d="M0,1186H17.93V1204H0Z"/><path class="cls-1" d="M0,1168.11H17.93V1186H0Z"/><path class="cls-1" d="M53.78,1221.89H71.71v17.93H53.78Z"/><path class="cls-1" d="M17.93,1239.82H0a17.92,17.92,0,0,1,17.93,17.92Z"/><path class="cls-1" d="M71.71,1239.82H53.78v17.92A17.92,17.92,0,0,1,71.71,1239.82Z"/><path class="cls-1" d="M17.93,1257.74v-9H53.78v9Z"/><path class="cls-1" d="M53.78,1114.33H71.71v17.93H53.78Z"/><path class="cls-1" d="M53.78,1204H71.71v17.92H53.78Z"/><path class="cls-1" d="M53.78,1132.26H71.71v17.93H53.78Z"/><path class="cls-1" d="M53.78,1150.19H71.71v17.92H53.78Z"/><path class="cls-1" d="M53.78,1168.11H71.71V1186H53.78Z"/><path class="cls-1" d="M53.78,1186H71.71V1204H53.78Z"/><path class="cls-1" d="M0,1096.41H17.93v17.92H0Z"/><path class="cls-1" d="M53.78,1096.41H71.71v17.92H53.78Z"/><path class="cls-1" d="M20.32,1230.86a17.91,17.91,0,0,1-2.39-9v9Z"/><path class="cls-1" d="M51.38,1230.86a17.82,17.82,0,0,0,2.4-9v9Z"/><path class="cls-1" d="M35.85,1239.82h0a17.93,17.93,0,0,0,15.53-9h2.4v17.92H35.85Z"/><path class="cls-1" d="M20.32,1230.86H17.93v17.92H35.85v-9A17.94,17.94,0,0,1,20.32,1230.86Z"/><path class="cls-1" d="M53.78,1078.48v17.93H71.71A17.93,17.93,0,0,0,53.78,1078.48Z"/><path class="cls-1" d="M0,1096.41a17.93,17.93,0,0,1,17.93-17.93v17.93Z"/><path class="cls-1" d="M444.92,161.66H427v17.93h17.92Z"/><path class="cls-1" d="M427,27.21H409.07V45.14H427Z"/><path class="cls-1" d="M462.85,161.66H444.92v17.93h17.93Z"/><path class="cls-1" d="M409.07,161.66H427v17.93A17.93,17.93,0,0,0,409.07,161.66Z"/><path class="cls-1" d="M480.77,161.66H462.85v17.93A17.92,17.92,0,0,1,480.77,161.66Z"/><path class="cls-1" d="M427,45.14H409.07V63.07H427Z"/><path class="cls-1" d="M427,81H409.07V98.92H427Z"/><path class="cls-1" d="M427,143.73H409.07v17.93H427Z"/><path class="cls-1" d="M427,63.07H409.07V81H427Z"/><path class="cls-1" d="M427,125.81H409.07v17.92H427Z"/><path class="cls-1" d="M427,98.92H409.07v17.92H427Z"/><path class="cls-1" d="M427,116.84H409.07v9H427Z"/><path class="cls-1" d="M433.1,161.66H427v-6.13A6.12,6.12,0,0,0,433.1,161.66Z"/><path class="cls-1" d="M427,18.25H409.07V36.18H427Z"/><path class="cls-1" d="M427,.32V18.25H409.07A17.93,17.93,0,0,1,427,.32Z"/><path class="cls-1" d="M535.89,161.34H518v17.92h17.92Z"/><path class="cls-1" d="M518,26.89H500V44.82H518Z"/><path class="cls-1" d="M553.82,161.34H535.89v17.92h17.93Z"/><path class="cls-1" d="M500,161.34H518v17.92A17.92,17.92,0,0,0,500,161.34Z"/><path class="cls-1" d="M571.75,161.34H553.82v17.92A17.92,17.92,0,0,1,571.75,161.34Z"/><path class="cls-1" d="M518,44.82H500V62.74H518Z"/><path class="cls-1" d="M518,80.67H500V98.6H518Z"/><path class="cls-1" d="M518,143.41H500v17.93H518Z"/><path class="cls-1" d="M518,62.74H500V80.67H518Z"/><path class="cls-1" d="M518,125.49H500v17.92H518Z"/><path class="cls-1" d="M518,98.6H500v17.92H518Z"/><path class="cls-1" d="M518,116.52H500v9H518Z"/><path class="cls-1" d="M524.08,161.34H518v-6.13A6.13,6.13,0,0,0,524.08,161.34Z"/><path class="cls-1" d="M518,17.93H500V35.85H518Z"/><path class="cls-1" d="M518,0V17.93H500A17.93,17.93,0,0,1,518,0Z"/><path class="cls-1" d="M326.55,107.82h-2.41v8.91A17.91,17.91,0,0,1,326.55,107.82Z"/><path class="cls-1" d="M326.55,71.88a17.94,17.94,0,0,1-2.41-9v9Z"/><path class="cls-1" d="M342.13,89.85h-18v18h2.41a18,18,0,0,1,15.58-9Z"/><path class="cls-1" d="M342.13,89.85h18v18H357.7a18,18,0,0,0-15.57-9Z"/><path class="cls-1" d="M342.13,80.86v9h18v-18H357.7A18,18,0,0,1,342.13,80.86Z"/><path class="cls-1" d="M326.55,71.88h-2.41v18h18v-9A18,18,0,0,1,326.55,71.88Z"/><path class="cls-1" d="M306.16,27h18v9h-18Z"/><path class="cls-1" d="M342.13,0h18V18h-18Z"/><path class="cls-1" d="M360.11,71.88h18v18h-18Z"/><path class="cls-1" d="M306.16,125.79h18v18h-18Z"/><path class="cls-1" d="M306.16,125.79h18v18h-18Z"/><path class="cls-1" d="M306.16,143.75h18v18h-18Z"/><path class="cls-1" d="M306.16,161.72h18v18h-18Z"/><path class="cls-1" d="M306.16,107.82h18v18h-18Z"/><path class="cls-1" d="M306.16,89.85h18v18h-18Z"/><path class="cls-1" d="M306.16,89.85h18v18h-18Z"/><path class="cls-1" d="M306.16,107.82h18v18h-18Z"/><path class="cls-1" d="M306.16,53.91h18v18h-18Z"/><path class="cls-1" d="M360.11,53.91h18v18h-18Z"/><path class="cls-1" d="M306.16,71.88h18v18h-18Z"/><path class="cls-1" d="M360.11,98.83h18v18h-18Z"/><path class="cls-1" d="M360.11,125.79h18v18h-18Z"/><path class="cls-1" d="M360.11,89.85h18v18h-18Z"/><path class="cls-1" d="M360.11,89.85h18v18h-18Z"/><path class="cls-1" d="M360.11,53.91h18v18h-18Z"/><path class="cls-1" d="M360.11,107.82h18v18h-18Z"/><path class="cls-1" d="M324.14,0h18V18h-18Z"/><path class="cls-1" d="M360.11,35.94h18v18h-18Z"/><path class="cls-1" d="M306.16,35.94h18v18h-18Z"/><path class="cls-1" d="M360.11,71.88h18v18h-18Z"/><path class="cls-1" d="M306.16,71.88h18v9h-18Z"/><path class="cls-1" d="M360.11,125.79h18v18h-18Z"/><path class="cls-1" d="M360.11,143.75h18v18h-18Z"/><path class="cls-1" d="M378.1,35.94h-18V18h18Z"/><path class="cls-1" d="M306.16,35.94h18v18h-18Z"/><path class="cls-1" d="M306.16,53.91h18v18h-18Z"/><path class="cls-1" d="M306.16,71.88h18v18h-18Z"/><path class="cls-1" d="M360.11,35.94h18v18h-18Z"/><path class="cls-1" d="M306.16,18h18v18h-18Z"/><path class="cls-1" d="M306.16,18A18,18,0,0,1,324.32.17l-.18,18Z"/><path class="cls-1" d="M378.1,18a18,18,0,0,0-18-18V18Z"/><path class="cls-1" d="M342.14,89.85h18v-18A18,18,0,0,1,342.14,89.85Z"/><path class="cls-1" d="M342.12,89.85h-18v-18A18,18,0,0,0,342.12,89.85Z"/><path class="cls-1" d="M378.1,161.72h-18a18,18,0,0,1,18,18Z"/><path class="cls-1" d="M324.14,18h18a18,18,0,0,0-18,18h0Z"/><path class="cls-1" d="M360.11,18h-18a18,18,0,0,1,18,18Z"/><path class="cls-1" d="M357.7,107.82h2.41v9A17.87,17.87,0,0,0,357.7,107.82Z"/><path class="cls-1" d="M357.7,71.88a17.94,17.94,0,0,0,2.41-9v9Z"/><path class="cls-1" d="M840.07,144.06H858V162H840.07Z"/><path class="cls-1" d="M840.07,162H858v17.93H840.07Z"/><path class="cls-1" d="M911.78,144.06H893.85V162h17.93Z"/><path class="cls-1" d="M911.78,162H893.85v17.93A17.93,17.93,0,0,1,911.78,162Z"/><path class="cls-1" d="M840.07,36.5H858V54.42H840.07Z"/><path class="cls-1" d="M911.78,36.5H893.85V54.42h17.93Z"/><path class="cls-1" d="M840.07,126.13H858v17.93H840.07Z"/><path class="cls-1" d="M911.78,126.13H893.85v17.93h17.93Z"/><path class="cls-1" d="M840.07,54.42H858V72.35H840.07Z"/><path class="cls-1" d="M911.78,54.42H893.85V72.35h17.93Z"/><path class="cls-1" d="M840.07,108.2H858v17.93H840.07Z"/><path class="cls-1" d="M911.78,108.2H893.85v17.93h17.93Z"/><path class="cls-1" d="M840.07,90.28H858V108.2H840.07Z"/><path class="cls-1" d="M840.07,72.35H858V90.28H840.07Z"/><path class="cls-1" d="M840.07,18.57H858V36.5H840.07Z"/><path class="cls-1" d="M858,.65a17.93,17.93,0,1,0,0,35.85,17.93,17.93,0,1,1,35.85,0,17.93,17.93,0,1,0,0-35.85Z"/><path class="cls-1" d="M911.78,18.57H893.85V36.5h17.93Z"/><path class="cls-1" d="M860.4,72.35a17.91,17.91,0,0,0,15.52,9h0v9H858V72.35Z"/><path class="cls-1" d="M891.45,72.35a17.91,17.91,0,0,1-15.53,9v9h17.93V72.35Z"/><path class="cls-1" d="M860.4,108.2a17.93,17.93,0,0,1,15.52-9h0v-9H858V108.2Z"/><path class="cls-1" d="M891.45,108.2a17.93,17.93,0,0,0-15.53-9v-9h17.93V108.2Z"/><path class="cls-1" d="M893.85,54.42v9a17.81,17.81,0,0,1-2.4,9h2.4Z"/><path class="cls-1" d="M893.85,126.13v-9a17.82,17.82,0,0,0-2.4-9h2.4Z"/><path class="cls-1" d="M858,63.47a17.69,17.69,0,0,0,2.4,8.88H858Z"/><path class="cls-1" d="M858,117.08a17.74,17.74,0,0,1,2.4-8.88H858Z"/><path class="cls-1" d="M893.85,108.2h17.93a17.93,17.93,0,0,1-17.93-17.89Z"/><path class="cls-1" d="M911.74,72.35H893.85v17.9A17.93,17.93,0,0,1,911.74,72.35Z"/><path class="cls-1" d="M943,144.06h17.93V162H943Z"/><path class="cls-1" d="M943,162h17.93v17.93H943Z"/><path class="cls-1" d="M1014.69,144.06H996.76V162h17.93Z"/><path class="cls-1" d="M1014.69,162H996.76v17.93A17.93,17.93,0,0,1,1014.69,162Z"/><path class="cls-1" d="M943,36.5h17.93V54.42H943Z"/><path class="cls-1" d="M1014.69,36.5H996.76V54.42h17.93Z"/><path class="cls-1" d="M943,126.13h17.93v17.93H943Z"/><path class="cls-1" d="M1014.69,126.13H996.76v17.93h17.93Z"/><path class="cls-1" d="M943,54.42h17.93V72.35H943Z"/><path class="cls-1" d="M1014.69,54.42H996.76V72.35h17.93Z"/><path class="cls-1" d="M943,108.2h17.93v17.93H943Z"/><path class="cls-1" d="M1014.69,108.2H996.76v17.93h17.93Z"/><path class="cls-1" d="M943,90.28h17.93V108.2H943Z"/><path class="cls-1" d="M943,72.35h17.93V90.28H943Z"/><path class="cls-1" d="M943,18.57h17.93V36.5H943Z"/><path class="cls-1" d="M960.91.65a17.93,17.93,0,1,0,0,35.85,17.93,17.93,0,1,1,35.85,0,17.93,17.93,0,1,0,0-35.85Z"/><path class="cls-1" d="M1014.69,18.57H996.76V36.5h17.93Z"/><path class="cls-1" d="M963.31,72.35a17.91,17.91,0,0,0,15.53,9h0v9H960.91V72.35Z"/><path class="cls-1" d="M994.37,72.35a17.92,17.92,0,0,1-15.53,9v9h17.92V72.35Z"/><path class="cls-1" d="M963.31,108.2a17.93,17.93,0,0,1,15.53-9h0v-9H960.91V108.2Z"/><path class="cls-1" d="M994.37,108.2a17.94,17.94,0,0,0-15.53-9v-9h17.92V108.2Z"/><path class="cls-1" d="M996.76,54.42v9a17.9,17.9,0,0,1-2.39,9h2.39Z"/><path class="cls-1" d="M996.76,126.13v-9a17.91,17.91,0,0,0-2.39-9h2.39Z"/><path class="cls-1" d="M960.91,63.47a17.89,17.89,0,0,0,2.4,8.88h-2.4Z"/><path class="cls-1" d="M960.91,117.08a18,18,0,0,1,2.4-8.88h-2.4Z"/><path class="cls-1" d="M996.76,108.2h17.93a17.93,17.93,0,0,1-17.93-17.89Z"/><path class="cls-1" d="M1014.65,72.35H996.76v17.9A17.93,17.93,0,0,1,1014.65,72.35Z"/><path class="cls-1" d="M1072.79,90.28h17.92V108.2h-17.92Z"/><path class="cls-1" d="M1072.79,108.2h17.92v17.93h-17.92Z"/><path class="cls-1" d="M1099.68.65V18.57h17.92A17.92,17.92,0,0,0,1099.68.65Z"/><path class="cls-1" d="M1063.82,18.57H1045.9V72.35h.06a17.92,17.92,0,0,1,17.86,17.86v.07h35.86v-.1a17.93,17.93,0,0,1,17.87-17.83h0V36.5h-17.92V34.24a10.33,10.33,0,0,1-10.32,10.33H1088V65.63a6.72,6.72,0,1,1-13.44,0V44.57h-.44a10.34,10.34,0,0,1-10.32-10.23Z"/><path class="cls-1" d="M1117.6,18.57h-17.92V36.5h17.92Z"/><path class="cls-1" d="M1063.82,18.57V.65a17.92,17.92,0,0,0-17.92,17.92v0Z"/><path class="cls-1" d="M1072.79,144.06V126.13h17.92v17.93Z"/><path class="cls-1" d="M1072.79,144.06h17.92V162h-17.92Z"/><path class="cls-1" d="M1072.79,162h17.92v17.93h-17.92Z"/><path class="cls-1" d="M638.77,144.06h17.92V162H638.77Z"/><path class="cls-1" d="M638.77,36.5h17.92V54.42H638.77Z"/><path class="cls-1" d="M638.77,72.35h17.92V90.28H638.77Z"/><path class="cls-1" d="M638.77,126.13h17.92v17.93H638.77Z"/><path class="cls-1" d="M638.77,54.42h17.92V72.35H638.77Z"/><path class="cls-1" d="M638.77,108.2h17.92v17.93H638.77Z"/><path class="cls-1" d="M638.77,90.28h17.92V108.2H638.77Z"/><path class="cls-1" d="M692.54,144.06h17.93V162H692.54Z"/><path class="cls-1" d="M656.69,179.84V162H638.78A17.93,17.93,0,0,1,656.69,179.84Z"/><path class="cls-1" d="M710.47,162H692.54v17.93A17.93,17.93,0,0,1,710.47,162Z"/><path class="cls-1" d="M656.69,179.91v-9h35.85v9Z"/><path class="cls-1" d="M692.54,36.5h17.93V54.42H692.54Z"/><path class="cls-1" d="M692.54,126.13h17.93v17.93H692.54Z"/><path class="cls-1" d="M692.54,54.42h17.93V72.35H692.54Z"/><path class="cls-1" d="M692.54,108.2h17.93v17.93H692.54Z"/><path class="cls-1" d="M638.77,18.57h17.92V36.5H638.77Z"/><path class="cls-1" d="M692.54,18.57h17.93V36.5H692.54Z"/><path class="cls-1" d="M656.69.65a17.93,17.93,0,0,0,0,35.85,17.93,17.93,0,1,1,35.85,0,17.93,17.93,0,1,0,0-35.85Z"/><path class="cls-1" d="M659.09,153a17.81,17.81,0,0,1-2.4-9v9Z"/><path class="cls-1" d="M690.15,153a17.9,17.9,0,0,0,2.39-9v9Z"/><path class="cls-1" d="M674.62,162v9h17.92V153h-2.39A17.92,17.92,0,0,1,674.62,162Z"/><path class="cls-1" d="M659.09,153a17.91,17.91,0,0,0,15.53,9h0v9H656.69V153Z"/><path class="cls-1" d="M710.47,74.75v-2.4h-9A17.85,17.85,0,0,1,710.47,74.75Z"/><path class="cls-1" d="M701.5,72.35h-9v2.4A17.88,17.88,0,0,1,701.5,72.35Z"/><path class="cls-1" d="M710.47,105.81v2.39h-9A17.84,17.84,0,0,0,710.47,105.81Z"/><path class="cls-1" d="M701.5,108.2h-9v-2.39A17.88,17.88,0,0,0,701.5,108.2Z"/><path class="cls-1" d="M759.1,116a17.36,17.36,0,0,1,2.33-8.59H759.1Z"/><path class="cls-1" d="M761.43,72.59a17.39,17.39,0,0,1-2.33-8.71v8.71Z"/><path class="cls-1" d="M776.52,90H759.1v17.42h2.33a17.4,17.4,0,0,1,15.09-8.71Z"/><path class="cls-1" d="M776.52,90h17.42v17.42h-2.33a17.4,17.4,0,0,0-15.09-8.71h0Z"/><path class="cls-1" d="M776.52,81.3V90h17.42V72.59h-2.33A17.42,17.42,0,0,1,776.52,81.3Z"/><path class="cls-1" d="M761.43,72.59H759.1V90h17.42V81.3A17.42,17.42,0,0,1,761.43,72.59Z"/><path class="cls-1" d="M741.68,29H759.1v8.72H741.68Z"/><path class="cls-1" d="M776.52,2.9h17.42V20.32H776.52Z"/><path class="cls-1" d="M793.94,72.59h17.42V90H793.94Z"/><path class="cls-1" d="M741.68,124.85H759.1v17.42H741.68Z"/><path class="cls-1" d="M741.68,124.85H759.1v17.42H741.68Z"/><path class="cls-1" d="M741.68,142.27H759.1v17.42H741.68Z"/><path class="cls-1" d="M741.68,159.69H759.1v17.42H741.68Z"/><path class="cls-1" d="M741.68,107.43H759.1v17.42H741.68Z"/><path class="cls-1" d="M741.68,90H759.1v17.42H741.68Z"/><path class="cls-1" d="M741.68,90H759.1v17.42H741.68Z"/><path class="cls-1" d="M741.68,107.43H759.1v17.42H741.68Z"/><path class="cls-1" d="M741.68,55.17H759.1V72.59H741.68Z"/><path class="cls-1" d="M793.94,55.17h17.42V72.59H793.94Z"/><path class="cls-1" d="M741.68,72.59H759.1V90H741.68Z"/><path class="cls-1" d="M793.94,98.72h17.42v17.42H793.94Z"/><path class="cls-1" d="M793.94,124.85h17.42v17.42H793.94Z"/><path class="cls-1" d="M793.94,90h17.42v17.42H793.94Z"/><path class="cls-1" d="M793.94,90h17.42v17.42H793.94Z"/><path class="cls-1" d="M793.94,55.17h17.42V72.59H793.94Z"/><path class="cls-1" d="M793.94,107.43h17.42v17.42H793.94Z"/><path class="cls-1" d="M759.1,2.9h17.42V20.32H759.1Z"/><path class="cls-1" d="M793.94,37.75h17.42V55.17H793.94Z"/><path class="cls-1" d="M741.68,37.75H759.1V55.17H741.68Z"/><path class="cls-1" d="M793.94,72.59h17.42V90H793.94Z"/><path class="cls-1" d="M741.68,72.59H759.1V81.3H741.68Z"/><path class="cls-1" d="M793.94,124.85h17.42v17.42H793.94Z"/><path class="cls-1" d="M793.94,142.27h17.42v17.42H793.94Z"/><path class="cls-1" d="M811.36,37.75H793.94V20.32h17.42Z"/><path class="cls-1" d="M741.68,37.75H759.1V55.17H741.68Z"/><path class="cls-1" d="M741.68,55.17H759.1V72.59H741.68Z"/><path class="cls-1" d="M741.68,72.59H759.1V90H741.68Z"/><path class="cls-1" d="M793.94,37.75h17.42V55.17H793.94Z"/><path class="cls-1" d="M741.68,20.32H759.1V37.75H741.68Z"/><path class="cls-1" d="M741.68,20.32A17.42,17.42,0,0,1,759.27,3.07l-.17,17.42Z"/><path class="cls-1" d="M811.36,20.32A17.42,17.42,0,0,0,793.94,2.9V20.32Z"/><path class="cls-1" d="M776.52,90h17.42V72.59A17.42,17.42,0,0,1,776.52,90Z"/><path class="cls-1" d="M776.52,90H759.1V72.59A17.42,17.42,0,0,0,776.52,90Z"/><path class="cls-1" d="M811.36,177V159.69H793.94A17.43,17.43,0,0,1,811.36,177Z"/><path class="cls-1" d="M759.1,20.32h17.42A17.42,17.42,0,0,0,759.1,37.75Z"/><path class="cls-1" d="M793.94,20.32H776.52a17.42,17.42,0,0,1,17.42,17.4Z"/><path class="cls-1" d="M793.94,116.06a17.37,17.37,0,0,0-2.33-8.63h2.33Z"/><path class="cls-1" d="M791.61,72.59a17.39,17.39,0,0,0,2.33-8.71v8.71Z"/><path class="cls-1" d="M442,697.83H424.09v17.93H442Z"/><path class="cls-1" d="M424.09,563.39H406.16v17.92h17.93Z"/><path class="cls-1" d="M459.94,697.83H442v17.93h17.92Z"/><path class="cls-1" d="M406.16,697.83h17.93v17.93A17.93,17.93,0,0,0,406.16,697.83Z"/><path class="cls-1" d="M477.87,697.83H459.94v17.93A17.93,17.93,0,0,1,477.87,697.83Z"/><path class="cls-1" d="M424.09,581.31H406.16v17.93h17.93Z"/><path class="cls-1" d="M424.09,617.17H406.16v17.92h17.93Z"/><path class="cls-1" d="M424.09,679.91H406.16v17.92h17.93Z"/><path class="cls-1" d="M424.09,599.24H406.16v17.93h17.93Z"/><path class="cls-1" d="M424.09,662H406.16v17.93h17.93Z"/><path class="cls-1" d="M424.09,635.09H406.16V653h17.93Z"/><path class="cls-1" d="M424.09,653H406.16v9h17.93Z"/><path class="cls-1" d="M430.2,697.83h-6.11v-6.12A6.12,6.12,0,0,0,430.2,697.83Z"/><path class="cls-1" d="M424.09,554.43H406.16v17.92h17.93Z"/><path class="cls-1" d="M424.09,536.5v17.93H406.16A17.93,17.93,0,0,1,424.09,536.5Z"/><path class="cls-1" d="M203.89,679.91h17.93v17.92H203.89Z"/><path class="cls-1" d="M203.89,572.35h17.93v17.93H203.89Z"/><path class="cls-1" d="M203.89,608.2h17.93v17.93H203.89Z"/><path class="cls-1" d="M203.89,662h17.93v17.93H203.89Z"/><path class="cls-1" d="M203.89,590.28h17.93V608.2H203.89Z"/><path class="cls-1" d="M203.89,644.06h17.93V662H203.89Z"/><path class="cls-1" d="M203.89,626.13h17.93v17.93H203.89Z"/><path class="cls-1" d="M257.67,679.91h17.92v17.92H257.67Z"/><path class="cls-1" d="M221.81,715.63v-17.8H203.89A17.92,17.92,0,0,1,221.81,715.63Z"/><path class="cls-1" d="M275.59,697.83H257.67v17.93A17.92,17.92,0,0,1,275.59,697.83Z"/><path class="cls-1" d="M221.82,715.76v-9h35.85v9Z"/><path class="cls-1" d="M257.67,572.35h17.92v17.93H257.67Z"/><path class="cls-1" d="M257.67,662h17.92v17.93H257.67Z"/><path class="cls-1" d="M257.67,590.28h17.92V608.2H257.67Z"/><path class="cls-1" d="M257.67,608.2h17.92v17.93H257.67Z"/><path class="cls-1" d="M257.67,626.13h17.92v17.93H257.67Z"/><path class="cls-1" d="M257.67,644.06h17.92V662H257.67Z"/><path class="cls-1" d="M203.89,554.43h17.93v17.92H203.89Z"/><path class="cls-1" d="M257.67,554.43h17.92v17.92H257.67Z"/><path class="cls-1" d="M221.82,536.5a17.93,17.93,0,1,0,0,35.85,17.93,17.93,0,0,1,35.85,0,17.93,17.93,0,0,0,0-35.85Z"/><path class="cls-1" d="M224.21,688.87a17.85,17.85,0,0,1-2.39-9v9Z"/><path class="cls-1" d="M255.27,688.87a17.75,17.75,0,0,0,2.4-9v9Z"/><path class="cls-1" d="M239.74,697.83h0a17.91,17.91,0,0,0,15.53-9h2.4V706.8H239.74Z"/><path class="cls-1" d="M224.21,688.87a17.92,17.92,0,0,0,15.53,9h0v9H221.82V688.87Z"/><path class="cls-1" d="M21.94,608.2a17.92,17.92,0,0,0,15.53,9h0v9H19.54V608.2Z"/><path class="cls-1" d="M53,608.2h2.4v17.93H37.47v-9A17.92,17.92,0,0,0,53,608.2Z"/><path class="cls-1" d="M1.61,679.91H19.54v17.92H1.61Z"/><path class="cls-1" d="M1.61,572.35H19.54v17.93H1.61Z"/><path class="cls-1" d="M1.61,608.2H19.54v17.93H1.61Z"/><path class="cls-1" d="M1.61,662H19.54v17.93H1.61Z"/><path class="cls-1" d="M1.61,590.28H19.54V608.2H1.61Z"/><path class="cls-1" d="M1.61,644.06H19.54V662H1.61Z"/><path class="cls-1" d="M1.61,626.13H19.54v17.93H1.61Z"/><path class="cls-1" d="M55.39,572.35H73.32v17.93H55.39Z"/><path class="cls-1" d="M55.39,590.28H73.32V608.2H55.39Z"/><path class="cls-1" d="M1.61,697.83H19.54v17.93A17.93,17.93,0,0,0,1.61,697.83Z"/><path class="cls-1" d="M1.61,554.43H19.54v17.92H1.61Z"/><path class="cls-1" d="M55.39,554.43H73.32v17.92H55.39Z"/><path class="cls-1" d="M19.54,632.26v-6.13h6.12A6.13,6.13,0,0,0,19.54,632.26Z"/><path class="cls-1" d="M73.32,572.35H55.39v17.93A17.93,17.93,0,0,1,73.32,572.35Z"/><path class="cls-1" d="M55.39,590.28v9a17.75,17.75,0,0,1-2.4,9h2.4Z"/><path class="cls-1" d="M19.54,599.34a17.85,17.85,0,0,0,2.4,8.86h-2.4Z"/><path class="cls-1" d="M18.64,644a18,18,0,0,1,2.4-8.95h-2.4Z"/><path class="cls-1" d="M73.32,608.2H55.39v17.93h0a17.92,17.92,0,0,0,17.9-17.9v0Z"/><path class="cls-1" d="M19.54,536.5a17.93,17.93,0,1,0,0,35.85,17.93,17.93,0,0,1,35.85,0,17.93,17.93,0,1,0,0-35.85Z"/><path class="cls-1" d="M21.94,635.09a17.93,17.93,0,0,1,15.53-9h0v-9H19.54v17.92Z"/><path class="cls-1" d="M326.16,608.2a17.92,17.92,0,0,0,15.52,9h0v9H323.76V608.2Z"/><path class="cls-1" d="M357.21,608.2h2.4v17.93H341.68v-9A17.92,17.92,0,0,0,357.21,608.2Z"/><path class="cls-1" d="M305.83,679.91h17.93v17.92H305.83Z"/><path class="cls-1" d="M305.83,572.35h17.93v17.93H305.83Z"/><path class="cls-1" d="M305.83,608.2h17.93v17.93H305.83Z"/><path class="cls-1" d="M305.83,662h17.93v17.93H305.83Z"/><path class="cls-1" d="M305.83,590.28h17.93V608.2H305.83Z"/><path class="cls-1" d="M305.83,644.06h17.93V662H305.83Z"/><path class="cls-1" d="M305.83,626.13h17.93v17.93H305.83Z"/><path class="cls-1" d="M359.61,572.35h17.93v17.93H359.61Z"/><path class="cls-1" d="M359.61,590.28h17.93V608.2H359.61Z"/><path class="cls-1" d="M305.83,697.83h17.93v17.93A17.93,17.93,0,0,0,305.83,697.83Z"/><path class="cls-1" d="M305.83,554.43h17.93v17.92H305.83Z"/><path class="cls-1" d="M359.61,554.43h17.93v17.92H359.61Z"/><path class="cls-1" d="M323.76,632.26v-6.13h6.12A6.13,6.13,0,0,0,323.76,632.26Z"/><path class="cls-1" d="M377.54,572.35H359.61v17.93A17.93,17.93,0,0,1,377.54,572.35Z"/><path class="cls-1" d="M359.61,590.28v9a17.75,17.75,0,0,1-2.4,9h2.4Z"/><path class="cls-1" d="M323.76,599.34a17.85,17.85,0,0,0,2.4,8.86h-2.4Z"/><path class="cls-1" d="M322.86,644a18,18,0,0,1,2.4-8.95h-2.4Z"/><path class="cls-1" d="M377.54,608.2H359.61v17.93h0a17.92,17.92,0,0,0,17.9-17.9"/><path class="cls-1" d="M323.76,536.5a17.93,17.93,0,1,0,0,35.85,17.93,17.93,0,0,1,35.85,0,17.93,17.93,0,1,0,0-35.85Z"/><path class="cls-1" d="M326.16,635.09a17.93,17.93,0,0,1,15.52-9h0v-9H323.76v17.92Z"/><path class="cls-1" d="M123.56,608.2a17.92,17.92,0,0,0,15.53,9h0v9H121.16V608.2Z"/><path class="cls-1" d="M154.62,608.2a17.93,17.93,0,0,1-15.53,9h0v9H157V608.2Z"/><path class="cls-1" d="M103.23,679.91h17.93v17.92H103.23Z"/><path class="cls-1" d="M103.23,572.35h17.93v17.93H103.23Z"/><path class="cls-1" d="M103.23,608.2h17.93v17.93H103.23Z"/><path class="cls-1" d="M103.23,662h17.93v17.93H103.23Z"/><path class="cls-1" d="M103.23,590.28h17.93V608.2H103.23Z"/><path class="cls-1" d="M103.23,644.06h17.93V662H103.23Z"/><path class="cls-1" d="M103.23,626.13h17.93v17.93H103.23Z"/><path class="cls-1" d="M123.56,644.06a17.92,17.92,0,0,1,15.53-9h0v-9H121.16v17.93Z"/><path class="cls-1" d="M154.62,644.06a17.93,17.93,0,0,0-15.53-9h0v-9H157v17.93Z"/><path class="cls-1" d="M121.16,697.83h17.93v17.93H121.16Z"/><path class="cls-1" d="M139.09,697.83H157v17.93H139.09Z"/><path class="cls-1" d="M157,679.91h17.93v17.92H157Z"/><path class="cls-1" d="M174.94,697.83H157v17.93A17.93,17.93,0,0,1,174.94,697.83Z"/><path class="cls-1" d="M103.23,697.83h17.93v17.93A17.93,17.93,0,0,0,103.23,697.83Z"/><path class="cls-1" d="M157,662h17.93v17.93H157Z"/><path class="cls-1" d="M103.23,554.43h17.93v17.92H103.23Z"/><path class="cls-1" d="M157,554.43h17.93v17.92H157Z"/><path class="cls-1" d="M121.16,691.71v6.12h6.13A6.13,6.13,0,0,1,121.16,691.71Z"/><path class="cls-1" d="M157,691.71v6.12h-6.12A6.12,6.12,0,0,0,157,691.71Z"/><path class="cls-1" d="M174.94,572.35H157v17.93A17.93,17.93,0,0,1,174.94,572.35Z"/><path class="cls-1" d="M157,599.3a17.88,17.88,0,0,1-2.39,8.9H157Z"/><path class="cls-1" d="M157,653a17.89,17.89,0,0,0-2.39-8.91H157Z"/><path class="cls-1" d="M121.16,599.31a17.75,17.75,0,0,0,2.4,8.89h-2.4Z"/><path class="cls-1" d="M121.16,653a17.75,17.75,0,0,1,2.4-8.89h-2.4Z"/><path class="cls-1" d="M121.16,536.5a17.93,17.93,0,1,0,0,35.85,17.93,17.93,0,0,1,35.85,0,17.93,17.93,0,1,0,0-35.85Z"/><path class="cls-1" d="M513.59,608.2a17.93,17.93,0,0,0,15.53,9h0v9H511.2V608.2Z"/><path class="cls-1" d="M544.65,608.2a17.92,17.92,0,0,1-15.53,9h0v9h17.93V608.2Z"/><path class="cls-1" d="M493.27,679.91H511.2v17.92H493.27Z"/><path class="cls-1" d="M493.27,572.35H511.2v17.93H493.27Z"/><path class="cls-1" d="M493.27,608.2H511.2v17.93H493.27Z"/><path class="cls-1" d="M493.27,662H511.2v17.93H493.27Z"/><path class="cls-1" d="M493.27,590.28H511.2V608.2H493.27Z"/><path class="cls-1" d="M493.27,644.06H511.2V662H493.27Z"/><path class="cls-1" d="M493.27,626.13H511.2v17.93H493.27Z"/><path class="cls-1" d="M513.59,644.06a17.93,17.93,0,0,1,15.53-9h0v-9H511.2v17.93Z"/><path class="cls-1" d="M544.65,644.06a17.92,17.92,0,0,0-15.53-9h0v-9h17.93v17.93Z"/><path class="cls-1" d="M511.2,697.83h17.92v17.93H511.2Z"/><path class="cls-1" d="M529.12,697.83h17.93v17.93H529.12Z"/><path class="cls-1" d="M547.05,679.91H565v17.92H547.05Z"/><path class="cls-1" d="M565,697.83H547.05v17.93A17.92,17.92,0,0,1,565,697.83Z"/><path class="cls-1" d="M493.27,697.83H511.2v17.93A17.93,17.93,0,0,0,493.27,697.83Z"/><path class="cls-1" d="M547.05,662H565v17.93H547.05Z"/><path class="cls-1" d="M493.27,554.43H511.2v17.92H493.27Z"/><path class="cls-1" d="M547.05,554.43H565v17.92H547.05Z"/><path class="cls-1" d="M511.2,691.71v6.12h6.13A6.12,6.12,0,0,1,511.2,691.71Z"/><path class="cls-1" d="M547.05,691.71v6.12h-6.13A6.12,6.12,0,0,0,547.05,691.71Z"/><path class="cls-1" d="M565,572.35H547.05v17.93A17.92,17.92,0,0,1,565,572.35Z"/><path class="cls-1" d="M547.05,599.3a17.79,17.79,0,0,1-2.4,8.9h2.4Z"/><path class="cls-1" d="M547.05,653a17.8,17.8,0,0,0-2.4-8.91h2.4Z"/><path class="cls-1" d="M511.2,599.31a17.85,17.85,0,0,0,2.39,8.89H511.2Z"/><path class="cls-1" d="M511.2,653a17.85,17.85,0,0,1,2.39-8.89H511.2Z"/><path class="cls-1" d="M511.2,536.5a17.93,17.93,0,1,0,0,35.85,17.93,17.93,0,0,1,35.85,0,17.93,17.93,0,0,0,0-35.85Z"/><path class="cls-1" d="M936.86,951.87h17.92v17.92H936.86Z"/><path class="cls-1" d="M936.86,969.79h17.92v17.93H936.86Z"/><path class="cls-1" d="M1008.56,951.87H990.63v17.92h17.93Z"/><path class="cls-1" d="M1008.56,969.79H990.63v17.93A17.93,17.93,0,0,1,1008.56,969.79Z"/><path class="cls-1" d="M936.86,844.31h17.92v17.93H936.86Z"/><path class="cls-1" d="M1008.56,844.31H990.63v17.93h17.93Z"/><path class="cls-1" d="M936.86,933.94h17.92v17.93H936.86Z"/><path class="cls-1" d="M1008.56,933.94H990.63v17.93h17.93Z"/><path class="cls-1" d="M936.86,862.24h17.92v17.92H936.86Z"/><path class="cls-1" d="M1008.56,862.24H990.63v17.92h17.93Z"/><path class="cls-1" d="M936.86,916h17.92v17.93H936.86Z"/><path class="cls-1" d="M1008.56,916H990.63v17.93h17.93Z"/><path class="cls-1" d="M936.86,898.09h17.92V916H936.86Z"/><path class="cls-1" d="M936.86,880.16h17.92v17.93H936.86Z"/><path class="cls-1" d="M936.86,826.38h17.92v17.93H936.86Z"/><path class="cls-1" d="M954.78,808.46a17.93,17.93,0,0,0,0,35.85,17.93,17.93,0,1,1,35.85,0,17.93,17.93,0,1,0,0-35.85Z"/><path class="cls-1" d="M1008.56,826.38H990.63v17.93h17.93Z"/><path class="cls-1" d="M957.18,880.16a17.92,17.92,0,0,0,15.53,9h0v9H954.78V880.16Z"/><path class="cls-1" d="M988.24,880.16a17.93,17.93,0,0,1-15.53,9v9h17.92V880.16Z"/><path class="cls-1" d="M957.18,916a17.93,17.93,0,0,1,15.53-9h0v-9H954.78V916Z"/><path class="cls-1" d="M988.24,916a17.94,17.94,0,0,0-15.53-9v-9h17.92V916Z"/><path class="cls-1" d="M990.63,862.24v9a17.85,17.85,0,0,1-2.39,9h2.39Z"/><path class="cls-1" d="M990.63,933.94v-9a17.94,17.94,0,0,0-2.39-9h2.39Z"/><path class="cls-1" d="M954.78,871.29a17.88,17.88,0,0,0,2.4,8.87h-2.4Z"/><path class="cls-1" d="M954.78,924.9a18,18,0,0,1,2.4-8.89h-2.4Z"/><path class="cls-1" d="M990.63,916h17.93a17.93,17.93,0,0,1-17.93-17.89Z"/><path class="cls-1" d="M1008.52,880.16H990.63v17.9A17.94,17.94,0,0,1,1008.52,880.16Z"/><path class="cls-1" d="M840.4,951.87h17.92v17.92H840.4Z"/><path class="cls-1" d="M840.4,844.31h17.92v17.93H840.4Z"/><path class="cls-1" d="M840.4,880.16h17.92v17.93H840.4Z"/><path class="cls-1" d="M840.4,933.94h17.92v17.93H840.4Z"/><path class="cls-1" d="M840.4,862.24h17.92v17.92H840.4Z"/><path class="cls-1" d="M840.4,916h17.92v17.93H840.4Z"/><path class="cls-1" d="M840.4,898.09h17.92V916H840.4Z"/><path class="cls-1" d="M894.17,951.87H912.1v17.92H894.17Z"/><path class="cls-1" d="M858.32,987.59v-17.8H840.4A17.93,17.93,0,0,1,858.32,987.59Z"/><path class="cls-1" d="M912.1,969.79H894.17v17.93A17.93,17.93,0,0,1,912.1,969.79Z"/><path class="cls-1" d="M858.32,987.72v-9h35.85v9Z"/><path class="cls-1" d="M894.17,844.31H912.1v17.93H894.17Z"/><path class="cls-1" d="M894.17,933.94H912.1v17.93H894.17Z"/><path class="cls-1" d="M894.17,862.24H912.1v17.92H894.17Z"/><path class="cls-1" d="M894.17,880.16H912.1v17.93H894.17Z"/><path class="cls-1" d="M894.17,898.09H912.1V916H894.17Z"/><path class="cls-1" d="M894.17,916H912.1v17.93H894.17Z"/><path class="cls-1" d="M840.4,826.38h17.92v17.93H840.4Z"/><path class="cls-1" d="M894.17,826.38H912.1v17.93H894.17Z"/><path class="cls-1" d="M858.32,808.46a17.93,17.93,0,0,0,0,35.85,17.93,17.93,0,1,1,35.85,0,17.93,17.93,0,1,0,0-35.85Z"/><path class="cls-1" d="M860.72,960.83a17.78,17.78,0,0,1-2.4-9v9Z"/><path class="cls-1" d="M891.78,960.83a17.88,17.88,0,0,0,2.39-9v9Z"/><path class="cls-1" d="M876.25,969.79h0a17.92,17.92,0,0,0,15.53-9h2.39v17.93H876.25Z"/><path class="cls-1" d="M860.72,960.83a17.91,17.91,0,0,0,15.53,9h0v9H858.32V960.83Z"/><path class="cls-1" d="M551,950.58h17.92V968.5H551Z"/><path class="cls-1" d="M551,843h17.92V861H551Z"/><path class="cls-1" d="M551,878.87h17.92V896.8H551Z"/><path class="cls-1" d="M551,932.65h17.92v17.93H551Z"/><path class="cls-1" d="M551,861h17.92v17.92H551Z"/><path class="cls-1" d="M551,914.72h17.92v17.93H551Z"/><path class="cls-1" d="M551,896.8h17.92v17.92H551Z"/><path class="cls-1" d="M604.79,950.58h17.93V968.5H604.79Z"/><path class="cls-1" d="M568.94,986.36V968.5H551A17.93,17.93,0,0,1,568.94,986.36Z"/><path class="cls-1" d="M622.72,968.5H604.79v17.93A17.93,17.93,0,0,1,622.72,968.5Z"/><path class="cls-1" d="M568.94,986.43v-9h35.85v9Z"/><path class="cls-1" d="M604.79,843h17.93V861H604.79Z"/><path class="cls-1" d="M604.79,878.87h17.93V896.8H604.79Z"/><path class="cls-1" d="M604.79,932.65h17.93v17.93H604.79Z"/><path class="cls-1" d="M604.79,861h17.93v17.92H604.79Z"/><path class="cls-1" d="M604.79,914.72h17.93v17.93H604.79Z"/><path class="cls-1" d="M604.79,896.8h17.93v17.92H604.79Z"/><path class="cls-1" d="M551,825.09h17.92V843H551Z"/><path class="cls-1" d="M604.79,825.09h17.93V843H604.79Z"/><path class="cls-1" d="M568.94,807.17a17.93,17.93,0,0,0,0,35.85,17.93,17.93,0,1,1,35.85,0,17.93,17.93,0,1,0,0-35.85Z"/><path class="cls-1" d="M571.34,878.87a17.75,17.75,0,0,1-2.4-9v9Z"/><path class="cls-1" d="M602.4,878.87a17.85,17.85,0,0,0,2.39-9v9Z"/><path class="cls-1" d="M586.87,887.83h0a17.92,17.92,0,0,0,15.53-9h2.39V896.8H586.87Z"/><path class="cls-1" d="M571.34,878.87a17.91,17.91,0,0,0,15.53,9h0v9H568.94V878.87Z"/><path class="cls-1" d="M571.34,914.72a17.82,17.82,0,0,0-2.4,9v-9Z"/><path class="cls-1" d="M571.34,959.54a17.78,17.78,0,0,1-2.4-9v9Z"/><path class="cls-1" d="M602.4,914.72a17.91,17.91,0,0,1,2.39,9v-9Z"/><path class="cls-1" d="M602.4,959.54a17.88,17.88,0,0,0,2.39-9v9Z"/><path class="cls-1" d="M586.87,905.76h0a17.94,17.94,0,0,1,15.53,9h2.39V896.8H586.87Z"/><path class="cls-1" d="M586.87,968.5h0a17.92,17.92,0,0,0,15.53-9h2.39v17.93H586.87Z"/><path class="cls-1" d="M571.34,914.72a17.93,17.93,0,0,1,15.53-9h0v-9H568.94v17.92Z"/><path class="cls-1" d="M571.34,959.54a17.91,17.91,0,0,0,15.53,9h0v9H568.94V959.54Z"/><path class="cls-1" d="M667.8,883.07a17.91,17.91,0,0,0,15.53,9h0v9H665.4V883.07Z"/><path class="cls-1" d="M698.86,883.07a17.92,17.92,0,0,1-15.53,9h0v9h17.92V883.07Z"/><path class="cls-1" d="M647.48,954.77H665.4V972.7H647.48Z"/><path class="cls-1" d="M647.48,847.21H665.4v17.93H647.48Z"/><path class="cls-1" d="M647.48,883.07H665.4V901H647.48Z"/><path class="cls-1" d="M647.48,936.85H665.4v17.92H647.48Z"/><path class="cls-1" d="M647.48,865.14H665.4v17.93H647.48Z"/><path class="cls-1" d="M647.48,918.92H665.4v17.93H647.48Z"/><path class="cls-1" d="M647.48,901H665.4v17.93H647.48Z"/><path class="cls-1" d="M667.8,918.92a17.91,17.91,0,0,1,15.53-9h0v-9H665.4v17.93Z"/><path class="cls-1" d="M698.86,918.92a17.92,17.92,0,0,0-15.53-9h0v-9h17.92v17.93Z"/><path class="cls-1" d="M665.4,972.7h17.93v17.92H665.4Z"/><path class="cls-1" d="M683.33,972.7h17.92v17.92H683.33Z"/><path class="cls-1" d="M701.25,954.77h17.93V972.7H701.25Z"/><path class="cls-1" d="M719.18,972.7H701.25v17.92A17.92,17.92,0,0,1,719.18,972.7Z"/><path class="cls-1" d="M647.48,972.7H665.4v17.92A17.92,17.92,0,0,0,647.48,972.7Z"/><path class="cls-1" d="M701.25,936.85h17.93v17.92H701.25Z"/><path class="cls-1" d="M647.48,829.29H665.4v17.92H647.48Z"/><path class="cls-1" d="M701.25,829.29h17.93v17.92H701.25Z"/><path class="cls-1" d="M665.4,966.57v6.13h6.13A6.12,6.12,0,0,1,665.4,966.57Z"/><path class="cls-1" d="M701.25,966.57v6.13h-6.13A6.12,6.12,0,0,0,701.25,966.57Z"/><path class="cls-1" d="M719.18,847.21H701.25v17.93A17.93,17.93,0,0,1,719.18,847.21Z"/><path class="cls-1" d="M701.25,874.16a18,18,0,0,1-2.39,8.91h2.39Z"/><path class="cls-1" d="M701.25,927.83a17.89,17.89,0,0,0-2.39-8.91h2.39Z"/><path class="cls-1" d="M665.4,874.17a17.89,17.89,0,0,0,2.4,8.9h-2.4Z"/><path class="cls-1" d="M665.4,927.82a17.89,17.89,0,0,1,2.4-8.9h-2.4Z"/><path class="cls-1" d="M665.4,811.36a17.93,17.93,0,0,0,0,35.85,17.93,17.93,0,0,1,35.85,0,17.93,17.93,0,1,0,0-35.85Z"/><path class="cls-1" d="M1053.64,882.74a17.92,17.92,0,0,0,15.53,9h0v9h-17.93V882.74Z"/><path class="cls-1" d="M1084.7,882.74a17.93,17.93,0,0,1-15.53,9h0v9h17.92V882.74Z"/><path class="cls-1" d="M1033.32,954.45h17.92v17.92h-17.92Z"/><path class="cls-1" d="M1033.32,846.89h17.92v17.93h-17.92Z"/><path class="cls-1" d="M1033.32,882.74h17.92v17.93h-17.92Z"/><path class="cls-1" d="M1033.32,936.52h17.92v17.93h-17.92Z"/><path class="cls-1" d="M1033.32,864.82h17.92v17.92h-17.92Z"/><path class="cls-1" d="M1033.32,918.6h17.92v17.92h-17.92Z"/><path class="cls-1" d="M1033.32,900.67h17.92V918.6h-17.92Z"/><path class="cls-1" d="M1053.64,918.6a17.92,17.92,0,0,1,15.53-9h0v-9h-17.93V918.6Z"/><path class="cls-1" d="M1084.7,918.6a17.93,17.93,0,0,0-15.53-9h0v-9h17.92V918.6Z"/><path class="cls-1" d="M1051.24,972.37h17.93V990.3h-17.93Z"/><path class="cls-1" d="M1069.17,972.37h17.92V990.3h-17.92Z"/><path class="cls-1" d="M1087.09,954.45H1105v17.92h-17.93Z"/><path class="cls-1" d="M1105,972.37h-17.93V990.3A17.93,17.93,0,0,1,1105,972.37Z"/><path class="cls-1" d="M1033.32,972.37h17.92V990.3A17.92,17.92,0,0,0,1033.32,972.37Z"/><path class="cls-1" d="M1087.09,936.52H1105v17.93h-17.93Z"/><path class="cls-1" d="M1033.32,829h17.92v17.92h-17.92Z"/><path class="cls-1" d="M1087.09,829H1105v17.92h-17.93Z"/><path class="cls-1" d="M1051.24,966.25v6.12h6.13A6.12,6.12,0,0,1,1051.24,966.25Z"/><path class="cls-1" d="M1087.09,966.25v6.12H1081A6.12,6.12,0,0,0,1087.09,966.25Z"/><path class="cls-1" d="M1105,846.89h-17.93v17.93A17.93,17.93,0,0,1,1105,846.89Z"/><path class="cls-1" d="M1087.09,873.84a17.88,17.88,0,0,1-2.39,8.9h2.39Z"/><path class="cls-1" d="M1087.09,927.51a17.89,17.89,0,0,0-2.39-8.91h2.39Z"/><path class="cls-1" d="M1051.24,873.85a17.86,17.86,0,0,0,2.4,8.89h-2.4Z"/><path class="cls-1" d="M1051.24,927.49a17.86,17.86,0,0,1,2.4-8.89h-2.4Z"/><path class="cls-1" d="M1051.24,811a17.93,17.93,0,0,0,0,35.85,17.93,17.93,0,0,1,35.85,0,17.93,17.93,0,1,0,0-35.85Z"/><path class="cls-1" d="M764.26,882.74a17.92,17.92,0,0,0,15.53,9h0v9H761.86V882.74Z"/><path class="cls-1" d="M795.32,882.74a17.93,17.93,0,0,1-15.53,9h0v9h17.92V882.74Z"/><path class="cls-1" d="M743.94,954.45h17.92v17.92H743.94Z"/><path class="cls-1" d="M743.94,846.89h17.92v17.93H743.94Z"/><path class="cls-1" d="M743.94,882.74h17.92v17.93H743.94Z"/><path class="cls-1" d="M743.94,936.52h17.92v17.93H743.94Z"/><path class="cls-1" d="M743.94,864.82h17.92v17.92H743.94Z"/><path class="cls-1" d="M743.94,918.6h17.92v17.92H743.94Z"/><path class="cls-1" d="M743.94,900.67h17.92V918.6H743.94Z"/><path class="cls-1" d="M764.26,918.6a17.92,17.92,0,0,1,15.53-9h0v-9H761.86V918.6Z"/><path class="cls-1" d="M795.32,918.6a17.93,17.93,0,0,0-15.53-9h0v-9h17.92V918.6Z"/><path class="cls-1" d="M743.94,972.37h35.85V990.3H743.94Z"/><path class="cls-1" d="M743.94,972.37h17.92V990.3A17.92,17.92,0,0,0,743.94,972.37Z"/><path class="cls-1" d="M743.94,829h17.92v17.92H743.94Z"/><path class="cls-1" d="M797.71,829h17.93v17.92H797.71Z"/><path class="cls-1" d="M761.86,966.25v6.12H768A6.12,6.12,0,0,1,761.86,966.25Z"/><path class="cls-1" d="M815.64,846.89H797.71v17.93A17.93,17.93,0,0,1,815.64,846.89Z"/><path class="cls-1" d="M797.71,873.85a17.82,17.82,0,0,1-2.39,8.89h2.39Z"/><path class="cls-1" d="M797.71,927.49a17.82,17.82,0,0,0-2.39-8.89h2.39Z"/><path class="cls-1" d="M761.86,873.82a17.84,17.84,0,0,0,2.4,8.92h-2.4Z"/><path class="cls-1" d="M761.86,927.52a17.84,17.84,0,0,1,2.4-8.92h-2.4Z"/><path class="cls-1" d="M761.86,811a17.93,17.93,0,0,0,0,35.85,17.93,17.93,0,0,1,35.85,0,17.93,17.93,0,1,0,0-35.85Z"/><path class="cls-1" d="M1.94,954.77H19.86V972.7H1.94Z"/><path class="cls-1" d="M1.94,847.21H19.86v17.93H1.94Z"/><path class="cls-1" d="M1.94,883.07H19.86V901H1.94Z"/><path class="cls-1" d="M1.94,936.85H19.86v17.92H1.94Z"/><path class="cls-1" d="M1.94,865.14H19.86v17.93H1.94Z"/><path class="cls-1" d="M1.94,918.92H19.86v17.93H1.94Z"/><path class="cls-1" d="M1.94,901H19.86v17.93H1.94Z"/><path class="cls-1" d="M55.71,954.77H73.64V972.7H55.71Z"/><path class="cls-1" d="M19.86,990.55V972.7H2A17.92,17.92,0,0,1,19.86,990.55Z"/><path class="cls-1" d="M73.64,972.7H55.71v17.92A17.92,17.92,0,0,1,73.64,972.7Z"/><path class="cls-1" d="M19.86,990.62v-9H55.71v9Z"/><path class="cls-1" d="M55.71,847.21H73.64v17.93H55.71Z"/><path class="cls-1" d="M55.71,936.85H73.64v17.92H55.71Z"/><path class="cls-1" d="M55.71,865.14H73.64v17.93H55.71Z"/><path class="cls-1" d="M55.71,918.92H73.64v17.93H55.71Z"/><path class="cls-1" d="M1.94,829.29H19.86v17.92H1.94Z"/><path class="cls-1" d="M55.71,829.29H73.64v17.92H55.71Z"/><path class="cls-1" d="M19.86,811.36a17.93,17.93,0,0,0,0,35.85,17.93,17.93,0,0,1,35.85,0,17.93,17.93,0,1,0,0-35.85Z"/><path class="cls-1" d="M22.26,963.74a17.82,17.82,0,0,1-2.4-9v9Z"/><path class="cls-1" d="M53.32,963.74a17.91,17.91,0,0,0,2.39-9v9Z"/><path class="cls-1" d="M37.79,972.7v9H55.71V963.74H53.32A17.94,17.94,0,0,1,37.79,972.7Z"/><path class="cls-1" d="M22.26,963.74a17.93,17.93,0,0,0,15.53,9h0v9H19.86V963.74Z"/><path class="cls-1" d="M73.64,885.46v-2.39h-9A17.84,17.84,0,0,1,73.64,885.46Z"/><path class="cls-1" d="M64.67,883.07h-9v2.39A17.9,17.9,0,0,1,64.67,883.07Z"/><path class="cls-1" d="M73.64,916.52v2.4h-9A17.85,17.85,0,0,0,73.64,916.52Z"/><path class="cls-1" d="M64.67,918.92h-9v-2.4A17.91,17.91,0,0,0,64.67,918.92Z"/><path class="cls-1" d="M123.56,929.64a17.36,17.36,0,0,1,2.33-8.59h-2.33Z"/><path class="cls-1" d="M125.89,886.21a17.39,17.39,0,0,1-2.33-8.71v8.71Z"/><path class="cls-1" d="M141,903.63H123.56v17.42h2.33A17.4,17.4,0,0,1,141,912.34Z"/><path class="cls-1" d="M141,903.63H158.4v17.42h-2.33A17.4,17.4,0,0,0,141,912.34h0Z"/><path class="cls-1" d="M141,894.92v8.71H158.4V886.21h-2.33A17.42,17.42,0,0,1,141,894.92Z"/><path class="cls-1" d="M125.89,886.21h-2.33v17.42H141v-8.71A17.42,17.42,0,0,1,125.89,886.21Z"/><path class="cls-1" d="M106.14,842.65h17.42v8.71H106.14Z"/><path class="cls-1" d="M141,816.52H158.4v17.42H141Z"/><path class="cls-1" d="M158.4,886.21h17.42v17.42H158.4Z"/><path class="cls-1" d="M106.14,938.47h17.42v17.42H106.14Z"/><path class="cls-1" d="M106.14,938.47h17.42v17.42H106.14Z"/><path class="cls-1" d="M106.14,955.89h17.42v17.42H106.14Z"/><path class="cls-1" d="M106.14,973.31h17.42v17.42H106.14Z"/><path class="cls-1" d="M106.14,921.05h17.42v17.42H106.14Z"/><path class="cls-1" d="M106.14,903.63h17.42v17.42H106.14Z"/><path class="cls-1" d="M106.14,903.63h17.42v17.42H106.14Z"/><path class="cls-1" d="M106.14,921.05h17.42v17.42H106.14Z"/><path class="cls-1" d="M106.14,868.78h17.42v17.43H106.14Z"/><path class="cls-1" d="M158.4,868.78h17.42v17.43H158.4Z"/><path class="cls-1" d="M106.14,886.21h17.42v17.42H106.14Z"/><path class="cls-1" d="M158.4,912.34h17.42v17.42H158.4Z"/><path class="cls-1" d="M158.4,938.47h17.42v17.42H158.4Z"/><path class="cls-1" d="M158.4,903.63h17.42v17.42H158.4Z"/><path class="cls-1" d="M158.4,903.63h17.42v17.42H158.4Z"/><path class="cls-1" d="M158.4,868.78h17.42v17.43H158.4Z"/><path class="cls-1" d="M158.4,921.05h17.42v17.42H158.4Z"/><path class="cls-1" d="M123.56,816.52H141v17.42H123.56Z"/><path class="cls-1" d="M158.4,851.36h17.42v17.42H158.4Z"/><path class="cls-1" d="M106.14,851.36h17.42v17.42H106.14Z"/><path class="cls-1" d="M158.4,886.21h17.42v17.42H158.4Z"/><path class="cls-1" d="M106.14,886.21h17.42v8.71H106.14Z"/><path class="cls-1" d="M158.4,938.47h17.42v17.42H158.4Z"/><path class="cls-1" d="M158.4,955.89h17.42v17.42H158.4Z"/><path class="cls-1" d="M175.82,851.36H158.4V833.94h17.42Z"/><path class="cls-1" d="M106.14,851.36h17.42v17.42H106.14Z"/><path class="cls-1" d="M106.14,868.78h17.42v17.43H106.14Z"/><path class="cls-1" d="M106.14,886.21h17.42v17.42H106.14Z"/><path class="cls-1" d="M158.4,851.36h17.42v17.42H158.4Z"/><path class="cls-1" d="M106.14,833.94h17.42v17.42H106.14Z"/><path class="cls-1" d="M106.14,833.94a17.42,17.42,0,0,1,17.59-17.25l-.17,17.42Z"/><path class="cls-1" d="M175.82,833.94a17.42,17.42,0,0,0-17.42-17.42v17.42Z"/><path class="cls-1" d="M141,903.63H158.4V886.21A17.42,17.42,0,0,1,141,903.63Z"/><path class="cls-1" d="M141,903.63H123.56V886.21A17.42,17.42,0,0,0,141,903.63Z"/><path class="cls-1" d="M175.82,990.65V973.31H158.4A17.42,17.42,0,0,1,175.82,990.65Z"/><path class="cls-1" d="M123.56,833.94H141a17.42,17.42,0,0,0-17.42,17.42Z"/><path class="cls-1" d="M158.4,833.94H141a17.42,17.42,0,0,1,17.42,17.4Z"/><path class="cls-1" d="M158.4,929.67a17.26,17.26,0,0,0-2.33-8.62h2.33Z"/><path class="cls-1" d="M156.07,886.21a17.39,17.39,0,0,0,2.33-8.71v8.71Z"/><path class="cls-1" d="M386.81,883.07a17.91,17.91,0,0,0,15.52,9h0v9H384.41V883.07Z"/><path class="cls-1" d="M417.87,883.07a17.94,17.94,0,0,1-15.54,9h0v9h17.93V883.07Z"/><path class="cls-1" d="M366.48,954.77h17.93V972.7H366.48Z"/><path class="cls-1" d="M366.48,847.21h17.93v17.93H366.48Z"/><path class="cls-1" d="M366.48,883.07h17.93V901H366.48Z"/><path class="cls-1" d="M366.48,936.85h17.93v17.92H366.48Z"/><path class="cls-1" d="M366.48,865.14h17.93v17.93H366.48Z"/><path class="cls-1" d="M366.48,918.92h17.93v17.93H366.48Z"/><path class="cls-1" d="M366.48,901h17.93v17.93H366.48Z"/><path class="cls-1" d="M386.81,918.92a17.91,17.91,0,0,1,15.52-9h0v-9H384.41v17.93Z"/><path class="cls-1" d="M417.87,918.92a17.94,17.94,0,0,0-15.54-9h0v-9h17.93v17.93Z"/><path class="cls-1" d="M384.41,972.7h17.92v17.92H384.41Z"/><path class="cls-1" d="M402.33,972.7h17.93v17.92H402.33Z"/><path class="cls-1" d="M420.26,954.77h17.93V972.7H420.26Z"/><path class="cls-1" d="M438.19,972.7H420.26v17.92A17.92,17.92,0,0,1,438.19,972.7Z"/><path class="cls-1" d="M366.48,972.7h17.93v17.92A17.92,17.92,0,0,0,366.48,972.7Z"/><path class="cls-1" d="M420.26,936.85h17.93v17.92H420.26Z"/><path class="cls-1" d="M366.48,829.29h17.93v17.92H366.48Z"/><path class="cls-1" d="M420.26,829.29h17.93v17.92H420.26Z"/><path class="cls-1" d="M384.41,966.57v6.13h6.13A6.12,6.12,0,0,1,384.41,966.57Z"/><path class="cls-1" d="M420.26,966.57v6.13h-6.13A6.12,6.12,0,0,0,420.26,966.57Z"/><path class="cls-1" d="M438.19,847.21H420.26v17.93A17.93,17.93,0,0,1,438.19,847.21Z"/><path class="cls-1" d="M420.26,874.16a18,18,0,0,1-2.39,8.91h2.39Z"/><path class="cls-1" d="M420.26,927.83a17.89,17.89,0,0,0-2.39-8.91h2.39Z"/><path class="cls-1" d="M384.41,874.17a17.79,17.79,0,0,0,2.4,8.9h-2.4Z"/><path class="cls-1" d="M384.41,927.82a17.79,17.79,0,0,1,2.4-8.9h-2.4Z"/><path class="cls-1" d="M384.41,811.36a17.93,17.93,0,1,0,0,35.85,17.93,17.93,0,0,1,35.85,0,17.93,17.93,0,1,0,0-35.85Z"/><path class="cls-1" d="M208.41,954.77h17.92V972.7H208.41Z"/><path class="cls-1" d="M208.41,847.21h17.92v17.93H208.41Z"/><path class="cls-1" d="M208.41,883.07h17.92V901H208.41Z"/><path class="cls-1" d="M208.41,936.85h17.92v17.92H208.41Z"/><path class="cls-1" d="M208.41,865.14h17.92v17.93H208.41Z"/><path class="cls-1" d="M208.41,918.92h17.92v17.93H208.41Z"/><path class="cls-1" d="M208.41,901h17.92v17.93H208.41Z"/><path class="cls-1" d="M262.18,954.77h17.93V972.7H262.18Z"/><path class="cls-1" d="M226.33,972.7H208.41a17.92,17.92,0,0,1,17.92,17.92Z"/><path class="cls-1" d="M280.11,972.7H262.18v17.92A17.92,17.92,0,0,1,280.11,972.7Z"/><path class="cls-1" d="M262.18,847.21h17.93v17.93H262.18Z"/><path class="cls-1" d="M262.18,936.85h17.93v17.92H262.18Z"/><path class="cls-1" d="M262.18,865.14h17.93v17.93H262.18Z"/><path class="cls-1" d="M262.18,918.92h17.93v17.93H262.18Z"/><path class="cls-1" d="M208.41,829.29h17.92v17.92H208.41Z"/><path class="cls-1" d="M262.18,829.29h17.93v17.92H262.18Z"/><path class="cls-1" d="M226.33,811.36a17.93,17.93,0,0,0,0,35.85,17.93,17.93,0,0,1,35.85,0h0a17.93,17.93,0,1,0,0-35.85Z"/><path class="cls-1" d="M280.11,883.07H262.18v2.39a18,18,0,0,1,17.93,0Z"/><path class="cls-1" d="M262.18,954.77h17.93V972.7H262.18Z"/><path class="cls-1" d="M262.18,883.07h17.93V901H262.18Z"/><path class="cls-1" d="M262.18,936.85h17.93v17.92H262.18Z"/><path class="cls-1" d="M262.18,918.92h17.93v17.93H262.18Z"/><path class="cls-1" d="M262.18,901h17.93v17.93H262.18Z"/><path class="cls-1" d="M316,954.77h17.93V972.7H316Z"/><path class="cls-1" d="M333.89,972.7H316v17.92A17.92,17.92,0,0,1,333.89,972.7Z"/><path class="cls-1" d="M316,847.21h17.93v17.93H316Z"/><path class="cls-1" d="M316,936.85h17.93v17.92H316Z"/><path class="cls-1" d="M316,865.14h17.93v17.93H316Z"/><path class="cls-1" d="M316,883.07h17.93V901H316Z"/><path class="cls-1" d="M316,901h17.93v17.93H316Z"/><path class="cls-1" d="M316,918.92h17.93v17.93H316Z"/><path class="cls-1" d="M262.18,829.29h17.93v17.92H262.18Z"/><path class="cls-1" d="M316,829.29h17.93v17.92H316Z"/><path class="cls-1" d="M280.11,811.36a17.93,17.93,0,1,0,0,35.85,17.93,17.93,0,0,1,35.85,0,17.93,17.93,0,1,0,0-35.85Z"/><path class="cls-1" d="M262.18,811.36h17.93v17.93H262.18Z"/><path class="cls-1" d="M254.4,410.6v17.93h7.39a7.42,7.42,0,0,1-7.39-7.42Z"/><path class="cls-1" d="M290.25,410.6h0v17.93h-7.42a7.42,7.42,0,0,0,7.42-7.42Z"/><path class="cls-1" d="M308.18,338V320.07h-7.42a7.43,7.43,0,0,1,7.42,7.43Z"/><path class="cls-1" d="M290.25,302.15h0V284.22h-7.42a7.42,7.42,0,0,1,7.42,7.42Z"/><path class="cls-1" d="M290.25,383.71h0V365.79h-7.42a7.42,7.42,0,0,1,7.42,7.42Z"/><path class="cls-1" d="M308.18,410.6H290.25v17.93h17.93Z"/><path class="cls-1" d="M308.18,392.68H290.25V410.6h17.93Z"/><path class="cls-1" d="M308.18,410.6H290.25v17.93h17.93Z"/><path class="cls-1" d="M308.18,392.68H290.25V410.6h17.93Z"/><path class="cls-1" d="M272.33,356.82H254.4v8.07h17.93Z"/><path class="cls-1" d="M281.29,347.86h-9v9h9Z"/><path class="cls-1" d="M290.25,347.86h-9v9h9Z"/><path class="cls-1" d="M281.29,365.79v-9h9v9Z"/><path class="cls-1" d="M308.18,365.79H290.25v26.89h17.93Z"/><path class="cls-1" d="M272.33,428.53H254.4v17.92h17.93Z"/><path class="cls-1" d="M290.25,428.53H272.32v17.92h17.92Z"/><path class="cls-1" d="M254.4,410.6H236.47v17.93H254.4Z"/><path class="cls-1" d="M290.25,428.53h17.93a17.92,17.92,0,0,0-17.93,17.92Z"/><path class="cls-1" d="M236.47,428.53a17.92,17.92,0,0,1,17.93,17.92V428.53Z"/><path class="cls-1" d="M254.4,410.6H236.47v17.93H254.4Z"/><path class="cls-1" d="M254.4,392.68H236.47V410.6H254.4Z"/><path class="cls-1" d="M308.18,284.22H290.25v17.93h17.93Z"/><path class="cls-1" d="M308.18,302.15H290.25v17.92h17.93Z"/><path class="cls-1" d="M263.32,268.09H245.51a9,9,0,0,0-9,9v79.63a9,9,0,0,0,9,9h17.78a9,9,0,0,0,9-9V349.5h-10.5a7.4,7.4,0,0,1-7.42-7.42V300.65h0v-8.93a7.42,7.42,0,0,1,7.39-7.35h39.94a6.45,6.45,0,0,1,6,4,16.29,16.29,0,0,0-15.79-20.26Z"/><path class="cls-1" d="M254.4,330a17.78,17.78,0,0,0,2.4,8.89h-2.4Z"/><path class="cls-1" d="M256.8,338.9a17.91,17.91,0,0,0,15.52,9h0v9H254.4V338.9Z"/><path class="cls-1" d="M290.54,374.75h2.4V356.82H275v9A17.91,17.91,0,0,1,290.54,374.75Z"/><path class="cls-1" d="M253.5,365.79a17.93,17.93,0,0,1,17.93-17.93h18.82a17.93,17.93,0,0,1,17.93,17.93H253.5v0Z"/><path class="cls-1" d="M28.83,303H46.75V320.9H28.83Z"/><path class="cls-1" d="M28.83,285.05H46.75V303H28.83Z"/><path class="cls-1" d="M28.83,320.9H46.75v17.93H28.83Z"/><path class="cls-1" d="M28.83,338.83H46.75v17.92H28.83Z"/><path class="cls-1" d="M28.83,356.75H46.75v17.93H28.83Z"/><path class="cls-1" d="M28.83,374.68H46.75V392.6H28.83Z"/><path class="cls-1" d="M28.83,392.6H46.75v17.93H28.83Z"/><path class="cls-1" d="M28.83,410.53H46.75v17.93H28.83Z"/><path class="cls-1" d="M1.94,285.05a17.92,17.92,0,0,1,17.92-17.93H55.71a17.93,17.93,0,0,1,17.93,17.93v0Z"/><path class="cls-1" d="M1.94,428.46a17.92,17.92,0,0,0,17.92,17.92H55.71a17.92,17.92,0,0,0,17.93-17.92v0Z"/><path class="cls-1" d="M46.75,410.53v17.93H64.66A17.94,17.94,0,0,1,46.75,410.53Z"/><path class="cls-1" d="M28.83,303V285.05H10.92A17.93,17.93,0,0,1,28.83,303Z"/><path class="cls-1" d="M361.11,303H379V320.9H361.11Z"/><path class="cls-1" d="M361.11,285.05H379V303H361.11Z"/><path class="cls-1" d="M361.11,320.9H379v17.93H361.11Z"/><path class="cls-1" d="M361.11,338.83H379v17.92H361.11Z"/><path class="cls-1" d="M361.11,356.75H379v17.93H361.11Z"/><path class="cls-1" d="M361.11,374.68H379V392.6H361.11Z"/><path class="cls-1" d="M361.11,392.6H379v17.93H361.11Z"/><path class="cls-1" d="M361.11,410.53H379v17.93H361.11Z"/><path class="cls-1" d="M334.22,285.05a17.93,17.93,0,0,1,17.93-17.93H388a17.93,17.93,0,0,1,17.93,17.93v0Z"/><path class="cls-1" d="M334.22,428.46a17.92,17.92,0,0,0,17.93,17.92H388a17.92,17.92,0,0,0,17.93-17.92v0Z"/><path class="cls-1" d="M379,410.53v17.93h17.9A17.93,17.93,0,0,1,379,410.53Z"/><path class="cls-1" d="M361.11,303V285.05h-17.9A17.92,17.92,0,0,1,361.11,303Z"/><path class="cls-1" d="M438.1,410.53H456v17.93H438.1Z"/><path class="cls-1" d="M438.1,428.46H456v17.92H438.1Z"/><path class="cls-1" d="M438.1,303H456V320.9H438.1Z"/><path class="cls-1" d="M438.1,338.83H456v17.92H438.1Z"/><path class="cls-1" d="M438.1,392.6H456v17.93H438.1Z"/><path class="cls-1" d="M438.1,320.9H456v17.93H438.1Z"/><path class="cls-1" d="M438.1,374.68H456V392.6H438.1Z"/><path class="cls-1" d="M438.1,356.75H456v17.93H438.1Z"/><path class="cls-1" d="M491.88,410.53h17.93v17.93H491.88Z"/><path class="cls-1" d="M456,446.31V428.46H438.12A17.92,17.92,0,0,1,456,446.31Z"/><path class="cls-1" d="M509.81,428.46H491.88v17.92A17.92,17.92,0,0,1,509.81,428.46Z"/><path class="cls-1" d="M456,446.38v-9h35.85v9Z"/><path class="cls-1" d="M491.88,303h17.93V320.9H491.88Z"/><path class="cls-1" d="M491.88,392.6h17.93v17.93H491.88Z"/><path class="cls-1" d="M491.88,320.9h17.93v17.93H491.88Z"/><path class="cls-1" d="M491.88,338.83h17.93v17.92H491.88Z"/><path class="cls-1" d="M491.88,356.75h17.93v17.93H491.88Z"/><path class="cls-1" d="M491.88,374.68h17.93V392.6H491.88Z"/><path class="cls-1" d="M438.1,285.05H456V303H438.1Z"/><path class="cls-1" d="M491.88,285.05h17.93V303H491.88Z"/><path class="cls-1" d="M456,267.12A17.93,17.93,0,1,0,456,303a17.93,17.93,0,0,1,35.85,0,17.93,17.93,0,1,0,0-35.85Z"/><path class="cls-1" d="M458.43,419.49a17.75,17.75,0,0,1-2.4-9v9Z"/><path class="cls-1" d="M489.48,419.49a17.75,17.75,0,0,0,2.4-9v9Z"/><path class="cls-1" d="M474,428.46v9h17.93V419.49h-2.4A17.92,17.92,0,0,1,474,428.46Z"/><path class="cls-1" d="M458.43,419.49a17.92,17.92,0,0,0,15.52,9h0v9H456V419.49Z"/><path class="cls-1" d="M562.63,338.83a17.93,17.93,0,0,0,15.53,9h0v9H560.23V338.83Z"/><path class="cls-1" d="M593.69,338.83a17.94,17.94,0,0,1-15.53,9h0v9h17.92V338.83Z"/><path class="cls-1" d="M542.31,410.53h17.92v17.93H542.31Z"/><path class="cls-1" d="M542.31,303h17.92V320.9H542.31Z"/><path class="cls-1" d="M542.31,338.83h17.92v17.92H542.31Z"/><path class="cls-1" d="M542.31,392.6h17.92v17.93H542.31Z"/><path class="cls-1" d="M542.31,320.9h17.92v17.93H542.31Z"/><path class="cls-1" d="M542.31,374.68h17.92V392.6H542.31Z"/><path class="cls-1" d="M542.31,356.75h17.92v17.93H542.31Z"/><path class="cls-1" d="M562.63,374.68a17.91,17.91,0,0,1,15.53-9h0v-9H560.23v17.93Z"/><path class="cls-1" d="M593.69,374.68a17.92,17.92,0,0,0-15.53-9h0v-9h17.92v17.93Z"/><path class="cls-1" d="M560.23,428.46h17.93v17.92H560.23Z"/><path class="cls-1" d="M578.16,428.46h17.92v17.92H578.16Z"/><path class="cls-1" d="M596.08,410.53H614v17.93H596.08Z"/><path class="cls-1" d="M614,428.46H596.08v17.92A17.92,17.92,0,0,1,614,428.46Z"/><path class="cls-1" d="M542.31,428.46h17.92v17.92A17.92,17.92,0,0,0,542.31,428.46Z"/><path class="cls-1" d="M596.08,392.6H614v17.93H596.08Z"/><path class="cls-1" d="M542.31,285.05h17.92V303H542.31Z"/><path class="cls-1" d="M596.08,285.05H614V303H596.08Z"/><path class="cls-1" d="M560.23,422.33v6.13h6.13A6.13,6.13,0,0,1,560.23,422.33Z"/><path class="cls-1" d="M596.08,422.33v6.13H590A6.13,6.13,0,0,0,596.08,422.33Z"/><path class="cls-1" d="M614,303H596.08V320.9A17.93,17.93,0,0,1,614,303Z"/><path class="cls-1" d="M596.08,329.92a18,18,0,0,1-2.39,8.91h2.39Z"/><path class="cls-1" d="M596.08,383.59a17.89,17.89,0,0,0-2.39-8.91h2.39Z"/><path class="cls-1" d="M560.23,329.93a17.79,17.79,0,0,0,2.4,8.9h-2.4Z"/><path class="cls-1" d="M560.23,383.58a17.79,17.79,0,0,1,2.4-8.9h-2.4Z"/><path class="cls-1" d="M560.23,267.12a17.93,17.93,0,0,0,0,35.85,17.93,17.93,0,0,1,35.85,0,17.93,17.93,0,1,0,0-35.85Z"/><path class="cls-1" d="M159.2,267.12V285a17.92,17.92,0,0,0-17.92-17.85H114.39a17.93,17.93,0,0,0-17.93,17.93V303h17.93V287.44A17.94,17.94,0,0,1,141.28,303v35.86H159.2V303h0V285.05h0V267.12Z"/><path class="cls-1" d="M96.46,303v35.86h17.93V303Z"/><path class="cls-1" d="M114.39,428.46V410.53H96.46v17.93Z"/><path class="cls-1" d="M114.39,338.83v71.7H96.46v-71.7Z"/><path class="cls-1" d="M159.2,410.53V374.68H141.28v71.7h44.81V428.46h-9A17.93,17.93,0,0,1,159.2,410.53Z"/><path class="cls-1" d="M114.39,446.38V428.46H96.46A17.92,17.92,0,0,1,114.39,446.38Z"/><path class="cls-1" d="M159.2,338.83v35.85H141.28V338.83Z"/><path class="cls-1" d="M204,428.46V374.68H186.09v53.78Z"/><path class="cls-1" d="M186.09,320.9V285.05H204V320.9Z"/><path class="cls-1" d="M204,320.9v17.93H186.09V320.9Z"/><path class="cls-1" d="M204,338.83H186.09v35.85H204Z"/><path class="cls-1" d="M186.09,267.12v17.93H204A17.93,17.93,0,0,0,186.09,267.12Z"/><path class="cls-1" d="M204,428.46H186.09v17.92A17.92,17.92,0,0,0,204,428.46Z"/><path class="cls-1" d="M203.81,428.59H183.94v17.82A20,20,0,0,0,203.81,428.59Z"/><path class="cls-1" d="M186.1,267.66v17.82h17.82A17.82,17.82,0,0,0,186.1,267.66Z"/><path class="cls-1" d="M175.82,71.71a17.94,17.94,0,0,0,15.53,9h0v9H173.42V71.71Z"/><path class="cls-1" d="M206.88,71.71a17.93,17.93,0,0,1-15.53,9h0v9h17.93V71.71Z"/><path class="cls-1" d="M155.5,143.41h17.92v17.93H155.5Z"/><path class="cls-1" d="M155.5,35.85h17.92V53.78H155.5Z"/><path class="cls-1" d="M155.5,71.71h17.92V89.63H155.5Z"/><path class="cls-1" d="M155.5,125.49h17.92v17.92H155.5Z"/><path class="cls-1" d="M155.5,53.78h17.92V71.71H155.5Z"/><path class="cls-1" d="M155.5,107.56h17.92v17.93H155.5Z"/><path class="cls-1" d="M155.5,89.63h17.92v17.93H155.5Z"/><path class="cls-1" d="M175.82,107.56a17.92,17.92,0,0,1,15.53-9h0v-9H173.42v17.93Z"/><path class="cls-1" d="M206.88,107.56a17.91,17.91,0,0,0-15.53-9h0v-9h17.93v17.93Z"/><path class="cls-1" d="M173.42,161.34h17.93v17.92H173.42Z"/><path class="cls-1" d="M191.35,161.34h17.93v17.92H191.35Z"/><path class="cls-1" d="M209.28,143.41H227.2v17.93H209.28Z"/><path class="cls-1" d="M227.2,161.34H209.28v17.92A17.92,17.92,0,0,1,227.2,161.34Z"/><path class="cls-1" d="M155.5,161.34h17.92v17.92A17.92,17.92,0,0,0,155.5,161.34Z"/><path class="cls-1" d="M209.28,125.49H227.2v17.92H209.28Z"/><path class="cls-1" d="M155.5,17.93h17.92V35.85H155.5Z"/><path class="cls-1" d="M209.28,17.93H227.2V35.85H209.28Z"/><path class="cls-1" d="M173.42,155.21v6.13h6.13A6.14,6.14,0,0,1,173.42,155.21Z"/><path class="cls-1" d="M209.28,155.21v6.13h-6.13A6.14,6.14,0,0,0,209.28,155.21Z"/><path class="cls-1" d="M227.2,35.85H209.28V53.78A17.92,17.92,0,0,1,227.2,35.85Z"/><path class="cls-1" d="M209.28,62.8a17.85,17.85,0,0,1-2.4,8.91h2.4Z"/><path class="cls-1" d="M209.28,116.47a17.8,17.8,0,0,0-2.4-8.91h2.4Z"/><path class="cls-1" d="M173.42,62.81a18,18,0,0,0,2.4,8.9h-2.4Z"/><path class="cls-1" d="M173.42,116.46a18,18,0,0,1,2.4-8.9h-2.4Z"/><path class="cls-1" d="M173.42,0a17.93,17.93,0,0,0,0,35.85,17.93,17.93,0,0,1,35.86,0,17.93,17.93,0,0,0,0-35.85Z"/><path class="cls-1" d="M1.94,36.5H19.8V18.64H1.94Z"/><path class="cls-1" d="M1.94,143.65H19.8V125.79H1.94Z"/><path class="cls-1" d="M1.94,107.93H19.8V90.07H1.94Z"/><path class="cls-1" d="M1.94,54.35H19.8V36.5H1.94Z"/><path class="cls-1" d="M1.94,125.79H19.8V107.93H1.94Z"/><path class="cls-1" d="M1.94,72.21H19.8V54.35H1.94Z"/><path class="cls-1" d="M1.94,90.07H19.8V72.21H1.94Z"/><path class="cls-1" d="M55.51,36.5H73.37V18.64H55.51Z"/><path class="cls-1" d="M19.8.78V18.64H1.94A17.86,17.86,0,0,0,19.8.78Z"/><path class="cls-1" d="M73.37,18.64H55.51V.78A17.86,17.86,0,0,0,73.37,18.64Z"/><path class="cls-1" d="M55.51,143.65H73.37V125.79H55.51Z"/><path class="cls-1" d="M55.51,54.35H73.37V36.5H55.51Z"/><path class="cls-1" d="M55.51,125.79H73.37V107.93H55.51Z"/><path class="cls-1" d="M55.51,72.21H73.37V54.35H55.51Z"/><path class="cls-1" d="M1.94,161.51H19.8V143.65H1.94Z"/><path class="cls-1" d="M55.51,161.51H73.37V143.65H55.51Z"/><path class="cls-1" d="M19.8,179.37a17.86,17.86,0,0,1,0-35.72,17.86,17.86,0,1,0,35.71,0,17.86,17.86,0,1,1,0,35.72Z"/><path class="cls-1" d="M73.37,107.93H55.51v-2.39a17.88,17.88,0,0,0,17.86,0Z"/><path class="cls-1" d="M55.51,36.5H73.37V18.64H55.51Z"/><path class="cls-1" d="M55.51,107.93H73.37V90.07H55.51Z"/><path class="cls-1" d="M55.51,54.35H73.37V36.5H55.51Z"/><path class="cls-1" d="M55.51,72.21H73.37V54.35H55.51Z"/><path class="cls-1" d="M55.51,90.07H73.37V72.21H55.51Z"/><path class="cls-1" d="M109.09,36.5H127V18.64H109.09Z"/><path class="cls-1" d="M127,18.64H109.09V.78A17.86,17.86,0,0,0,127,18.64Z"/><path class="cls-1" d="M109.09,143.65H127V125.79H109.09Z"/><path class="cls-1" d="M109.09,54.35H127V36.5H109.09Z"/><path class="cls-1" d="M109.09,125.79H127V107.93H109.09Z"/><path class="cls-1" d="M109.09,107.93H127V90.07H109.09Z"/><path class="cls-1" d="M109.09,90.07H127V72.21H109.09Z"/><path class="cls-1" d="M109.09,72.21H127V54.35H109.09Z"/><path class="cls-1" d="M55.51,161.51H73.37V143.65H55.51Z"/><path class="cls-1" d="M109.09,161.51H127V143.65H109.09Z"/><path class="cls-1" d="M73.37,179.37a17.86,17.86,0,0,1,0-35.72,17.86,17.86,0,0,0,35.72,0,17.86,17.86,0,0,1,0,35.72Z"/><path class="cls-1" d="M55.51,179.37H73.37V161.51H55.51Z"/><path class="cls-1" d="M848.32,533.92v17.92H830.39A17.92,17.92,0,0,0,848.32,533.92Z"/><path class="cls-1" d="M830.39,677.33h17.93v17.92H830.39Z"/><path class="cls-1" d="M830.39,695.25h17.93v17.93H830.39Z"/><path class="cls-1" d="M902.1,677.33H884.17v17.92H902.1Z"/><path class="cls-1" d="M830.39,569.77h17.93V587.7H830.39Z"/><path class="cls-1" d="M902.1,569.77H884.17V587.7H902.1Z"/><path class="cls-1" d="M830.39,659.4h17.93v17.93H830.39Z"/><path class="cls-1" d="M902.1,659.4H884.17v17.93H902.1Z"/><path class="cls-1" d="M830.39,587.7h17.93v17.92H830.39Z"/><path class="cls-1" d="M902.1,587.7H884.17v17.92H902.1Z"/><path class="cls-1" d="M830.39,641.47h17.93V659.4H830.39Z"/><path class="cls-1" d="M902.1,641.47H884.17V659.4H902.1Z"/><path class="cls-1" d="M830.39,623.55h17.93v17.92H830.39Z"/><path class="cls-1" d="M902.1,623.55H884.17v17.92H902.1Z"/><path class="cls-1" d="M830.39,605.62h17.93v17.93H830.39Z"/><path class="cls-1" d="M902.1,605.62H884.17v17.93H902.1Z"/><path class="cls-1" d="M830.39,551.84h17.93v17.93H830.39Z"/><path class="cls-1" d="M902.1,551.84H884.17v17.93H902.1Z"/><path class="cls-1" d="M884.17,533.92v17.92H902.1v0A17.92,17.92,0,0,0,884.17,533.92Z"/><path class="cls-1" d="M850.72,605.62a17.92,17.92,0,0,0,15.53,9h0v9H848.32V605.62Z"/><path class="cls-1" d="M881.78,605.62a17.93,17.93,0,0,1-15.53,9h0v9h17.92V605.62Z"/><path class="cls-1" d="M850.72,641.47a17.93,17.93,0,0,1,15.53-9h0v-9H848.32v17.92Z"/><path class="cls-1" d="M881.78,641.47a17.94,17.94,0,0,0-15.53-9h0v-9h17.92v17.92Z"/><path class="cls-1" d="M884.17,596.79a17.83,17.83,0,0,1-2.39,8.83h2.39Z"/><path class="cls-1" d="M884.17,650.31a17.9,17.9,0,0,0-2.39-8.84h2.39Z"/><path class="cls-1" d="M848.32,596.7a17.84,17.84,0,0,0,2.4,8.92h-2.4Z"/><path class="cls-1" d="M848.32,650.4a17.9,17.9,0,0,1,2.4-8.93h-2.4Z"/><path class="cls-1" d="M884.17,695.25H902.1a17.93,17.93,0,0,0-17.93,17.93Z"/><path class="cls-1" d="M930.73,679.59h17.92v17.92H930.73Z"/><path class="cls-1" d="M930.73,572h17.92V590H930.73Z"/><path class="cls-1" d="M930.73,607.88h17.92v17.93H930.73Z"/><path class="cls-1" d="M930.73,661.66h17.92v17.93H930.73Z"/><path class="cls-1" d="M930.73,590h17.92v17.93H930.73Z"/><path class="cls-1" d="M930.73,643.73h17.92v17.93H930.73Z"/><path class="cls-1" d="M930.73,625.81h17.92v17.92H930.73Z"/><path class="cls-1" d="M984.5,679.59h17.93v17.92H984.5Z"/><path class="cls-1" d="M948.65,715.31v-17.8H930.73A17.93,17.93,0,0,1,948.65,715.31Z"/><path class="cls-1" d="M1002.43,697.51H984.5v17.93A17.93,17.93,0,0,1,1002.43,697.51Z"/><path class="cls-1" d="M948.65,715.44v-9H984.5v9Z"/><path class="cls-1" d="M984.5,572h17.93V590H984.5Z"/><path class="cls-1" d="M984.5,661.66h17.93v17.93H984.5Z"/><path class="cls-1" d="M984.5,590h17.93v17.93H984.5Z"/><path class="cls-1" d="M984.5,607.88h17.93v17.93H984.5Z"/><path class="cls-1" d="M984.5,625.81h17.93v17.92H984.5Z"/><path class="cls-1" d="M984.5,643.73h17.93v17.93H984.5Z"/><path class="cls-1" d="M930.73,554.1h17.92V572H930.73Z"/><path class="cls-1" d="M984.5,554.1h17.93V572H984.5Z"/><path class="cls-1" d="M948.65,536.18a17.93,17.93,0,0,0,0,35.85,17.93,17.93,0,1,1,35.85,0,17.93,17.93,0,1,0,0-35.85Z"/><path class="cls-1" d="M951.05,688.55a17.81,17.81,0,0,1-2.4-9v9Z"/><path class="cls-1" d="M982.11,688.55a17.9,17.9,0,0,0,2.39-9v9Z"/><path class="cls-1" d="M966.58,697.51h0a17.92,17.92,0,0,0,15.53-9h2.39v17.93H966.58Z"/><path class="cls-1" d="M951.05,688.55a17.91,17.91,0,0,0,15.53,9h0v9H948.65V688.55Z"/><path class="cls-1" d="M675.22,568.67h17.86V550.81H675.22Z"/><path class="cls-1" d="M675.22,675.82h17.86V658H675.22Z"/><path class="cls-1" d="M675.22,640.11h17.86V622.25H675.22Z"/><path class="cls-1" d="M675.22,586.53h17.86V568.67H675.22Z"/><path class="cls-1" d="M675.22,658h17.86V640.11H675.22Z"/><path class="cls-1" d="M675.22,604.39h17.86V586.53H675.22Z"/><path class="cls-1" d="M675.22,622.25h17.86V604.39H675.22Z"/><path class="cls-1" d="M728.8,568.67h17.86V550.81H728.8Z"/><path class="cls-1" d="M693.08,533v17.86H675.22A17.86,17.86,0,0,0,693.08,533Z"/><path class="cls-1" d="M746.66,550.81H728.8V533A17.86,17.86,0,0,0,746.66,550.81Z"/><path class="cls-1" d="M728.8,675.82h17.86V658H728.8Z"/><path class="cls-1" d="M728.8,586.53h17.86V568.67H728.8Z"/><path class="cls-1" d="M728.8,658h17.86V640.11H728.8Z"/><path class="cls-1" d="M728.8,604.39h17.86V586.53H728.8Z"/><path class="cls-1" d="M675.22,693.68h17.86V675.82H675.22Z"/><path class="cls-1" d="M728.8,693.68h17.86V675.82H728.8Z"/><path class="cls-1" d="M693.08,711.54a17.86,17.86,0,0,1,0-35.72,17.86,17.86,0,1,0,35.72,0,17.86,17.86,0,1,1,0,35.72Z"/><path class="cls-1" d="M746.66,640.11H728.8v-2.39a17.88,17.88,0,0,0,17.86,0Z"/><path class="cls-1" d="M728.8,568.67h17.86V550.81H728.8Z"/><path class="cls-1" d="M728.8,640.11h17.86V622.25H728.8Z"/><path class="cls-1" d="M728.8,586.53h17.86V568.67H728.8Z"/><path class="cls-1" d="M728.8,604.39h17.86V586.53H728.8Z"/><path class="cls-1" d="M728.8,622.25h17.86V604.39H728.8Z"/><path class="cls-1" d="M782.38,568.67h17.86V550.81H782.38Z"/><path class="cls-1" d="M800.24,550.81H782.38V533A17.86,17.86,0,0,0,800.24,550.81Z"/><path class="cls-1" d="M782.38,675.82h17.86V658H782.38Z"/><path class="cls-1" d="M782.38,586.53h17.86V568.67H782.38Z"/><path class="cls-1" d="M782.38,658h17.86V640.11H782.38Z"/><path class="cls-1" d="M782.38,640.11h17.86V622.25H782.38Z"/><path class="cls-1" d="M782.38,622.25h17.86V604.39H782.38Z"/><path class="cls-1" d="M782.38,604.39h17.86V586.53H782.38Z"/><path class="cls-1" d="M728.8,693.68h17.86V675.82H728.8Z"/><path class="cls-1" d="M782.38,693.68h17.86V675.82H782.38Z"/><path class="cls-1" d="M746.66,711.54a17.86,17.86,0,1,1,0-35.72,17.86,17.86,0,0,0,35.72,0,17.86,17.86,0,1,1,0,35.72Z"/><path class="cls-1" d="M728.8,711.54h17.86V693.68H728.8Z"/></g></g></svg>