<svg xmlns="http://www.w3.org/2000/svg" viewBox="0 0 205.18 226.11"><defs><style>.cls-1{fill:red;}</style></defs><g id="Layer_2" data-name="Layer 2"><g id="Layer_1-2" data-name="Layer 1"><g id="Layer_2-2" data-name="Layer 2"><g id="Layer_1-2-2" data-name="Layer 1-2"><path class="cls-1" d="M165.24,76.89A2.1,2.1,0,1,0,167,80.14v.65a2.58,2.58,0,0,1-2,2.51,2.88,2.88,0,0,0,.59.06,2.7,2.7,0,0,0,2.7-2.7V79.59a2.7,2.7,0,0,0-2.7-2.71h-.35Z"/><path class="cls-1" d="M44,223.6a2.51,2.51,0,1,1-2.5-2.51A2.5,2.5,0,0,1,44,223.6Z"/><path class="cls-1" d="M127.35,221.69h-3.61v-.41h3.62Z"/><path class="cls-1" d="M130,223h1.87v.43h-2.39v-3.94H130Z"/><path class="cls-1" d="M133,223.46h-.5v-2.93h.5Zm-.54-3.71a.31.31,0,0,1,.07-.21.3.3,0,0,1,.22-.08.27.27,0,0,1,.23.08.27.27,0,0,1,.07.21.25.25,0,0,1-.07.2.27.27,0,0,1-.23.08.27.27,0,0,1-.29-.23v-.05Z"/><path class="cls-1" d="M135.57,223.46a1.16,1.16,0,0,1-.07-.31,1.15,1.15,0,0,1-.83.36,1,1,0,0,1-.72-.25.8.8,0,0,1-.28-.62.86.86,0,0,1,.35-.72,1.67,1.67,0,0,1,1-.25h.49v-.23a.56.56,0,0,0-.16-.42.6.6,0,0,0-.46-.15.72.72,0,0,0-.45.13.4.4,0,0,0-.18.33h-.51a.7.7,0,0,1,.16-.42,1,1,0,0,1,.42-.33,1.52,1.52,0,0,1,.59-.12,1.13,1.13,0,0,1,.79.26.87.87,0,0,1,.3.69v1.36a1.75,1.75,0,0,0,.1.64v0Zm-.83-.38a.84.84,0,0,0,.44-.13.71.71,0,0,0,.31-.31V222h-.39c-.62,0-.92.17-.92.53a.46.46,0,0,0,.15.37A.68.68,0,0,0,134.74,223.08Z"/><path class="cls-1" d="M137.25,220.53v.32a1.12,1.12,0,0,1,.87-.38.85.85,0,0,1,.84.47,1.12,1.12,0,0,1,.38-.34,1.17,1.17,0,0,1,.55-.13c.65,0,1,.34,1,1v2h-.5v-1.93a.66.66,0,0,0-.14-.47.61.61,0,0,0-.48-.15.67.67,0,0,0-.47.16.7.7,0,0,0-.21.45v1.94h-.5v-1.92a.56.56,0,0,0-.63-.63.65.65,0,0,0-.67.41v2.14h-.51v-2.93Z"/><path class="cls-1" d="M146,222.21a1.39,1.39,0,0,1-1.5,1.3,1.39,1.39,0,0,1-1.12-.5,2,2,0,0,1-.42-1.34v-.38a2.33,2.33,0,0,1,.19-1,1.57,1.57,0,0,1,.56-.64,1.53,1.53,0,0,1,.84-.22,1.36,1.36,0,0,1,1,.36,1.43,1.43,0,0,1,.45,1h-.53a1.16,1.16,0,0,0-.29-.69.91.91,0,0,0-.63-.21,1,1,0,0,0-.79.36,1.77,1.77,0,0,0-.28,1.05v.39a1.74,1.74,0,0,0,.27,1,.87.87,0,0,0,.75.38,1,1,0,0,0,.66-.19,1.12,1.12,0,0,0,.31-.69Z"/><path class="cls-1" d="M148.44,223.46a1.16,1.16,0,0,1-.07-.31,1.16,1.16,0,0,1-.84.36,1,1,0,0,1-.71-.25.8.8,0,0,1-.28-.62.86.86,0,0,1,.35-.72,1.67,1.67,0,0,1,1-.25h.49v-.23a.54.54,0,0,0-.62-.57.72.72,0,0,0-.45.13.4.4,0,0,0-.18.33h-.51a.68.68,0,0,1,.16-.42,1,1,0,0,1,.42-.33,1.52,1.52,0,0,1,.59-.12,1.14,1.14,0,0,1,.79.26.87.87,0,0,1,.3.69v1.36a1.54,1.54,0,0,0,.1.64v0Zm-.83-.38a.87.87,0,0,0,.44-.13.77.77,0,0,0,.31-.31V222H148c-.62,0-.92.17-.92.53a.46.46,0,0,0,.15.38.65.65,0,0,0,.41.13Z"/><path class="cls-1" d="M150.19,223.46h-.5V219.3h.5Z"/><path class="cls-1" d="M151.54,223.46H151V219.3h.5Z"/><path class="cls-1" d="M154.15,223.46a1.16,1.16,0,0,1-.07-.31,1.13,1.13,0,0,1-.83.36,1.06,1.06,0,0,1-.72-.25.76.76,0,0,1-.27-.62.83.83,0,0,1,.34-.72,1.69,1.69,0,0,1,1-.25h.49v-.23a.56.56,0,0,0-.16-.42.59.59,0,0,0-.46-.15.72.72,0,0,0-.45.13.4.4,0,0,0-.18.33h-.5a.64.64,0,0,1,.15-.42,1,1,0,0,1,.42-.33,1.52,1.52,0,0,1,.59-.12,1.17,1.17,0,0,1,.8.26.89.89,0,0,1,.29.69v1.36a1.54,1.54,0,0,0,.11.64v0Zm-.83-.38a.9.9,0,0,0,.45-.13.69.69,0,0,0,.3-.31V222h-.39c-.61,0-.92.17-.92.53a.44.44,0,0,0,.16.37A.63.63,0,0,0,153.32,223.08Z"/><path class="cls-1" d="M155.83,220.53l0,.37a1.05,1.05,0,0,1,.88-.43c.62,0,.93.36.93,1.05v1.94h-.5v-2a.65.65,0,0,0-.14-.46.6.6,0,0,0-.44-.16.78.78,0,0,0-.43.13,1,1,0,0,0-.29.35v2.08h-.5v-2.93Z"/><path class="cls-1" d="M160.23,223.46a1.16,1.16,0,0,1-.07-.31,1.15,1.15,0,0,1-.83.36,1,1,0,0,1-.72-.25.8.8,0,0,1-.28-.62.86.86,0,0,1,.35-.72,1.67,1.67,0,0,1,1-.25h.49v-.23A.56.56,0,0,0,160,221a.6.6,0,0,0-.46-.15.72.72,0,0,0-.45.13.4.4,0,0,0-.18.33h-.51a.7.7,0,0,1,.16-.42,1,1,0,0,1,.42-.33,1.52,1.52,0,0,1,.59-.12,1.13,1.13,0,0,1,.79.26.87.87,0,0,1,.3.69v1.36a1.75,1.75,0,0,0,.1.64v0Zm-.83-.38a1,1,0,0,0,.44-.13.71.71,0,0,0,.31-.31V222h-.39c-.61,0-.92.17-.92.53a.46.46,0,0,0,.15.37A.68.68,0,0,0,159.4,223.08Z"/><path class="cls-1" d="M161.91,220.53l0,.37a1,1,0,0,1,.87-.43c.62,0,.94.36.94,1.05v1.94h-.5v-2a.66.66,0,0,0-.15-.46.6.6,0,0,0-.44-.16.83.83,0,0,0-.43.13.87.87,0,0,0-.28.35v2.08h-.5v-2.93Z"/><path class="cls-1" d="M164.48,224.24l-.28-.19a1.3,1.3,0,0,0,.26-.73v-.46H165v.4a1.26,1.26,0,0,1-.13.54A1.34,1.34,0,0,1,164.48,224.24Z"/><path class="cls-1" d="M169.65,219.94h-1.26v3.52h-.52v-3.52h-1.26v-.43h3Z"/><path class="cls-1" d="M170.66,220.88a1.08,1.08,0,0,1,.86-.41c.62,0,.93.36.94,1.05v1.94H172v-2a.66.66,0,0,0-.15-.46.6.6,0,0,0-.44-.16.83.83,0,0,0-.43.13.87.87,0,0,0-.28.35v2.08h-.5v-4.16h.5Z"/><path class="cls-1" d="M174.43,223.51a1.32,1.32,0,0,1-1-.39,1.47,1.47,0,0,1-.37-1.05V222a1.76,1.76,0,0,1,.16-.78,1.41,1.41,0,0,1,.47-.53,1.16,1.16,0,0,1,.65-.2,1.08,1.08,0,0,1,.89.38,1.6,1.6,0,0,1,.32,1.07v.21h-2a1.09,1.09,0,0,0,.25.7.78.78,0,0,0,.62.27.88.88,0,0,0,.45-.11,1.1,1.1,0,0,0,.32-.29l.31.24A1.23,1.23,0,0,1,174.43,223.51Zm-.06-2.63a.68.68,0,0,0-.51.23,1,1,0,0,0-.25.61h1.46v0a1,1,0,0,0-.2-.59.68.68,0,0,0-.5-.22Z"/><path class="cls-1" d="M180.51,222.21a1.45,1.45,0,0,1-.47,1,1.48,1.48,0,0,1-1,.34,1.39,1.39,0,0,1-1.12-.5,2,2,0,0,1-.42-1.34v-.38a2.19,2.19,0,0,1,.2-1,1.48,1.48,0,0,1,.55-.64,1.53,1.53,0,0,1,.84-.22,1.36,1.36,0,0,1,1,.36,1.43,1.43,0,0,1,.45,1H180a1.1,1.1,0,0,0-.29-.69.91.91,0,0,0-.63-.21,1,1,0,0,0-.79.36,1.77,1.77,0,0,0-.28,1.05v.39a1.74,1.74,0,0,0,.27,1,.87.87,0,0,0,.75.38,1,1,0,0,0,.67-.19,1.11,1.11,0,0,0,.3-.69Z"/><path class="cls-1" d="M181.69,223.46h-.5V219.3h.5Z"/><path class="cls-1" d="M182.36,222a1.74,1.74,0,0,1,.17-.78,1.23,1.23,0,0,1,.47-.54,1.39,1.39,0,0,1,.69-.18,1.25,1.25,0,0,1,1,.42A1.58,1.58,0,0,1,185,222v0a1.73,1.73,0,0,1-.17.77,1.22,1.22,0,0,1-.46.52,1.28,1.28,0,0,1-.7.19,1.26,1.26,0,0,1-1-.41,1.58,1.58,0,0,1-.37-1.1Zm.5.05a1.31,1.31,0,0,0,.23.79.72.72,0,0,0,.61.29.69.69,0,0,0,.6-.3,1.54,1.54,0,0,0,0-1.62.76.76,0,0,0-1.06-.14.67.67,0,0,0-.15.14A1.48,1.48,0,0,0,182.86,222Z"/><path class="cls-1" d="M187.46,223.17a1,1,0,0,1-.85.34.92.92,0,0,1-.72-.27,1.19,1.19,0,0,1-.25-.81v-1.9h.51v1.89c0,.44.17.67.53.67a.77.77,0,0,0,.77-.43v-2.13h.5v2.93h-.48Z"/><path class="cls-1" d="M188.59,222a1.73,1.73,0,0,1,.33-1.08,1.08,1.08,0,0,1,1.52-.18l.13.12v-1.52h.5v4.16h-.46l0-.32a1.07,1.07,0,0,1-1.66-.05,1.75,1.75,0,0,1-.33-1.08Zm.51.05a1.25,1.25,0,0,0,.2.78.68.68,0,0,0,.57.29.75.75,0,0,0,.7-.43v-1.35a.74.74,0,0,0-.69-.41.68.68,0,0,0-.58.28,1.47,1.47,0,0,0-.2.84Z"/><path class="cls-1" d="M195.48,222.43h-1.65l-.37,1h-.54l1.51-3.94h.45l1.51,3.94h-.54ZM194,222h1.34l-.67-1.84Z"/><path class="cls-1" d="M197.47,219.82v.71H198v.39h-.55v1.82a.46.46,0,0,0,.07.26.3.3,0,0,0,.25.09,1,1,0,0,0,.24,0v.4a1.21,1.21,0,0,1-.38.06.65.65,0,0,1-.51-.2.93.93,0,0,1-.18-.58v-1.82h-.53v-.39H197v-.71Z"/><path class="cls-1" d="M199.15,223.46h-.5V219.3h.5Z"/><path class="cls-1" d="M201.76,223.46a1.73,1.73,0,0,1-.07-.31,1.12,1.12,0,0,1-.83.36,1.06,1.06,0,0,1-.72-.25.76.76,0,0,1-.27-.62.83.83,0,0,1,.34-.72,1.71,1.71,0,0,1,1-.25h.49v-.23a.56.56,0,0,0-.16-.42.59.59,0,0,0-.46-.15.72.72,0,0,0-.45.13.43.43,0,0,0-.18.33h-.5a.63.63,0,0,1,.16-.42,1,1,0,0,1,.42-.33,1.43,1.43,0,0,1,.58-.12,1.15,1.15,0,0,1,.8.26.94.94,0,0,1,.3.69v1.36a1.56,1.56,0,0,0,.1.64v0Zm-.83-.38a.9.9,0,0,0,.45-.13.77.77,0,0,0,.31-.31V222h-.4c-.61,0-.92.17-.92.53a.47.47,0,0,0,.16.37A.65.65,0,0,0,200.93,223.08Z"/><path class="cls-1" d="M204.68,222.68a.35.35,0,0,0-.15-.31,1.54,1.54,0,0,0-.54-.2,2.47,2.47,0,0,1-.6-.19,1,1,0,0,1-.33-.27.67.67,0,0,1-.11-.38.77.77,0,0,1,.3-.61,1.23,1.23,0,0,1,.78-.25,1.25,1.25,0,0,1,.81.26.81.81,0,0,1,.31.66h-.5a.47.47,0,0,0-.18-.36.64.64,0,0,0-.44-.15.67.67,0,0,0-.43.12.37.37,0,0,0-.15.31.31.31,0,0,0,.14.28,1.87,1.87,0,0,0,.52.17,2.75,2.75,0,0,1,.61.21.77.77,0,0,1,.34.28.67.67,0,0,1,.12.39.78.78,0,0,1-.32.64,1.37,1.37,0,0,1-.81.23,1.59,1.59,0,0,1-.62-.12A1.06,1.06,0,0,1,203,223a.84.84,0,0,1-.15-.49h.5a.54.54,0,0,0,.2.41.79.79,0,0,0,.5.14.77.77,0,0,0,.45-.11A.37.37,0,0,0,204.68,222.68Z"/><path class="cls-1" d="M147,73.7v3.21h1.32A1.32,1.32,0,0,1,147,75.58Z"/><path class="cls-1" d="M153.42,73.7h0v3.21h-1.33a1.32,1.32,0,0,0,1.33-1.33Z"/><path class="cls-1" d="M156.63,60.71V57.48H155.3a1.33,1.33,0,0,1,1.33,1.33Z"/><path class="cls-1" d="M153.42,54.28h0V51.07h-1.33a1.32,1.32,0,0,1,1.33,1.33Z"/><path class="cls-1" d="M153.42,68.89h0V65.68h-1.33A1.32,1.32,0,0,1,153.42,67Z"/><path class="cls-1" d="M156.63,73.7h-3.21v3.21h3.21Z"/><path class="cls-1" d="M156.63,70.49h-3.21V73.7h3.21Z"/><path class="cls-1" d="M156.63,73.7h-3.21v3.21h3.21Z"/><path class="cls-1" d="M156.63,70.49h-3.21V73.7h3.21Z"/><path class="cls-1" d="M150.21,64.07H147v1.45h3.21Z"/><path class="cls-1" d="M151.82,62.47h-1.61v1.61h1.61Z"/><path class="cls-1" d="M153.42,62.47h-1.61v1.61h1.61Z"/><path class="cls-1" d="M151.82,65.68V64.06h1.61v1.62Z"/><path class="cls-1" d="M156.63,65.68h-3.21v4.81h3.21Z"/><path class="cls-1" d="M150.21,76.91H147v3.21h3.21Z"/><path class="cls-1" d="M153.42,76.91h-3.21v3.21h3.21Z"/><path class="cls-1" d="M147,73.7h-3.2v3.21H147Z"/><path class="cls-1" d="M153.42,76.91h3.21a3.21,3.21,0,0,0-3.21,3.21h0Z"/><path class="cls-1" d="M143.8,76.91A3.21,3.21,0,0,1,147,80.12h0V76.91Z"/><path class="cls-1" d="M147,73.7h-3.2v3.21H147Z"/><path class="cls-1" d="M147,70.49h-3.2V73.7H147Z"/><path class="cls-1" d="M156.63,51.07h-3.21v3.21h3.21Z"/><path class="cls-1" d="M156.63,54.28h-3.21v3.2h3.21Z"/><path class="cls-1" d="M148.6,48.18h-3.19a1.61,1.61,0,0,0-1.61,1.61V64.05a1.61,1.61,0,0,0,1.61,1.61h3.18a1.61,1.61,0,0,0,1.61-1.61v-1.3h-1.88a1.3,1.3,0,0,1-1.21-.78,1.25,1.25,0,0,1-.12-.54V54h0v-1.6a1.33,1.33,0,0,1,1.33-1.31h7.15a1.13,1.13,0,0,1,1.07.71,2.91,2.91,0,0,0-2.11-3.54,2.87,2.87,0,0,0-.71-.08Z"/><path class="cls-1" d="M147,59.27a3.16,3.16,0,0,0,.43,1.59H147Z"/><path class="cls-1" d="M147.43,60.86a3.19,3.19,0,0,0,2.78,1.61h0v1.61H147V60.86Z"/><path class="cls-1" d="M153.47,67.28h.43V64.07h-3.21v1.61A3.22,3.22,0,0,1,153.47,67.28Z"/><path class="cls-1" d="M146.84,65.68a3.21,3.21,0,0,1,3.21-3.21h3.37a3.21,3.21,0,0,1,3.21,3.2h-9.79Z"/><path class="cls-1" d="M125.53,73.69h3.22V76.9h-3.22Z"/><path class="cls-1" d="M125.53,54.43h3.22v3.21h-3.22Z"/><path class="cls-1" d="M125.53,60.85h3.22v3.21h-3.22Z"/><path class="cls-1" d="M125.53,70.48h3.22v3.21h-3.22Z"/><path class="cls-1" d="M125.53,57.64h3.22v3.21h-3.22Z"/><path class="cls-1" d="M125.53,67.27h3.22v3.21h-3.22Z"/><path class="cls-1" d="M125.53,64.06h3.22v3.21h-3.22Z"/><path class="cls-1" d="M135.17,73.69h3.21V76.9h-3.21Z"/><path class="cls-1" d="M128.75,76.9h-3.22a3.2,3.2,0,0,1,3.22,3.2h0Z"/><path class="cls-1" d="M138.38,76.9h-3.21v3.21a3.21,3.21,0,0,1,3.2-3.21Z"/><path class="cls-1" d="M128.75,80.11V78.5h6.42v1.61Z"/><path class="cls-1" d="M135.17,54.43h3.21v3.21h-3.21Z"/><path class="cls-1" d="M135.17,70.48h3.21v3.21h-3.21Z"/><path class="cls-1" d="M135.17,57.64h3.21v3.21h-3.21Z"/><path class="cls-1" d="M135.17,60.85h3.21v3.21h-3.21Z"/><path class="cls-1" d="M135.17,64.06h3.21v3.21h-3.21Z"/><path class="cls-1" d="M135.17,67.27h3.21v3.21h-3.21Z"/><path class="cls-1" d="M125.53,51.22h3.22v3.21h-3.22Z"/><path class="cls-1" d="M135.17,51.22h3.21v3.21h-3.21Z"/><path class="cls-1" d="M129.17,75.29a3.12,3.12,0,0,1-.42-1.61v1.61Z"/><path class="cls-1" d="M134.74,75.29a3.23,3.23,0,0,0,.43-1.61v1.61Z"/><path class="cls-1" d="M132,76.9h0a3.23,3.23,0,0,0,2.78-1.61h.43V78.5H132Z"/><path class="cls-1" d="M129.17,75.29h-.42V78.5H132V76.89A3.19,3.19,0,0,1,129.17,75.29Z"/><path class="cls-1" d="M135.17,48v3.21h3.21A3.21,3.21,0,0,0,135.17,48Z"/><path class="cls-1" d="M125.53,51.22A3.21,3.21,0,0,1,128.74,48h0v3.21Z"/><path class="cls-1" d="M21.47,218.83V222h1.32a1.33,1.33,0,0,1-1.32-1.33Z"/><path class="cls-1" d="M27.89,218.83h0V222H26.56a1.34,1.34,0,0,0,1.33-1.33h0Z"/><path class="cls-1" d="M31.1,205.82v-3.21H29.77a1.33,1.33,0,0,1,1.33,1.33h0Z"/><path class="cls-1" d="M27.89,199.4h0v-3.21H26.56a1.33,1.33,0,0,1,1.33,1.33h0Z"/><path class="cls-1" d="M27.89,214h0V210.8H26.56a1.33,1.33,0,0,1,1.33,1.33h0Z"/><path class="cls-1" d="M31.1,218.83H27.89V222H31.1Z"/><path class="cls-1" d="M31.1,215.6H27.89v3.23H31.1Z"/><path class="cls-1" d="M31.1,218.83H27.89V222H31.1Z"/><path class="cls-1" d="M31.1,215.6H27.89v3.23H31.1Z"/><path class="cls-1" d="M24.68,209.19H21.47v1.45h3.21Z"/><path class="cls-1" d="M26.28,207.59H24.67v1.61h1.61Z"/><path class="cls-1" d="M27.89,207.59H26.27v1.61h1.62Z"/><path class="cls-1" d="M26.28,210.8v-1.62h1.61v1.62Z"/><path class="cls-1" d="M31.1,210.8H27.89v4.8H31.1Z"/><path class="cls-1" d="M24.68,222H21.47v3.21h3.21Z"/><path class="cls-1" d="M27.89,222H24.68v3.21h3.21Z"/><path class="cls-1" d="M21.47,218.83H18.25V222h3.22Z"/><path class="cls-1" d="M27.89,222H31.1a3.21,3.21,0,0,0-3.21,3.21h0Z"/><path class="cls-1" d="M18.25,222a3.22,3.22,0,0,1,3.22,3.21h0V222Z"/><path class="cls-1" d="M21.47,218.83H18.25V222h3.22Z"/><path class="cls-1" d="M21.47,215.6H18.25v3.23h3.22Z"/><path class="cls-1" d="M31.1,196.19H27.89v3.21H31.1Z"/><path class="cls-1" d="M31.1,199.4H27.89v3.21H31.1Z"/><path class="cls-1" d="M23.06,193.3H19.88a1.61,1.61,0,0,0-1.61,1.61v14.26a1.61,1.61,0,0,0,1.61,1.61h3.18a1.61,1.61,0,0,0,1.61-1.61v-1.29H22.79a1.34,1.34,0,0,1-1.21-.79,1.41,1.41,0,0,1-.11-.54v-7.42h0v-1.6a1.32,1.32,0,0,1,1.32-1.32h7.15a1.16,1.16,0,0,1,1.08.72,2.92,2.92,0,0,0-2.12-3.54,2.82,2.82,0,0,0-.71-.09Z"/><path class="cls-1" d="M21.47,204.39A3.16,3.16,0,0,0,21.9,206h-.43Z"/><path class="cls-1" d="M21.9,206a3.19,3.19,0,0,0,2.78,1.61h0v1.61H21.47V206Z"/><path class="cls-1" d="M27.94,212.4h.43v-3.21H25.16v1.61A3.23,3.23,0,0,1,27.94,212.4Z"/><path class="cls-1" d="M21.31,210.8a3.21,3.21,0,0,1,3.21-3.21h3.37a3.21,3.21,0,0,1,3.21,3.21H21.31Z"/><path class="cls-1" d="M0,218.81H3.21V222H0Z"/><path class="cls-1" d="M0,199.55H3.21v3.21H0Z"/><path class="cls-1" d="M0,206H3.21v3.21H0Z"/><path class="cls-1" d="M0,215.6H3.21v3.21H0Z"/><path class="cls-1" d="M0,202.76H3.21V206H0Z"/><path class="cls-1" d="M0,212.38H3.21v3.22H0Z"/><path class="cls-1" d="M0,209.18H3.21v3.2H0Z"/><path class="cls-1" d="M9.63,218.81h3.21V222H9.63Z"/><path class="cls-1" d="M3.21,222H0a3.21,3.21,0,0,1,3.21,3.21h0Z"/><path class="cls-1" d="M12.84,222H9.63v3.21A3.21,3.21,0,0,1,12.84,222Z"/><path class="cls-1" d="M3.21,225.23v-1.61H9.63v1.61Z"/><path class="cls-1" d="M9.63,199.55h3.21v3.21H9.63Z"/><path class="cls-1" d="M9.63,215.6h3.21v3.21H9.63Z"/><path class="cls-1" d="M9.63,202.76h3.21V206H9.63Z"/><path class="cls-1" d="M9.63,206h3.21v3.21H9.63Z"/><path class="cls-1" d="M9.63,209.18h3.21v3.2H9.63Z"/><path class="cls-1" d="M9.63,212.38h3.21v3.22H9.63Z"/><path class="cls-1" d="M0,196.34H3.21v3.21H0Z"/><path class="cls-1" d="M9.63,196.34h3.21v3.21H9.63Z"/><path class="cls-1" d="M3.64,220.41a3.23,3.23,0,0,1-.43-1.61v1.61Z"/><path class="cls-1" d="M9.2,220.41a3.23,3.23,0,0,0,.43-1.61v1.61Z"/><path class="cls-1" d="M6.42,222h0a3.21,3.21,0,0,0,2.78-1.61h.43v3.21H6.42Z"/><path class="cls-1" d="M3.64,220.41H3.21v3.21H6.42V222A3.2,3.2,0,0,1,3.64,220.41Z"/><path class="cls-1" d="M9.63,193.13v3.21h3.21a3.21,3.21,0,0,0-3.21-3.21Z"/><path class="cls-1" d="M0,196.34a3.21,3.21,0,0,1,3.21-3.21h0v3.21Z"/><path class="cls-1" d="M79.67,29H76.46v3.21h3.21Z"/><path class="cls-1" d="M76.46,4.87H73.25V8.08h3.21Z"/><path class="cls-1" d="M82.88,29H79.67v3.21h3.21Z"/><path class="cls-1" d="M73.25,29h3.21v3.21A3.21,3.21,0,0,0,73.25,29Z"/><path class="cls-1" d="M86.09,29H82.88v3.21A3.21,3.21,0,0,1,86.09,29Z"/><path class="cls-1" d="M76.46,8.08H73.25v3.21h3.21Z"/><path class="cls-1" d="M76.46,14.5H73.25v3.21h3.21Z"/><path class="cls-1" d="M76.46,25.74H73.25V29h3.21Z"/><path class="cls-1" d="M76.46,11.29H73.25V14.5h3.21Z"/><path class="cls-1" d="M76.46,22.53H73.25v3.21h3.21Z"/><path class="cls-1" d="M76.46,17.71H73.25v3.21h3.21Z"/><path class="cls-1" d="M76.46,20.92H73.25v1.61h3.21Z"/><path class="cls-1" d="M77.56,29h-1.1v-1.1A1.1,1.1,0,0,0,77.56,29Z"/><path class="cls-1" d="M76.46,3.27H73.25V6.48h3.21Z"/><path class="cls-1" d="M76.46.06V3.27H73.25A3.21,3.21,0,0,1,76.46.06Z"/><path class="cls-1" d="M96,28.89h-3.2V32.1H96Z"/><path class="cls-1" d="M92.76,4.82H89.54V8h3.22Z"/><path class="cls-1" d="M99.17,28.89H96V32.1h3.21Z"/><path class="cls-1" d="M89.54,28.89h3.22V32.1a3.21,3.21,0,0,0-3.21-3.21Z"/><path class="cls-1" d="M102.39,28.89H99.17V32.1a3.21,3.21,0,0,1,3.21-3.21Z"/><path class="cls-1" d="M92.76,8H89.54v3.21h3.22Z"/><path class="cls-1" d="M92.76,14.45H89.54v3.21h3.22Z"/><path class="cls-1" d="M92.76,25.68H89.54v3.21h3.22Z"/><path class="cls-1" d="M92.76,11.24H89.54v3.21h3.22Z"/><path class="cls-1" d="M92.76,22.47H89.54v3.21h3.22Z"/><path class="cls-1" d="M92.76,17.66H89.54v3.21h3.22Z"/><path class="cls-1" d="M92.76,20.87H89.54v1.61h3.22Z"/><path class="cls-1" d="M93.85,28.89H92.76v-1.1A1.09,1.09,0,0,0,93.85,28.89Z"/><path class="cls-1" d="M92.76,3.21H89.54V6.42h3.22Z"/><path class="cls-1" d="M92.76,0V3.21H89.54A3.21,3.21,0,0,1,92.75,0Z"/><path class="cls-1" d="M58.48,19.31H58V20.9A3.27,3.27,0,0,1,58.48,19.31Z"/><path class="cls-1" d="M58.48,12.87A3.14,3.14,0,0,1,58,11.26v1.61Z"/><path class="cls-1" d="M61.27,16.09H58v3.22h.43a3.24,3.24,0,0,1,2.79-1.61Z"/><path class="cls-1" d="M61.27,16.09h3.22v3.22h-.44a3.21,3.21,0,0,0-2.78-1.61Z"/><path class="cls-1" d="M61.27,14.48v1.61h3.22V12.87h-.44A3.21,3.21,0,0,1,61.27,14.48Z"/><path class="cls-1" d="M58.48,12.87H58V16.1h3.23V14.48A3.21,3.21,0,0,1,58.48,12.87Z"/><path class="cls-1" d="M54.83,4.84h3.22V6.45H54.83Z"/><path class="cls-1" d="M61.27,0h3.22V3.22H61.27Z"/><path class="cls-1" d="M64.49,12.87h3.22V16.1H64.49Z"/><path class="cls-1" d="M54.83,22.53h3.22v3.22H54.83Z"/><path class="cls-1" d="M54.83,22.53h3.22v3.22H54.83Z"/><path class="cls-1" d="M54.83,25.74h3.22V29H54.83Z"/><path class="cls-1" d="M54.83,29h3.22v3.22H54.83Z"/><path class="cls-1" d="M54.83,19.31h3.22v3.22H54.83Z"/><path class="cls-1" d="M54.83,16.09h3.22v3.22H54.83Z"/><path class="cls-1" d="M54.83,16.09h3.22v3.22H54.83Z"/><path class="cls-1" d="M54.83,19.31h3.22v3.22H54.83Z"/><path class="cls-1" d="M54.83,9.65h3.22v3.23H54.83Z"/><path class="cls-1" d="M64.49,9.65h3.22v3.23H64.49Z"/><path class="cls-1" d="M54.83,12.87h3.22V16.1H54.83Z"/><path class="cls-1" d="M64.49,17.7h3.22v3.22H64.49Z"/><path class="cls-1" d="M64.49,22.53h3.22v3.22H64.49Z"/><path class="cls-1" d="M64.49,16.09h3.22v3.22H64.49Z"/><path class="cls-1" d="M64.49,16.09h3.22v3.22H64.49Z"/><path class="cls-1" d="M64.49,9.65h3.22v3.23H64.49Z"/><path class="cls-1" d="M64.49,19.31h3.22v3.22H64.49Z"/><path class="cls-1" d="M58,0h3.23V3.22H58Z"/><path class="cls-1" d="M64.49,6.44h3.22V9.66H64.49Z"/><path class="cls-1" d="M54.83,6.44h3.22V9.66H54.83Z"/><path class="cls-1" d="M64.49,12.87h3.22V16.1H64.49Z"/><path class="cls-1" d="M54.83,12.87h3.22v1.61H54.83Z"/><path class="cls-1" d="M64.49,22.53h3.22v3.22H64.49Z"/><path class="cls-1" d="M64.49,25.74h3.22V29H64.49Z"/><path class="cls-1" d="M67.71,6.44H64.48V3.22h3.23Z"/><path class="cls-1" d="M54.83,6.44h3.22V9.66H54.83Z"/><path class="cls-1" d="M54.83,9.65h3.22v3.23H54.83Z"/><path class="cls-1" d="M54.83,12.87h3.22V16.1H54.83Z"/><path class="cls-1" d="M64.49,6.44h3.22V9.66H64.49Z"/><path class="cls-1" d="M54.83,3.22h3.22V6.45H54.83Z"/><path class="cls-1" d="M54.83,3.22A3.21,3.21,0,0,1,58.08,0l0,3.22Z"/><path class="cls-1" d="M67.71,3.22A3.23,3.23,0,0,0,64.48,0V3.22Z"/><path class="cls-1" d="M61.27,16.09h3.22V12.87A3.22,3.22,0,0,1,61.27,16.09Z"/><path class="cls-1" d="M61.26,16.09H58V12.87A3.22,3.22,0,0,0,61.26,16.09Z"/><path class="cls-1" d="M67.71,29H64.48a3.23,3.23,0,0,1,3.23,3.22Z"/><path class="cls-1" d="M58,3.22h3.23A3.23,3.23,0,0,0,58,6.45h0Z"/><path class="cls-1" d="M64.49,3.22H61.26a3.23,3.23,0,0,1,3.23,3.23Z"/><path class="cls-1" d="M64.05,19.31h.44v1.61A3.14,3.14,0,0,0,64.05,19.31Z"/><path class="cls-1" d="M64.05,12.87a3.14,3.14,0,0,0,.44-1.61v1.61Z"/><path class="cls-1" d="M150.43,25.8h3.22V29h-3.22Z"/><path class="cls-1" d="M150.43,29h3.22v3.21h-3.22Z"/><path class="cls-1" d="M163.28,25.8h-3.22V29h3.22Z"/><path class="cls-1" d="M163.28,29h-3.22v3.21A3.22,3.22,0,0,1,163.28,29Z"/><path class="cls-1" d="M150.43,6.54h3.22V9.75h-3.22Z"/><path class="cls-1" d="M163.28,6.54h-3.22V9.75h3.22Z"/><path class="cls-1" d="M150.43,22.59h3.22V25.8h-3.22Z"/><path class="cls-1" d="M163.28,22.59h-3.22V25.8h3.22Z"/><path class="cls-1" d="M150.43,9.75h3.22V13h-3.22Z"/><path class="cls-1" d="M163.28,9.75h-3.22V13h3.22Z"/><path class="cls-1" d="M150.43,19.38h3.22v3.21h-3.22Z"/><path class="cls-1" d="M163.28,19.38h-3.22v3.21h3.22Z"/><path class="cls-1" d="M150.43,16.17h3.22v3.21h-3.22Z"/><path class="cls-1" d="M150.43,13h3.22v3.21h-3.22Z"/><path class="cls-1" d="M150.43,3.33h3.22V6.54h-3.22Z"/><path class="cls-1" d="M153.65.12a3.21,3.21,0,0,0-.16,6.42h.16a3.21,3.21,0,1,1,6.41-.16.43.43,0,0,1,0,.16,3.21,3.21,0,0,0,.16-6.42h-6.57Z"/><path class="cls-1" d="M163.28,3.33h-3.22V6.54h3.22Z"/><path class="cls-1" d="M154.07,13a3.24,3.24,0,0,0,2.78,1.61h0v1.61h-3.2V13Z"/><path class="cls-1" d="M159.64,13a3.24,3.24,0,0,1-2.79,1.61v1.61h3.21V13Z"/><path class="cls-1" d="M154.07,19.38a3.25,3.25,0,0,1,2.78-1.62h0V16.15h-3.2v3.23Z"/><path class="cls-1" d="M159.64,19.38a3.25,3.25,0,0,0-2.79-1.62V16.15h3.21v3.23Z"/><path class="cls-1" d="M160.06,9.75v1.61a3.15,3.15,0,0,1-.42,1.61h.42Z"/><path class="cls-1" d="M160.06,22.59V21a3.15,3.15,0,0,0-.42-1.61h.42Z"/><path class="cls-1" d="M153.65,11.37a3.21,3.21,0,0,0,.42,1.59h-.42Z"/><path class="cls-1" d="M153.65,21a3.15,3.15,0,0,1,.42-1.59h-.42Z"/><path class="cls-1" d="M160.06,19.38h3.22a3.23,3.23,0,0,1-3.22-3.21Z"/><path class="cls-1" d="M163.27,13h-3.21v3.2A3.21,3.21,0,0,1,163.27,13Z"/><path class="cls-1" d="M168.87,25.8h3.21V29h-3.21Z"/><path class="cls-1" d="M168.87,29h3.21v3.21h-3.21Z"/><path class="cls-1" d="M181.7,25.8h-3.21V29h3.21Z"/><path class="cls-1" d="M181.7,29h-3.21v3.21A3.21,3.21,0,0,1,181.7,29Z"/><path class="cls-1" d="M168.87,6.54h3.21V9.75h-3.21Z"/><path class="cls-1" d="M181.7,6.54h-3.21V9.75h3.21Z"/><path class="cls-1" d="M168.87,22.59h3.21V25.8h-3.21Z"/><path class="cls-1" d="M181.7,22.59h-3.21V25.8h3.21Z"/><path class="cls-1" d="M168.87,9.75h3.21V13h-3.21Z"/><path class="cls-1" d="M181.7,9.75h-3.21V13h3.21Z"/><path class="cls-1" d="M168.87,19.38h3.21v3.21h-3.21Z"/><path class="cls-1" d="M181.7,19.38h-3.21v3.21h3.21Z"/><path class="cls-1" d="M168.87,16.17h3.21v3.21h-3.21Z"/><path class="cls-1" d="M168.87,13h3.21v3.21h-3.21Z"/><path class="cls-1" d="M168.87,3.33h3.21V6.54h-3.21Z"/><path class="cls-1" d="M172.07.12a3.21,3.21,0,0,0-.15,6.42h.15a3.21,3.21,0,0,1,6.42-.16v.16a3.21,3.21,0,1,0,.15-6.42h-6.57Z"/><path class="cls-1" d="M181.7,3.33h-3.21V6.54h3.21Z"/><path class="cls-1" d="M172.5,13a3.23,3.23,0,0,0,2.78,1.61h0v1.61h-3.21V13Z"/><path class="cls-1" d="M178.07,13a3.24,3.24,0,0,1-2.79,1.61v1.61h3.21V13Z"/><path class="cls-1" d="M172.5,19.38a3.25,3.25,0,0,1,2.78-1.62h0V16.15h-3.21v3.23Z"/><path class="cls-1" d="M178.07,19.38a3.25,3.25,0,0,0-2.79-1.62V16.15h3.21v3.23Z"/><path class="cls-1" d="M178.49,9.75v1.61a3.15,3.15,0,0,1-.42,1.61h.42Z"/><path class="cls-1" d="M178.49,22.59V21a3.15,3.15,0,0,0-.42-1.61h.42Z"/><path class="cls-1" d="M172.07,11.37A3.32,3.32,0,0,0,172.5,13h-.43Z"/><path class="cls-1" d="M172.07,21a3.27,3.27,0,0,1,.43-1.59h-.43Z"/><path class="cls-1" d="M178.49,19.38h3.21a3.22,3.22,0,0,1-3.21-3.21Z"/><path class="cls-1" d="M181.7,13h-3.21v3.2A3.21,3.21,0,0,1,181.7,13Z"/><path class="cls-1" d="M192.11,16.17h3.21v3.21h-3.21Z"/><path class="cls-1" d="M192.11,19.38h3.21v3.21h-3.21Z"/><path class="cls-1" d="M196.92.12V3.33h3.21A3.2,3.2,0,0,0,196.92.12Z"/><path class="cls-1" d="M190.5,3.33h-3.21V13h0a3.19,3.19,0,0,1,3.2,3.19v0h6.42v0a3.21,3.21,0,0,1,3.2-3.19h0V6.54h-3.21V6.13A1.84,1.84,0,0,1,195.07,8h-.24v3.77a1.2,1.2,0,1,1-2.4,0h0V8h-.08a1.85,1.85,0,0,1-1.85-1.83Z"/><path class="cls-1" d="M200.13,3.33h-3.21V6.54h3.21Z"/><path class="cls-1" d="M190.5,3.33V.12a3.21,3.21,0,0,0-3.21,3.21h3.21Z"/><path class="cls-1" d="M192.11,25.8V22.59h3.21V25.8Z"/><path class="cls-1" d="M192.11,25.8h3.21V29h-3.21Z"/><path class="cls-1" d="M192.11,29h3.21v3.21h-3.21Z"/><path class="cls-1" d="M114.39,25.8h3.21V29h-3.21Z"/><path class="cls-1" d="M114.39,6.54h3.21V9.75h-3.21Z"/><path class="cls-1" d="M114.39,13h3.21v3.21h-3.21Z"/><path class="cls-1" d="M114.39,22.59h3.21V25.8h-3.21Z"/><path class="cls-1" d="M114.39,9.75h3.21V13h-3.21Z"/><path class="cls-1" d="M114.39,19.38h3.21v3.21h-3.21Z"/><path class="cls-1" d="M114.39,16.17h3.21v3.21h-3.21Z"/><path class="cls-1" d="M124,25.8h3.21V29H124Z"/><path class="cls-1" d="M117.6,32.2V29h-3.21A3.22,3.22,0,0,1,117.6,32.2Z"/><path class="cls-1" d="M127.23,29H124v3.21A3.21,3.21,0,0,1,127.23,29Z"/><path class="cls-1" d="M117.6,32.22V30.61H124v1.61Z"/><path class="cls-1" d="M124,6.54h3.21V9.75H124Z"/><path class="cls-1" d="M124,22.59h3.21V25.8H124Z"/><path class="cls-1" d="M124,9.75h3.21V13H124Z"/><path class="cls-1" d="M124,19.38h3.21v3.21H124Z"/><path class="cls-1" d="M114.39,3.33h3.21V6.54h-3.21Z"/><path class="cls-1" d="M124,3.33h3.21V6.54H124Z"/><path class="cls-1" d="M117.6.12a3.21,3.21,0,0,0,0,6.42A3.21,3.21,0,1,1,124,6.38v.16a3.21,3.21,0,0,0,.15-6.42H117.6Z"/><path class="cls-1" d="M118,27.4a3.06,3.06,0,0,1-.43-1.61V27.4Z"/><path class="cls-1" d="M123.59,27.4a3.26,3.26,0,0,0,.43-1.61V27.4Z"/><path class="cls-1" d="M120.81,29v1.61H124V27.4h-.43A3.21,3.21,0,0,1,120.81,29Z"/><path class="cls-1" d="M118,27.4A3.21,3.21,0,0,0,120.81,29h0v1.61H117.6V27.4Z"/><path class="cls-1" d="M127.23,13.39V13h-1.62A3.07,3.07,0,0,1,127.23,13.39Z"/><path class="cls-1" d="M125.62,13H124v.43A3,3,0,0,1,125.62,13Z"/><path class="cls-1" d="M127.23,19v.43h-1.62A3.27,3.27,0,0,0,127.23,19Z"/><path class="cls-1" d="M125.62,19.38H124V19A3.23,3.23,0,0,0,125.62,19.38Z"/><path class="cls-1" d="M135.93,20.77a3.2,3.2,0,0,1,.42-1.54h-.42Z"/><path class="cls-1" d="M136.35,13a3.17,3.17,0,0,1-.42-1.56V13Z"/><path class="cls-1" d="M139.05,16.12h-3.12v3.12h.42a3.12,3.12,0,0,1,2.7-1.56Z"/><path class="cls-1" d="M139.05,16.12h3.12v3.12h-.41a3.12,3.12,0,0,0-2.71-1.56h0Z"/><path class="cls-1" d="M139.05,14.56v1.56h3.12V13h-.41A3.14,3.14,0,0,1,139.05,14.56Z"/><path class="cls-1" d="M136.35,13h-.42v3.12h3.12V14.56A3.14,3.14,0,0,1,136.35,13Z"/><path class="cls-1" d="M132.82,5.19h3.11V6.75h-3.11Z"/><path class="cls-1" d="M139.05.52h3.12V3.64h-3.12Z"/><path class="cls-1" d="M142.17,13h3.12v3.12h-3.12Z"/><path class="cls-1" d="M132.82,22.36h3.11v3.12h-3.11Z"/><path class="cls-1" d="M132.82,22.36h3.11v3.12h-3.11Z"/><path class="cls-1" d="M132.82,25.48h3.11V28.6h-3.11Z"/><path class="cls-1" d="M132.82,28.6h3.11v3.12h-3.11Z"/><path class="cls-1" d="M132.82,19.24h3.11v3.12h-3.11Z"/><path class="cls-1" d="M132.82,16.12h3.11v3.12h-3.11Z"/><path class="cls-1" d="M132.82,16.12h3.11v3.12h-3.11Z"/><path class="cls-1" d="M132.82,19.24h3.11v3.12h-3.11Z"/><path class="cls-1" d="M132.82,9.88h3.11V13h-3.11Z"/><path class="cls-1" d="M142.17,9.88h3.12V13h-3.12Z"/><path class="cls-1" d="M132.82,13h3.11v3.12h-3.11Z"/><path class="cls-1" d="M142.17,17.68h3.12V20.8h-3.12Z"/><path class="cls-1" d="M142.17,22.36h3.12v3.12h-3.12Z"/><path class="cls-1" d="M142.17,16.12h3.12v3.12h-3.12Z"/><path class="cls-1" d="M142.17,16.12h3.12v3.12h-3.12Z"/><path class="cls-1" d="M142.17,9.88h3.12V13h-3.12Z"/><path class="cls-1" d="M142.17,19.24h3.12v3.12h-3.12Z"/><path class="cls-1" d="M135.93.52h3.12V3.64h-3.12Z"/><path class="cls-1" d="M142.17,6.76h3.12V9.88h-3.12Z"/><path class="cls-1" d="M132.82,6.76h3.11V9.88h-3.11Z"/><path class="cls-1" d="M142.17,13h3.12v3.12h-3.12Z"/><path class="cls-1" d="M132.82,13h3.11v1.56h-3.11Z"/><path class="cls-1" d="M142.17,22.36h3.12v3.12h-3.12Z"/><path class="cls-1" d="M142.17,25.48h3.12V28.6h-3.12Z"/><path class="cls-1" d="M145.29,6.76h-3.12V3.64h3.12Z"/><path class="cls-1" d="M132.82,6.76h3.11V9.88h-3.11Z"/><path class="cls-1" d="M132.82,9.88h3.11V13h-3.11Z"/><path class="cls-1" d="M132.82,13h3.11v3.12h-3.11Z"/><path class="cls-1" d="M142.17,6.76h3.12V9.88h-3.12Z"/><path class="cls-1" d="M132.82,3.64h3.11V6.76h-3.11Z"/><path class="cls-1" d="M132.82,3.64A3.11,3.11,0,0,1,136,.55h0l0,3.12Z"/><path class="cls-1" d="M145.29,3.64A3.12,3.12,0,0,0,142.17.52V3.64Z"/><path class="cls-1" d="M139.05,16.12h3.12V13A3.12,3.12,0,0,1,139.05,16.12Z"/><path class="cls-1" d="M139.05,16.12h-3.12V13A3.13,3.13,0,0,0,139.05,16.12Z"/><path class="cls-1" d="M145.29,31.7V28.6h-3.12A3.11,3.11,0,0,1,145.29,31.7Z"/><path class="cls-1" d="M135.93,3.64h3.12a3.12,3.12,0,0,0-3.12,3.12h0Z"/><path class="cls-1" d="M142.17,3.64h-3.12a3.11,3.11,0,0,1,3.12,3.11Z"/><path class="cls-1" d="M142.17,20.78a3.09,3.09,0,0,0-.41-1.54h.41Z"/><path class="cls-1" d="M141.76,13a3.16,3.16,0,0,0,.41-1.56V13Z"/><path class="cls-1" d="M79.15,125H75.94v3.21h3.21Z"/><path class="cls-1" d="M75.94,100.89H72.73v3.21h3.21Z"/><path class="cls-1" d="M82.36,125H79.15v3.21h3.21Z"/><path class="cls-1" d="M72.73,125h3.21v3.21A3.21,3.21,0,0,0,72.73,125Z"/><path class="cls-1" d="M85.57,125H82.36v3.21A3.21,3.21,0,0,1,85.57,125Z"/><path class="cls-1" d="M75.94,104.1H72.73v3.21h3.21Z"/><path class="cls-1" d="M75.94,110.52H72.73v3.21h3.21Z"/><path class="cls-1" d="M75.94,121.75H72.73V125h3.21Z"/><path class="cls-1" d="M75.94,107.31H72.73v3.21h3.21Z"/><path class="cls-1" d="M75.94,118.55H72.73v3.21h3.21Z"/><path class="cls-1" d="M75.94,113.73H72.73v3.21h3.21Z"/><path class="cls-1" d="M75.94,116.94H72.73v1.61h3.21Z"/><path class="cls-1" d="M77,125h-1.1v-1.09A1.09,1.09,0,0,0,77,125Z"/><path class="cls-1" d="M75.94,99.28H72.73v3.21h3.21Z"/><path class="cls-1" d="M75.94,96.07v3.21H72.73A3.21,3.21,0,0,1,75.94,96.07Z"/><path class="cls-1" d="M36.51,121.75h3.21V125H36.51Z"/><path class="cls-1" d="M36.51,102.49h3.21v3.21H36.51Z"/><path class="cls-1" d="M36.51,108.91h3.21v3.21H36.51Z"/><path class="cls-1" d="M36.51,118.55h3.21v3.21H36.51Z"/><path class="cls-1" d="M36.51,105.7h3.21v3.21H36.51Z"/><path class="cls-1" d="M36.51,115.33h3.21v3.22H36.51Z"/><path class="cls-1" d="M36.51,112.12h3.21v3.21H36.51Z"/><path class="cls-1" d="M46.14,121.75h3.21V125H46.14Z"/><path class="cls-1" d="M39.72,128.15V125H36.51A3.21,3.21,0,0,1,39.72,128.15Z"/><path class="cls-1" d="M49.35,125H46.14v3.21A3.21,3.21,0,0,1,49.35,125Z"/><path class="cls-1" d="M39.72,128.17v-1.61h6.42v1.61Z"/><path class="cls-1" d="M46.14,102.49h3.21v3.21H46.14Z"/><path class="cls-1" d="M46.14,118.55h3.21v3.21H46.14Z"/><path class="cls-1" d="M46.14,105.7h3.21v3.21H46.14Z"/><path class="cls-1" d="M46.14,108.91h3.21v3.21H46.14Z"/><path class="cls-1" d="M46.14,112.12h3.21v3.21H46.14Z"/><path class="cls-1" d="M46.14,115.33h3.21v3.22H46.14Z"/><path class="cls-1" d="M36.51,99.28h3.21v3.21H36.51Z"/><path class="cls-1" d="M46.14,99.28h3.21v3.21H46.14Z"/><path class="cls-1" d="M39.72,96.07a3.21,3.21,0,0,0-.15,6.42h.15a3.21,3.21,0,0,1,6.42,0,3.21,3.21,0,0,0,0-6.42Z"/><path class="cls-1" d="M40.15,123.36a3.26,3.26,0,0,1-.43-1.61v1.61Z"/><path class="cls-1" d="M45.71,123.36a3.16,3.16,0,0,0,.43-1.61v1.61Z"/><path class="cls-1" d="M42.93,125h0a3.19,3.19,0,0,0,2.78-1.61h.43v3.22H42.93Z"/><path class="cls-1" d="M40.15,123.36A3.21,3.21,0,0,0,42.93,125h0v1.61H39.72v-3.22Z"/><path class="cls-1" d="M3.93,108.91a3.19,3.19,0,0,0,2.78,1.61h0v1.62H3.5v-3.23Z"/><path class="cls-1" d="M9.49,108.91h.43v3.21H6.71v-1.61A3.2,3.2,0,0,0,9.49,108.91Z"/><path class="cls-1" d="M.29,121.75H3.5V125H.29Z"/><path class="cls-1" d="M.29,102.49H3.5v3.21H.29Z"/><path class="cls-1" d="M.29,108.91H3.5v3.21H.29Z"/><path class="cls-1" d="M.29,118.55H3.5v3.21H.29Z"/><path class="cls-1" d="M.29,105.7H3.5v3.21H.29Z"/><path class="cls-1" d="M.29,115.33H3.5v3.22H.29Z"/><path class="cls-1" d="M.29,112.12H3.5v3.21H.29Z"/><path class="cls-1" d="M9.92,102.49h3.21v3.21H9.92Z"/><path class="cls-1" d="M9.92,105.7h3.21v3.21H9.92Z"/><path class="cls-1" d="M.29,125H3.5v3.21A3.21,3.21,0,0,0,.29,125Z"/><path class="cls-1" d="M.29,99.28H3.5v3.21H.29Z"/><path class="cls-1" d="M9.92,99.28h3.21v3.21H9.92Z"/><path class="cls-1" d="M3.5,113.22v-1.1H4.6A1.1,1.1,0,0,0,3.5,113.22Z"/><path class="cls-1" d="M13.13,102.49H9.92v3.21A3.21,3.21,0,0,1,13.13,102.49Z"/><path class="cls-1" d="M9.92,105.7v1.62a3.26,3.26,0,0,1-.43,1.61h.43Z"/><path class="cls-1" d="M3.5,107.33a3.15,3.15,0,0,0,.43,1.58H3.5Z"/><path class="cls-1" d="M3.34,115.32a3.22,3.22,0,0,1,.43-1.6H3.34Z"/><path class="cls-1" d="M13.13,108.91H9.92v3.21h0a3.2,3.2,0,0,0,3.2-3.2h0Z"/><path class="cls-1" d="M3.5,96.07a3.21,3.21,0,1,0-.15,6.42H3.5a3.21,3.21,0,0,1,6.42,0,3.21,3.21,0,0,0,.15-6.42H3.5Z"/><path class="cls-1" d="M3.93,113.73a3.19,3.19,0,0,1,2.78-1.61h0V110.5H3.5v3.21Z"/><path class="cls-1" d="M58.41,108.91a3.19,3.19,0,0,0,2.78,1.61h0v1.62H58v-3.23Z"/><path class="cls-1" d="M64,108.91h.43v3.21H61.19v-1.61A3.23,3.23,0,0,0,64,108.91Z"/><path class="cls-1" d="M54.77,121.75H58V125H54.77Z"/><path class="cls-1" d="M54.77,102.49H58v3.21H54.77Z"/><path class="cls-1" d="M54.77,108.91H58v3.21H54.77Z"/><path class="cls-1" d="M54.77,118.55H58v3.21H54.77Z"/><path class="cls-1" d="M54.77,105.7H58v3.21H54.77Z"/><path class="cls-1" d="M54.77,115.33H58v3.22H54.77Z"/><path class="cls-1" d="M54.77,112.12H58v3.21H54.77Z"/><path class="cls-1" d="M64.4,102.49h3.21v3.21H64.4Z"/><path class="cls-1" d="M64.4,105.7h3.21v3.21H64.4Z"/><path class="cls-1" d="M54.77,125H58v3.21A3.21,3.21,0,0,0,54.77,125Z"/><path class="cls-1" d="M54.77,99.28H58v3.21H54.77Z"/><path class="cls-1" d="M64.4,99.28h3.21v3.21H64.4Z"/><path class="cls-1" d="M58,113.22v-1.1h1.09A1.1,1.1,0,0,0,58,113.22Z"/><path class="cls-1" d="M67.61,102.49H64.4v3.21a3.21,3.21,0,0,1,3.21-3.21Z"/><path class="cls-1" d="M64.4,105.7v1.62a3.26,3.26,0,0,1-.43,1.61h.43Z"/><path class="cls-1" d="M58,107.33a3.15,3.15,0,0,0,.43,1.58H58Z"/><path class="cls-1" d="M57.82,115.32a3.12,3.12,0,0,1,.43-1.6h-.43Z"/><path class="cls-1" d="M67.61,108.91H64.4v3.21h0a3.2,3.2,0,0,0,3.2-3.2"/><path class="cls-1" d="M58,96.07a3.21,3.21,0,1,0-.15,6.42H58a3.21,3.21,0,0,1,6.42,0,3.21,3.21,0,0,0,.15-6.42H58Z"/><path class="cls-1" d="M58.41,113.73a3.19,3.19,0,0,1,2.78-1.61h0V110.5H58v3.21Z"/><path class="cls-1" d="M22.13,108.91a3.19,3.19,0,0,0,2.78,1.61h0v1.62H21.7v-3.23Z"/><path class="cls-1" d="M27.69,108.91a3.19,3.19,0,0,1-2.78,1.61h0v1.62h3.2v-3.23Z"/><path class="cls-1" d="M18.49,121.75H21.7V125H18.49Z"/><path class="cls-1" d="M18.49,102.49H21.7v3.21H18.49Z"/><path class="cls-1" d="M18.49,108.91H21.7v3.21H18.49Z"/><path class="cls-1" d="M18.49,118.55H21.7v3.21H18.49Z"/><path class="cls-1" d="M18.49,105.7H21.7v3.21H18.49Z"/><path class="cls-1" d="M18.49,115.33H21.7v3.22H18.49Z"/><path class="cls-1" d="M18.49,112.12H21.7v3.21H18.49Z"/><path class="cls-1" d="M22.13,115.33a3.21,3.21,0,0,1,2.78-1.61h0v-1.61H21.7v3.21Z"/><path class="cls-1" d="M27.69,115.33a3.21,3.21,0,0,0-2.78-1.61h0v-1.61h3.2v3.21Z"/><path class="cls-1" d="M21.7,125h3.21v3.21H21.7Z"/><path class="cls-1" d="M24.91,125h3.2v3.21h-3.2Z"/><path class="cls-1" d="M28.11,121.75h3.22V125H28.11Z"/><path class="cls-1" d="M31.33,125H28.11v3.21A3.22,3.22,0,0,1,31.33,125Z"/><path class="cls-1" d="M18.49,125H21.7v3.21A3.21,3.21,0,0,0,18.49,125Z"/><path class="cls-1" d="M28.11,118.55h3.22v3.21H28.11Z"/><path class="cls-1" d="M18.49,99.28H21.7v3.21H18.49Z"/><path class="cls-1" d="M28.11,99.28h3.22v3.21H28.11Z"/><path class="cls-1" d="M21.7,123.87V125h1.09A1.09,1.09,0,0,1,21.7,123.87Z"/><path class="cls-1" d="M28.11,123.87V125H27A1.09,1.09,0,0,0,28.11,123.87Z"/><path class="cls-1" d="M31.33,102.49H28.11v3.21a3.22,3.22,0,0,1,3.22-3.21Z"/><path class="cls-1" d="M28.11,107.32a3.15,3.15,0,0,1-.42,1.59h.42Z"/><path class="cls-1" d="M28.11,116.94a3.16,3.16,0,0,0-.42-1.6h.42Z"/><path class="cls-1" d="M21.7,107.32a3.16,3.16,0,0,0,.43,1.59H21.7Z"/><path class="cls-1" d="M21.7,116.94a3.22,3.22,0,0,1,.43-1.6H21.7Z"/><path class="cls-1" d="M21.7,96.07a3.21,3.21,0,0,0-.16,6.42h.16a3.21,3.21,0,0,1,6.42,0,3.21,3.21,0,0,0,.15-6.42H21.7Z"/><path class="cls-1" d="M92,108.91a3.19,3.19,0,0,0,2.78,1.61h0v1.62H91.54v-3.23Z"/><path class="cls-1" d="M97.53,108.91a3.19,3.19,0,0,1-2.78,1.61h0v1.62H98v-3.23Z"/><path class="cls-1" d="M88.33,121.75h3.21V125H88.33Z"/><path class="cls-1" d="M88.33,102.49h3.21v3.21H88.33Z"/><path class="cls-1" d="M88.33,108.91h3.21v3.21H88.33Z"/><path class="cls-1" d="M88.33,118.55h3.21v3.21H88.33Z"/><path class="cls-1" d="M88.33,105.7h3.21v3.21H88.33Z"/><path class="cls-1" d="M88.33,115.33h3.21v3.22H88.33Z"/><path class="cls-1" d="M88.33,112.12h3.21v3.21H88.33Z"/><path class="cls-1" d="M92,115.33a3.21,3.21,0,0,1,2.78-1.61h0v-1.61H91.54v3.21Z"/><path class="cls-1" d="M97.53,115.33a3.21,3.21,0,0,0-2.78-1.61h0v-1.61H98v3.21Z"/><path class="cls-1" d="M91.54,125h3.21v3.21H91.54Z"/><path class="cls-1" d="M94.75,125H98v3.21H94.75Z"/><path class="cls-1" d="M98,121.75h3.22V125H98Z"/><path class="cls-1" d="M101.18,125H98v3.21a3.21,3.21,0,0,1,3.21-3.21Z"/><path class="cls-1" d="M88.33,125h3.21v3.21A3.21,3.21,0,0,0,88.33,125Z"/><path class="cls-1" d="M98,118.55h3.22v3.21H98Z"/><path class="cls-1" d="M88.33,99.28h3.21v3.21H88.33Z"/><path class="cls-1" d="M98,99.28h3.22v3.21H98Z"/><path class="cls-1" d="M91.54,123.87V125h1.1a1.09,1.09,0,0,1-1.1-1.09Z"/><path class="cls-1" d="M98,123.87V125h-1.1a1.09,1.09,0,0,0,1.1-1.09Z"/><path class="cls-1" d="M101.18,102.49H98v3.21a3.21,3.21,0,0,1,3.21-3.21Z"/><path class="cls-1" d="M98,107.32a3.16,3.16,0,0,1-.43,1.59H98Z"/><path class="cls-1" d="M98,116.94a3.17,3.17,0,0,0-.43-1.6H98Z"/><path class="cls-1" d="M91.54,107.32a3.16,3.16,0,0,0,.43,1.59h-.43Z"/><path class="cls-1" d="M91.54,116.94a3.22,3.22,0,0,1,.43-1.6h-.43Z"/><path class="cls-1" d="M91.54,96.07a3.21,3.21,0,0,0-.15,6.42h.15a3.21,3.21,0,0,1,6.42,0,3.21,3.21,0,0,0,0-6.42Z"/><path class="cls-1" d="M167.77,170.45H171v3.21h-3.21Z"/><path class="cls-1" d="M167.77,173.66H171v3.21h-3.21Z"/><path class="cls-1" d="M180.61,170.45H177.4v3.21h3.21Z"/><path class="cls-1" d="M180.61,173.66H177.4v3.21A3.21,3.21,0,0,1,180.61,173.66Z"/><path class="cls-1" d="M167.77,151.19H171v3.21h-3.21Z"/><path class="cls-1" d="M180.61,151.19H177.4v3.21h3.21Z"/><path class="cls-1" d="M167.77,167.24H171v3.21h-3.21Z"/><path class="cls-1" d="M180.61,167.24H177.4v3.21h3.21Z"/><path class="cls-1" d="M167.77,154.4H171v3.21h-3.21Z"/><path class="cls-1" d="M180.61,154.4H177.4v3.21h3.21Z"/><path class="cls-1" d="M167.77,164H171v3.21h-3.21Z"/><path class="cls-1" d="M180.61,164H177.4v3.21h3.21Z"/><path class="cls-1" d="M167.77,160.82H171V164h-3.21Z"/><path class="cls-1" d="M167.77,157.61H171v3.21h-3.21Z"/><path class="cls-1" d="M167.77,148H171v3.21h-3.21Z"/><path class="cls-1" d="M171,144.77a3.21,3.21,0,0,0,0,6.42,3.21,3.21,0,0,1,6.42-.15v.15a3.21,3.21,0,0,0,.15-6.42H171Z"/><path class="cls-1" d="M180.61,148H177.4v3.21h3.21Z"/><path class="cls-1" d="M171.41,157.61a3.22,3.22,0,0,0,2.78,1.62h0v1.61H171v-3.23Z"/><path class="cls-1" d="M177,157.61a3.22,3.22,0,0,1-2.78,1.62v1.61h3.21v-3.23Z"/><path class="cls-1" d="M171.41,164a3.21,3.21,0,0,1,2.78-1.61h0v-1.61H171V164Z"/><path class="cls-1" d="M177,164a3.21,3.21,0,0,0-2.78-1.61v-1.61h3.21V164Z"/><path class="cls-1" d="M177.4,154.4V156a3.26,3.26,0,0,1-.43,1.61h.43Z"/><path class="cls-1" d="M177.4,167.24v-1.61A3.26,3.26,0,0,0,177,164h.43Z"/><path class="cls-1" d="M171,156a3.16,3.16,0,0,0,.43,1.59H171Z"/><path class="cls-1" d="M171,165.63a3.22,3.22,0,0,1,.43-1.6H171Z"/><path class="cls-1" d="M177.4,164h3.21a3.21,3.21,0,0,1-3.21-3.2Z"/><path class="cls-1" d="M180.6,157.61h-3.2v3.21A3.21,3.21,0,0,1,180.6,157.61Z"/><path class="cls-1" d="M150.49,170.45h3.21v3.21h-3.21Z"/><path class="cls-1" d="M150.49,151.19h3.21v3.21h-3.21Z"/><path class="cls-1" d="M150.49,157.61h3.21v3.21h-3.21Z"/><path class="cls-1" d="M150.49,167.24h3.21v3.21h-3.21Z"/><path class="cls-1" d="M150.49,154.4h3.21v3.21h-3.21Z"/><path class="cls-1" d="M150.49,164h3.21v3.21h-3.21Z"/><path class="cls-1" d="M150.49,160.82h3.21V164h-3.21Z"/><path class="cls-1" d="M160.12,170.45h3.21v3.21h-3.21Z"/><path class="cls-1" d="M153.7,176.85v-3.19h-3.21A3.21,3.21,0,0,1,153.7,176.85Z"/><path class="cls-1" d="M163.33,173.66h-3.21v3.21A3.21,3.21,0,0,1,163.33,173.66Z"/><path class="cls-1" d="M153.7,176.87v-1.61h6.42v1.61Z"/><path class="cls-1" d="M160.12,151.19h3.21v3.21h-3.21Z"/><path class="cls-1" d="M160.12,167.24h3.21v3.21h-3.21Z"/><path class="cls-1" d="M160.12,154.4h3.21v3.21h-3.21Z"/><path class="cls-1" d="M160.12,157.61h3.21v3.21h-3.21Z"/><path class="cls-1" d="M160.12,160.82h3.21V164h-3.21Z"/><path class="cls-1" d="M160.12,164h3.21v3.21h-3.21Z"/><path class="cls-1" d="M150.49,148h3.21v3.21h-3.21Z"/><path class="cls-1" d="M160.12,148h3.21v3.21h-3.21Z"/><path class="cls-1" d="M153.7,144.77a3.21,3.21,0,0,0,0,6.42,3.21,3.21,0,0,1,6.42-.15v.15a3.21,3.21,0,1,0,.15-6.42H153.7Z"/><path class="cls-1" d="M154.13,172.06a3.26,3.26,0,0,1-.43-1.61v1.61Z"/><path class="cls-1" d="M159.69,172.06a3.16,3.16,0,0,0,.43-1.61v1.61Z"/><path class="cls-1" d="M156.91,173.66h0a3.19,3.19,0,0,0,2.78-1.61h.43v3.21h-3.21Z"/><path class="cls-1" d="M154.13,172.06a3.19,3.19,0,0,0,2.78,1.61h0v1.61H153.7v-3.22Z"/><path class="cls-1" d="M98.67,170.22h3.21v3.21H98.67Z"/><path class="cls-1" d="M98.67,151h3.21v3.22H98.67Z"/><path class="cls-1" d="M98.67,157.38h3.21v3.21H98.67Z"/><path class="cls-1" d="M98.67,167h3.21v3.21H98.67Z"/><path class="cls-1" d="M98.67,154.18h3.21v3.21H98.67Z"/><path class="cls-1" d="M98.67,163.8h3.21V167H98.67Z"/><path class="cls-1" d="M98.67,160.59h3.21v3.21H98.67Z"/><path class="cls-1" d="M108.3,170.22h3.21v3.21H108.3Z"/><path class="cls-1" d="M101.88,176.63v-3.2H98.67A3.21,3.21,0,0,1,101.88,176.63Z"/><path class="cls-1" d="M111.51,173.43H108.3v3.21A3.21,3.21,0,0,1,111.51,173.43Z"/><path class="cls-1" d="M101.88,176.64V175h6.42v1.61Z"/><path class="cls-1" d="M108.3,151h3.21v3.22H108.3Z"/><path class="cls-1" d="M108.3,157.38h3.21v3.21H108.3Z"/><path class="cls-1" d="M108.3,167h3.21v3.21H108.3Z"/><path class="cls-1" d="M108.3,154.18h3.21v3.21H108.3Z"/><path class="cls-1" d="M108.3,163.8h3.21V167H108.3Z"/><path class="cls-1" d="M108.3,160.59h3.21v3.21H108.3Z"/><path class="cls-1" d="M98.67,147.75h3.21V151H98.67Z"/><path class="cls-1" d="M108.3,147.75h3.21V151H108.3Z"/><path class="cls-1" d="M101.88,144.54a3.21,3.21,0,0,0,0,6.42,3.21,3.21,0,0,1,6.42-.15V151a3.21,3.21,0,1,0,.15-6.42h-6.57Z"/><path class="cls-1" d="M102.31,157.38a3.23,3.23,0,0,1-.43-1.61v1.61Z"/><path class="cls-1" d="M107.87,157.38a3.13,3.13,0,0,0,.43-1.61v1.61Z"/><path class="cls-1" d="M105.09,159h0a3.21,3.21,0,0,0,2.78-1.61h.43v3.21h-3.21Z"/><path class="cls-1" d="M102.31,157.38a3.19,3.19,0,0,0,2.78,1.61h0v1.62h-3.21v-3.23Z"/><path class="cls-1" d="M102.31,163.8a3.26,3.26,0,0,0-.43,1.61V163.8Z"/><path class="cls-1" d="M102.31,171.83a3.26,3.26,0,0,1-.43-1.61v1.61Z"/><path class="cls-1" d="M107.87,163.8a3.16,3.16,0,0,1,.43,1.61V163.8Z"/><path class="cls-1" d="M107.87,171.83a3.16,3.16,0,0,0,.43-1.61v1.61Z"/><path class="cls-1" d="M105.09,162.2h0a3.19,3.19,0,0,1,2.78,1.61h.43v-3.22h-3.21Z"/><path class="cls-1" d="M105.09,173.43h0a3.19,3.19,0,0,0,2.78-1.61h.43V175h-3.21Z"/><path class="cls-1" d="M102.31,163.8a3.21,3.21,0,0,1,2.78-1.61h0v-1.61h-3.21v3.21Z"/><path class="cls-1" d="M102.31,171.83a3.21,3.21,0,0,0,2.78,1.61h0v1.61h-3.21v-3.22Z"/><path class="cls-1" d="M119.59,158.13a3.2,3.2,0,0,0,2.78,1.62h0v1.61h-3.21v-3.23Z"/><path class="cls-1" d="M125.15,158.13a3.21,3.21,0,0,1-2.78,1.62h0v1.61h3.21v-3.23Z"/><path class="cls-1" d="M116,171h3.21v3.21H116Z"/><path class="cls-1" d="M116,151.71h3.21v3.21H116Z"/><path class="cls-1" d="M116,158.13h3.21v3.22H116Z"/><path class="cls-1" d="M116,167.77h3.21V171H116Z"/><path class="cls-1" d="M116,154.92h3.21v3.21H116Z"/><path class="cls-1" d="M116,164.55h3.21v3.22H116Z"/><path class="cls-1" d="M116,161.35h3.21v3.21H116Z"/><path class="cls-1" d="M119.59,164.55a3.21,3.21,0,0,1,2.78-1.61h0v-1.61h-3.21v3.21Z"/><path class="cls-1" d="M125.15,164.55a3.23,3.23,0,0,0-2.78-1.61h0v-1.61h3.21v3.21Z"/><path class="cls-1" d="M119.16,174.18h3.21v3.21h-3.21Z"/><path class="cls-1" d="M122.37,174.18h3.21v3.21h-3.21Z"/><path class="cls-1" d="M125.58,171h3.21v3.21h-3.21Z"/><path class="cls-1" d="M128.79,174.18h-3.21v3.21a3.21,3.21,0,0,1,3.2-3.21Z"/><path class="cls-1" d="M116,174.18h3.21v3.21a3.21,3.21,0,0,0-3.21-3.21Z"/><path class="cls-1" d="M125.58,167.77h3.21V171h-3.21Z"/><path class="cls-1" d="M116,148.5h3.21v3.21H116Z"/><path class="cls-1" d="M125.58,148.5h3.21v3.21h-3.21Z"/><path class="cls-1" d="M119.16,173.09v1.09h1.09a1.08,1.08,0,0,1-1.09-1.09Z"/><path class="cls-1" d="M125.58,173.09v1.09h-1.1a1.09,1.09,0,0,0,1.1-1.09Z"/><path class="cls-1" d="M128.79,151.71h-3.21v3.21A3.21,3.21,0,0,1,128.79,151.71Z"/><path class="cls-1" d="M125.58,156.54a3.27,3.27,0,0,1-.43,1.59h.43Z"/><path class="cls-1" d="M125.58,166.15a3.33,3.33,0,0,0-.43-1.6h.43Z"/><path class="cls-1" d="M119.16,156.54a3.16,3.16,0,0,0,.43,1.59h-.43Z"/><path class="cls-1" d="M119.16,166.15a3.22,3.22,0,0,1,.43-1.6h-.43Z"/><path class="cls-1" d="M119.16,145.29a3.21,3.21,0,0,0,0,6.42,3.21,3.21,0,0,1,6.42,0,3.21,3.21,0,0,0,.15-6.42h-6.57Z"/><path class="cls-1" d="M188.68,158.08a3.21,3.21,0,0,0,2.78,1.61h0v1.61h-3.21v-3.22Z"/><path class="cls-1" d="M194.24,158.08a3.21,3.21,0,0,1-2.78,1.61h0v1.61h3.21v-3.22Z"/><path class="cls-1" d="M185,170.92h3.21v3.21H185Z"/><path class="cls-1" d="M185,151.66h3.21v3.21H185Z"/><path class="cls-1" d="M185,158.08h3.21v3.21H185Z"/><path class="cls-1" d="M185,167.71h3.21v3.21H185Z"/><path class="cls-1" d="M185,154.87h3.21v3.21H185Z"/><path class="cls-1" d="M185,164.5h3.21v3.21H185Z"/><path class="cls-1" d="M185,161.29h3.21v3.21H185Z"/><path class="cls-1" d="M188.68,164.5a3.19,3.19,0,0,1,2.78-1.61h0v-1.62h-3.21v3.23Z"/><path class="cls-1" d="M194.24,164.5a3.19,3.19,0,0,0-2.78-1.61h0v-1.62h3.21v3.23Z"/><path class="cls-1" d="M188.25,174.13h3.21v3.21h-3.21Z"/><path class="cls-1" d="M191.46,174.13h3.21v3.21h-3.21Z"/><path class="cls-1" d="M194.67,170.92h3.21v3.21h-3.21Z"/><path class="cls-1" d="M197.88,174.13h-3.21v3.21a3.2,3.2,0,0,1,3.21-3.21Z"/><path class="cls-1" d="M185,174.13h3.21v3.21a3.21,3.21,0,0,0-3.21-3.21Z"/><path class="cls-1" d="M194.67,167.71h3.21v3.21h-3.21Z"/><path class="cls-1" d="M185,148.45h3.21v3.21H185Z"/><path class="cls-1" d="M194.67,148.45h3.21v3.21h-3.21Z"/><path class="cls-1" d="M188.25,173v1.1h1.1a1.1,1.1,0,0,1-1.1-1.1Z"/><path class="cls-1" d="M194.67,173v1.1h-1.09A1.11,1.11,0,0,0,194.67,173Z"/><path class="cls-1" d="M197.88,151.66h-3.21v3.21a3.2,3.2,0,0,1,3.21-3.21Z"/><path class="cls-1" d="M194.67,156.48a3.22,3.22,0,0,1-.43,1.6h.43Z"/><path class="cls-1" d="M194.67,166.09a3.16,3.16,0,0,0-.43-1.59h.43Z"/><path class="cls-1" d="M188.25,156.48a3.22,3.22,0,0,0,.43,1.6h-.43Z"/><path class="cls-1" d="M188.25,166.09a3.16,3.16,0,0,1,.43-1.59h-.43Z"/><path class="cls-1" d="M188.25,145.23a3.21,3.21,0,0,0,0,6.42,3.21,3.21,0,0,1,6.42,0,3.21,3.21,0,0,0,.15-6.42h-6.57Z"/><path class="cls-1" d="M136.86,158.08a3.21,3.21,0,0,0,2.78,1.61h0v1.61h-3.21v-3.22Z"/><path class="cls-1" d="M142.42,158.08a3.21,3.21,0,0,1-2.78,1.61h0v1.61h3.21v-3.22Z"/><path class="cls-1" d="M133.22,170.92h3.21v3.21h-3.21Z"/><path class="cls-1" d="M133.22,151.66h3.21v3.21h-3.21Z"/><path class="cls-1" d="M133.22,158.08h3.21v3.21h-3.21Z"/><path class="cls-1" d="M133.22,167.71h3.21v3.21h-3.21Z"/><path class="cls-1" d="M133.22,154.87h3.21v3.21h-3.21Z"/><path class="cls-1" d="M133.22,164.5h3.21v3.21h-3.21Z"/><path class="cls-1" d="M133.22,161.29h3.21v3.21h-3.21Z"/><path class="cls-1" d="M136.86,164.5a3.19,3.19,0,0,1,2.78-1.61h0v-1.62h-3.21v3.23Z"/><path class="cls-1" d="M142.42,164.5a3.19,3.19,0,0,0-2.78-1.61h0v-1.62h3.21v3.23Z"/><path class="cls-1" d="M133.22,174.13h6.42v3.21h-6.42Z"/><path class="cls-1" d="M133.22,174.13h3.21v3.21a3.21,3.21,0,0,0-3.21-3.21Z"/><path class="cls-1" d="M133.22,148.45h3.21v3.21h-3.21Z"/><path class="cls-1" d="M142.85,148.45h3.21v3.21h-3.21Z"/><path class="cls-1" d="M136.43,173v1.1h1.1a1.1,1.1,0,0,1-1.1-1.1Z"/><path class="cls-1" d="M146.06,151.66h-3.21v3.21A3.21,3.21,0,0,1,146.06,151.66Z"/><path class="cls-1" d="M142.85,156.48a3.22,3.22,0,0,1-.43,1.6h.43Z"/><path class="cls-1" d="M142.85,166.09a3.16,3.16,0,0,0-.43-1.59h.43Z"/><path class="cls-1" d="M136.43,156.48a3.22,3.22,0,0,0,.43,1.6h-.43Z"/><path class="cls-1" d="M136.43,166.09a3.16,3.16,0,0,1,.43-1.59h-.43Z"/><path class="cls-1" d="M136.43,145.23a3.21,3.21,0,0,0,0,6.42,3.21,3.21,0,0,1,6.42,0,3.21,3.21,0,0,0,.15-6.42h-6.57Z"/><path class="cls-1" d="M.35,171H3.56v3.21H.35Z"/><path class="cls-1" d="M.35,151.71H3.56v3.21H.35Z"/><path class="cls-1" d="M.35,158.13H3.56v3.22H.35Z"/><path class="cls-1" d="M.35,167.77H3.56V171H.35Z"/><path class="cls-1" d="M.35,154.92H3.56v3.21H.35Z"/><path class="cls-1" d="M.35,164.55H3.56v3.22H.35Z"/><path class="cls-1" d="M.35,161.35H3.56v3.21H.35Z"/><path class="cls-1" d="M10,171h3.21v3.21H10Z"/><path class="cls-1" d="M3.56,177.38v-3.2H.36A3.22,3.22,0,0,1,3.56,177.38Z"/><path class="cls-1" d="M13.19,174.18H10v3.21a3.21,3.21,0,0,1,3.21-3.21Z"/><path class="cls-1" d="M3.56,177.39v-1.61H10v1.61Z"/><path class="cls-1" d="M10,151.71h3.21v3.21H10Z"/><path class="cls-1" d="M10,167.77h3.21V171H10Z"/><path class="cls-1" d="M10,154.92h3.21v3.21H10Z"/><path class="cls-1" d="M10,164.55h3.21v3.22H10Z"/><path class="cls-1" d="M.35,148.5H3.56v3.21H.35Z"/><path class="cls-1" d="M10,148.5h3.21v3.21H10Z"/><path class="cls-1" d="M3.56,145.29a3.21,3.21,0,0,0,0,6.42,3.21,3.21,0,0,1,6.42,0,3.21,3.21,0,0,0,.15-6.42H3.56Z"/><path class="cls-1" d="M4,172.58A3.06,3.06,0,0,1,3.56,171v1.61Z"/><path class="cls-1" d="M9.55,172.58A3.26,3.26,0,0,0,10,171v1.61Z"/><path class="cls-1" d="M6.77,174.18v1.62H10v-3.22H9.55A3.23,3.23,0,0,1,6.77,174.18Z"/><path class="cls-1" d="M4,172.58a3.19,3.19,0,0,0,2.78,1.61h0v1.61H3.56v-3.22Z"/><path class="cls-1" d="M13.19,158.56v-.43H11.58A3.26,3.26,0,0,1,13.19,158.56Z"/><path class="cls-1" d="M11.58,158.13H10v.43A3.26,3.26,0,0,1,11.58,158.13Z"/><path class="cls-1" d="M13.19,164.12v.43H11.58A3.06,3.06,0,0,0,13.19,164.12Z"/><path class="cls-1" d="M11.58,164.55H10v-.43A3,3,0,0,0,11.58,164.55Z"/><path class="cls-1" d="M22.13,166.47a3,3,0,0,1,.41-1.53h-.41Z"/><path class="cls-1" d="M22.54,158.7a3.19,3.19,0,0,1-.41-1.56v1.56Z"/><path class="cls-1" d="M25.25,161.82H22.13v3.12h.41a3.1,3.1,0,0,1,2.71-1.56Z"/><path class="cls-1" d="M25.25,161.82h3.12v3.12H28a3.12,3.12,0,0,0-2.7-1.56h0Z"/><path class="cls-1" d="M25.25,160.26v1.56h3.12V158.7H28A3.14,3.14,0,0,1,25.25,160.26Z"/><path class="cls-1" d="M22.54,158.7h-.41v3.12h3.12v-1.56A3.14,3.14,0,0,1,22.54,158.7Z"/><path class="cls-1" d="M19,150.9h3.12v1.56H19Z"/><path class="cls-1" d="M25.25,146.22h3.12v3.12H25.25Z"/><path class="cls-1" d="M28.37,158.7h3.11v3.12H28.37Z"/><path class="cls-1" d="M19,168.06h3.12v3.11H19Z"/><path class="cls-1" d="M19,168.06h3.12v3.11H19Z"/><path class="cls-1" d="M19,171.17h3.12v3.12H19Z"/><path class="cls-1" d="M19,174.29h3.12v3.12H19Z"/><path class="cls-1" d="M19,164.94h3.12v3.12H19Z"/><path class="cls-1" d="M19,161.82h3.12v3.12H19Z"/><path class="cls-1" d="M19,161.82h3.12v3.12H19Z"/><path class="cls-1" d="M19,164.94h3.12v3.12H19Z"/><path class="cls-1" d="M19,155.58h3.12v3.12H19Z"/><path class="cls-1" d="M28.37,155.58h3.11v3.12H28.37Z"/><path class="cls-1" d="M19,158.7h3.12v3.12H19Z"/><path class="cls-1" d="M28.37,163.38h3.11v3.12H28.37Z"/><path class="cls-1" d="M28.37,168.06h3.11v3.11H28.37Z"/><path class="cls-1" d="M28.37,161.82h3.11v3.12H28.37Z"/><path class="cls-1" d="M28.37,161.82h3.11v3.12H28.37Z"/><path class="cls-1" d="M28.37,155.58h3.11v3.12H28.37Z"/><path class="cls-1" d="M28.37,164.94h3.11v3.12H28.37Z"/><path class="cls-1" d="M22.13,146.22h3.12v3.12H22.13Z"/><path class="cls-1" d="M28.37,152.46h3.11v3.12H28.37Z"/><path class="cls-1" d="M19,152.46h3.12v3.12H19Z"/><path class="cls-1" d="M28.37,158.7h3.11v3.12H28.37Z"/><path class="cls-1" d="M19,158.7h3.12v1.56H19Z"/><path class="cls-1" d="M28.37,168.06h3.11v3.11H28.37Z"/><path class="cls-1" d="M28.37,171.17h3.11v3.12H28.37Z"/><path class="cls-1" d="M31.48,152.46H28.37v-3.12h3.11Z"/><path class="cls-1" d="M19,152.46h3.12v3.12H19Z"/><path class="cls-1" d="M19,155.58h3.12v3.12H19Z"/><path class="cls-1" d="M19,158.7h3.12v3.12H19Z"/><path class="cls-1" d="M28.37,152.46h3.11v3.12H28.37Z"/><path class="cls-1" d="M19,149.34h3.12v3.12H19Z"/><path class="cls-1" d="M19,149.34a3.11,3.11,0,0,1,3.15-3.09h0l0,3.12Z"/><path class="cls-1" d="M31.48,149.34a3.11,3.11,0,0,0-3.11-3.12v3.12Z"/><path class="cls-1" d="M25.25,161.82h3.12V158.7A3.13,3.13,0,0,1,25.25,161.82Z"/><path class="cls-1" d="M25.25,161.82H22.13V158.7a3.12,3.12,0,0,0,3.12,3.12Z"/><path class="cls-1" d="M31.48,177.4v-3.11H28.37A3.11,3.11,0,0,1,31.48,177.4Z"/><path class="cls-1" d="M22.13,149.34h3.12a3.12,3.12,0,0,0-3.12,3.12Z"/><path class="cls-1" d="M28.37,149.34H25.25a3.12,3.12,0,0,1,3.12,3.11Z"/><path class="cls-1" d="M28.37,166.48a3.17,3.17,0,0,0-.42-1.54h.42Z"/><path class="cls-1" d="M28,158.7a3.2,3.2,0,0,0,.42-1.56v1.56Z"/><path class="cls-1" d="M69.27,158.13a3.2,3.2,0,0,0,2.78,1.62h0v1.61H68.84v-3.23Z"/><path class="cls-1" d="M74.83,158.13a3.2,3.2,0,0,1-2.78,1.62h0v1.61h3.21v-3.23Z"/><path class="cls-1" d="M65.63,171h3.21v3.21H65.63Z"/><path class="cls-1" d="M65.63,151.71h3.21v3.21H65.63Z"/><path class="cls-1" d="M65.63,158.13h3.21v3.22H65.63Z"/><path class="cls-1" d="M65.63,167.77h3.21V171H65.63Z"/><path class="cls-1" d="M65.63,154.92h3.21v3.21H65.63Z"/><path class="cls-1" d="M65.63,164.55h3.21v3.22H65.63Z"/><path class="cls-1" d="M65.63,161.35h3.21v3.21H65.63Z"/><path class="cls-1" d="M69.27,164.55a3.21,3.21,0,0,1,2.78-1.61h0v-1.61H68.84v3.21Z"/><path class="cls-1" d="M74.83,164.55a3.21,3.21,0,0,0-2.78-1.61h0v-1.61h3.21v3.21Z"/><path class="cls-1" d="M68.84,174.18h3.21v3.21H68.84Z"/><path class="cls-1" d="M72.05,174.18h3.21v3.21H72.05Z"/><path class="cls-1" d="M75.26,171h3.21v3.21H75.26Z"/><path class="cls-1" d="M78.47,174.18H75.26v3.21a3.21,3.21,0,0,1,3.21-3.21Z"/><path class="cls-1" d="M65.63,174.18h3.21v3.21a3.21,3.21,0,0,0-3.21-3.21Z"/><path class="cls-1" d="M75.26,167.77h3.21V171H75.26Z"/><path class="cls-1" d="M65.63,148.5h3.21v3.21H65.63Z"/><path class="cls-1" d="M75.26,148.5h3.21v3.21H75.26Z"/><path class="cls-1" d="M68.84,173.09v1.09h1.1a1.08,1.08,0,0,1-1.1-1.09Z"/><path class="cls-1" d="M75.26,173.09v1.09h-1.1a1.09,1.09,0,0,0,1.1-1.09Z"/><path class="cls-1" d="M78.47,151.71H75.26v3.21A3.21,3.21,0,0,1,78.47,151.71Z"/><path class="cls-1" d="M75.26,156.54a3.16,3.16,0,0,1-.43,1.59h.43Z"/><path class="cls-1" d="M75.26,166.15a3.22,3.22,0,0,0-.43-1.6h.43Z"/><path class="cls-1" d="M68.84,156.54a3.16,3.16,0,0,0,.43,1.59h-.43Z"/><path class="cls-1" d="M68.84,166.15a3.22,3.22,0,0,1,.43-1.6h-.43Z"/><path class="cls-1" d="M68.84,145.29a3.21,3.21,0,1,0-.15,6.42h.15a3.21,3.21,0,0,1,6.42,0,3.21,3.21,0,0,0,.15-6.42H68.84Z"/><path class="cls-1" d="M37.32,171h3.21v3.21H37.32Z"/><path class="cls-1" d="M37.32,151.71h3.21v3.21H37.32Z"/><path class="cls-1" d="M37.32,158.13h3.21v3.22H37.32Z"/><path class="cls-1" d="M37.32,167.77h3.21V171H37.32Z"/><path class="cls-1" d="M37.32,154.92h3.21v3.21H37.32Z"/><path class="cls-1" d="M37.32,164.55h3.21v3.22H37.32Z"/><path class="cls-1" d="M37.32,161.35h3.21v3.21H37.32Z"/><path class="cls-1" d="M47,171h3.21v3.21H47Z"/><path class="cls-1" d="M40.53,174.18H37.32a3.21,3.21,0,0,1,3.21,3.21Z"/><path class="cls-1" d="M50.16,174.18H47v3.21a3.21,3.21,0,0,1,3.21-3.21Z"/><path class="cls-1" d="M47,151.71h3.21v3.21H47Z"/><path class="cls-1" d="M47,167.77h3.21V171H47Z"/><path class="cls-1" d="M47,154.92h3.21v3.21H47Z"/><path class="cls-1" d="M47,164.55h3.21v3.22H47Z"/><path class="cls-1" d="M37.32,148.5h3.21v3.21H37.32Z"/><path class="cls-1" d="M47,148.5h3.21v3.21H47Z"/><path class="cls-1" d="M40.53,145.29a3.21,3.21,0,0,0,0,6.42,3.21,3.21,0,0,1,6.42,0h0a3.21,3.21,0,1,0,.15-6.42H40.53Z"/><path class="cls-1" d="M50.16,158.13H47v.43a3.23,3.23,0,0,1,3.21,0Z"/><path class="cls-1" d="M47,171h3.21v3.21H47Z"/><path class="cls-1" d="M47,158.13h3.21v3.22H47Z"/><path class="cls-1" d="M47,167.77h3.21V171H47Z"/><path class="cls-1" d="M47,164.55h3.21v3.22H47Z"/><path class="cls-1" d="M47,161.35h3.21v3.21H47Z"/><path class="cls-1" d="M56.59,171H59.8v3.21H56.59Z"/><path class="cls-1" d="M59.79,174.18h-3.2v3.21A3.21,3.21,0,0,1,59.79,174.18Z"/><path class="cls-1" d="M56.59,151.71H59.8v3.21H56.59Z"/><path class="cls-1" d="M56.59,167.77H59.8V171H56.59Z"/><path class="cls-1" d="M56.59,154.92H59.8v3.21H56.59Z"/><path class="cls-1" d="M56.59,158.13H59.8v3.22H56.59Z"/><path class="cls-1" d="M56.59,161.35H59.8v3.21H56.59Z"/><path class="cls-1" d="M56.59,164.55H59.8v3.22H56.59Z"/><path class="cls-1" d="M47,148.5h3.21v3.21H47Z"/><path class="cls-1" d="M56.59,148.5H59.8v3.21H56.59Z"/><path class="cls-1" d="M50.16,145.29a3.21,3.21,0,1,0-.15,6.42h.15a3.21,3.21,0,0,1,6.42,0,3.21,3.21,0,1,0,.15-6.42H50.16Z"/><path class="cls-1" d="M47,145.29h3.21v3.21H47Z"/><path class="cls-1" d="M45.56,73.53v3.21h1.32a1.33,1.33,0,0,1-1.32-1.33Z"/><path class="cls-1" d="M52,73.53h0v3.21H50.65A1.34,1.34,0,0,0,52,75.41h0Z"/><path class="cls-1" d="M55.19,60.53V57.32H53.86a1.33,1.33,0,0,1,1.33,1.33Z"/><path class="cls-1" d="M52,54.11h0V50.9H50.65A1.33,1.33,0,0,1,52,52.23h0Z"/><path class="cls-1" d="M52,68.71h0V65.5H50.65A1.34,1.34,0,0,1,52,66.83h0Z"/><path class="cls-1" d="M55.19,73.53H52v3.21h3.21Z"/><path class="cls-1" d="M55.19,70.32H52v3.21h3.21Z"/><path class="cls-1" d="M55.19,73.53H52v3.21h3.21Z"/><path class="cls-1" d="M55.19,70.32H52v3.21h3.21Z"/><path class="cls-1" d="M48.77,63.9H45.56v1.44h3.21Z"/><path class="cls-1" d="M50.37,62.29H48.76V63.9h1.61Z"/><path class="cls-1" d="M52,62.29H50.36V63.9H52Z"/><path class="cls-1" d="M50.37,65.5V63.89H52V65.5Z"/><path class="cls-1" d="M55.19,65.5H52v4.82h3.21Z"/><path class="cls-1" d="M48.77,76.74H45.56V80h3.21Z"/><path class="cls-1" d="M52,76.74H48.77V80H52Z"/><path class="cls-1" d="M45.56,73.53H42.35v3.21h3.21Z"/><path class="cls-1" d="M52,76.74h3.21A3.2,3.2,0,0,0,52,80h0Z"/><path class="cls-1" d="M42.35,76.74A3.21,3.21,0,0,1,45.56,80h0V76.74Z"/><path class="cls-1" d="M45.56,73.53H42.35v3.21h3.21Z"/><path class="cls-1" d="M45.56,70.32H42.35v3.21h3.21Z"/><path class="cls-1" d="M55.19,50.9H52v3.21h3.21Z"/><path class="cls-1" d="M55.19,54.11H52v3.21h3.21Z"/><path class="cls-1" d="M47.15,48H44a1.61,1.61,0,0,0-1.61,1.61V63.88A1.61,1.61,0,0,0,44,65.49h3.19a1.61,1.61,0,0,0,1.61-1.61V62.59H46.88a1.33,1.33,0,0,1-1.33-1.33h0V53.84h0v-1.6a1.34,1.34,0,0,1,1.32-1.32H54a1.15,1.15,0,0,1,1.07.72A2.91,2.91,0,0,0,53,48.1a2.82,2.82,0,0,0-.71-.09Z"/><path class="cls-1" d="M45.56,59.09a3.22,3.22,0,0,0,.43,1.6h-.43Z"/><path class="cls-1" d="M46,60.69a3.21,3.21,0,0,0,2.78,1.61h0v1.61H45.56V60.69Z"/><path class="cls-1" d="M52,67.11h.43V63.9H49.25v1.61A3.23,3.23,0,0,1,52,67.11Z"/><path class="cls-1" d="M45.4,65.5a3.21,3.21,0,0,1,3.21-3.21H52a3.21,3.21,0,0,1,3.21,3.21Z"/><path class="cls-1" d="M5.16,54.26H8.37v3.2H5.16Z"/><path class="cls-1" d="M5.16,51H8.37v3.22H5.16Z"/><path class="cls-1" d="M5.16,57.46H8.37v3.22H5.16Z"/><path class="cls-1" d="M5.16,60.68H8.37v3.2H5.16Z"/><path class="cls-1" d="M5.16,63.88H8.37V67.1H5.16Z"/><path class="cls-1" d="M5.16,67.1H8.37v3.2H5.16Z"/><path class="cls-1" d="M5.16,70.3H8.37v3.22H5.16Z"/><path class="cls-1" d="M5.16,73.52H8.37v3.21H5.16Z"/><path class="cls-1" d="M.35,51a3.21,3.21,0,0,1,3.2-3.21H10A3.21,3.21,0,0,1,13.19,51H.35Z"/><path class="cls-1" d="M.35,76.73a3.2,3.2,0,0,0,3.21,3.2H10a3.2,3.2,0,0,0,3.21-3.2H.35Z"/><path class="cls-1" d="M8.37,73.52v3.21h3.21A3.22,3.22,0,0,1,8.37,73.52Z"/><path class="cls-1" d="M5.16,54.26V51H2a3.22,3.22,0,0,1,3.2,3.22Z"/><path class="cls-1" d="M64.67,54.26h3.2v3.2h-3.2Z"/><path class="cls-1" d="M64.67,51h3.2v3.22h-3.2Z"/><path class="cls-1" d="M64.67,57.46h3.2v3.22h-3.2Z"/><path class="cls-1" d="M64.67,60.68h3.2v3.2h-3.2Z"/><path class="cls-1" d="M64.67,63.88h3.2V67.1h-3.2Z"/><path class="cls-1" d="M64.67,67.1h3.2v3.2h-3.2Z"/><path class="cls-1" d="M64.67,70.3h3.2v3.22h-3.2Z"/><path class="cls-1" d="M64.67,73.52h3.2v3.21h-3.2Z"/><path class="cls-1" d="M59.85,51a3.21,3.21,0,0,1,3.21-3.21h6.42A3.21,3.21,0,0,1,72.69,51H59.85Z"/><path class="cls-1" d="M59.85,76.73a3.21,3.21,0,0,0,3.21,3.2h6.42a3.2,3.2,0,0,0,3.21-3.2H59.85Z"/><path class="cls-1" d="M67.87,73.52v3.21h3.2A3.21,3.21,0,0,1,67.87,73.52Z"/><path class="cls-1" d="M64.67,54.26V51H61.46a3.23,3.23,0,0,1,3.21,3.22Z"/><path class="cls-1" d="M78.45,73.52h3.21v3.21H78.45Z"/><path class="cls-1" d="M78.45,76.73h3.21v3.2H78.45Z"/><path class="cls-1" d="M78.45,54.26h3.21v3.2H78.45Z"/><path class="cls-1" d="M78.45,60.68h3.21v3.2H78.45Z"/><path class="cls-1" d="M78.45,70.3h3.21v3.22H78.45Z"/><path class="cls-1" d="M78.45,57.46h3.21v3.22H78.45Z"/><path class="cls-1" d="M78.45,67.1h3.21v3.2H78.45Z"/><path class="cls-1" d="M78.45,63.88h3.21V67.1H78.45Z"/><path class="cls-1" d="M88.08,73.52h3.21v3.21H88.08Z"/><path class="cls-1" d="M81.66,79.92V76.73h-3.2A3.21,3.21,0,0,1,81.66,79.92Z"/><path class="cls-1" d="M91.29,76.73H88.08v3.2a3.21,3.21,0,0,1,3.21-3.2Z"/><path class="cls-1" d="M81.66,79.93V78.32h6.42v1.61Z"/><path class="cls-1" d="M88.08,54.26h3.21v3.2H88.08Z"/><path class="cls-1" d="M88.08,70.3h3.21v3.22H88.08Z"/><path class="cls-1" d="M88.08,57.46h3.21v3.22H88.08Z"/><path class="cls-1" d="M88.08,60.68h3.21v3.2H88.08Z"/><path class="cls-1" d="M88.08,63.88h3.21V67.1H88.08Z"/><path class="cls-1" d="M88.08,67.1h3.21v3.2H88.08Z"/><path class="cls-1" d="M78.45,51h3.21v3.22H78.45Z"/><path class="cls-1" d="M88.08,51h3.21v3.22H88.08Z"/><path class="cls-1" d="M81.66,47.83a3.22,3.22,0,1,0,0,6.43,3.21,3.21,0,0,1,6.42,0,3.21,3.21,0,0,0,.15-6.42H81.66Z"/><path class="cls-1" d="M82.09,75.12a3.26,3.26,0,0,1-.43-1.61v1.61Z"/><path class="cls-1" d="M87.65,75.12a3.06,3.06,0,0,0,.43-1.61v1.61Z"/><path class="cls-1" d="M84.88,76.73v1.61h3.21V75.12h-.43A3.21,3.21,0,0,1,84.88,76.73Z"/><path class="cls-1" d="M82.09,75.12a3.19,3.19,0,0,0,2.78,1.61h0v1.61H81.66V75.12Z"/><path class="cls-1" d="M100.75,60.68a3.21,3.21,0,0,0,2.78,1.61h0V63.9h-3.21V60.68Z"/><path class="cls-1" d="M106.31,60.68a3.21,3.21,0,0,1-2.78,1.61h0V63.9h3.21V60.68Z"/><path class="cls-1" d="M97.11,73.52h3.21v3.21H97.11Z"/><path class="cls-1" d="M97.11,54.26h3.21v3.2H97.11Z"/><path class="cls-1" d="M97.11,60.68h3.21v3.2H97.11Z"/><path class="cls-1" d="M97.11,70.3h3.21v3.22H97.11Z"/><path class="cls-1" d="M97.11,57.46h3.21v3.22H97.11Z"/><path class="cls-1" d="M97.11,67.1h3.21v3.2H97.11Z"/><path class="cls-1" d="M97.11,63.88h3.21V67.1H97.11Z"/><path class="cls-1" d="M100.75,67.1a3.2,3.2,0,0,1,2.78-1.62h0V63.87h-3.21v3.21Z"/><path class="cls-1" d="M106.31,67.1a3.2,3.2,0,0,0-2.78-1.62h0V63.87h3.21v3.21Z"/><path class="cls-1" d="M100.32,76.73h3.21v3.2h-3.21Z"/><path class="cls-1" d="M103.53,76.73h3.21v3.2h-3.21Z"/><path class="cls-1" d="M106.74,73.52H110v3.21h-3.21Z"/><path class="cls-1" d="M110,76.73h-3.21v3.2A3.21,3.21,0,0,1,110,76.73Z"/><path class="cls-1" d="M97.11,76.73h3.21v3.2A3.2,3.2,0,0,0,97.11,76.73Z"/><path class="cls-1" d="M106.74,70.3H110v3.22h-3.21Z"/><path class="cls-1" d="M97.11,51h3.21v3.22H97.11Z"/><path class="cls-1" d="M106.74,51H110v3.22h-3.21Z"/><path class="cls-1" d="M100.32,75.63v1.1h1.1a1.1,1.1,0,0,1-1.1-1.1Z"/><path class="cls-1" d="M106.74,75.63v1.1h-1.09A1.1,1.1,0,0,0,106.74,75.63Z"/><path class="cls-1" d="M110,54.26h-3.21v3.2A3.21,3.21,0,0,1,110,54.26Z"/><path class="cls-1" d="M106.74,59.08a3.22,3.22,0,0,1-.43,1.6h.43Z"/><path class="cls-1" d="M106.74,68.69a3.16,3.16,0,0,0-.43-1.59h.43Z"/><path class="cls-1" d="M100.32,59.08a3.22,3.22,0,0,0,.43,1.6h-.43Z"/><path class="cls-1" d="M100.32,68.69a3.16,3.16,0,0,1,.43-1.59h-.43Z"/><path class="cls-1" d="M100.32,47.83a3.21,3.21,0,0,0,0,6.42,3.21,3.21,0,0,1,6.42,0,3.21,3.21,0,1,0,.15-6.42h-6.57Z"/><path class="cls-1" d="M28.51,47.83V51a3.21,3.21,0,0,0-3.21-3.2H20.48a3.21,3.21,0,0,0-3.21,3.21v3.21h3.21V51.47a3.23,3.23,0,0,1,4.39,1.18,3.26,3.26,0,0,1,.43,1.61v6.42h3.21V54.26h0V51h0Z"/><path class="cls-1" d="M17.27,54.26v6.42h3.21V54.26Z"/><path class="cls-1" d="M20.48,76.73V73.52H17.27v3.21Z"/><path class="cls-1" d="M20.48,60.68V73.52H17.27V60.68Z"/><path class="cls-1" d="M28.51,73.52V67.1H25.3V79.93h8v-3.2H31.71A3.21,3.21,0,0,1,28.51,73.52Z"/><path class="cls-1" d="M20.48,79.93v-3.2H17.27a3.19,3.19,0,0,1,3.21,3.2Z"/><path class="cls-1" d="M28.51,60.68V67.1H25.3V60.68Z"/><path class="cls-1" d="M36.53,76.73V67.1H33.32v9.63Z"/><path class="cls-1" d="M33.32,57.46V51h3.21v6.42Z"/><path class="cls-1" d="M36.53,57.46v3.22H33.32V57.46Z"/><path class="cls-1" d="M36.53,60.68H33.32V67.1h3.21Z"/><path class="cls-1" d="M33.32,47.83V51h3.21A3.21,3.21,0,0,0,33.32,47.83Z"/><path class="cls-1" d="M36.53,76.73H33.32v3.2A3.2,3.2,0,0,0,36.53,76.73Z"/><path class="cls-1" d="M36.5,76.75H32.94v3.19A3.59,3.59,0,0,0,36.5,76.75Z"/><path class="cls-1" d="M33.33,47.93v3.19h3.19a3.19,3.19,0,0,0-3.19-3.19Z"/><path class="cls-1" d="M31.48,12.84a3.22,3.22,0,0,0,2.79,1.61h0v1.61H31.05V12.84Z"/><path class="cls-1" d="M37.05,12.84a3.22,3.22,0,0,1-2.78,1.61h0v1.61h3.21V12.84Z"/><path class="cls-1" d="M27.85,25.68h3.2v3.21h-3.2Z"/><path class="cls-1" d="M27.85,6.42h3.2V9.63h-3.2Z"/><path class="cls-1" d="M27.85,12.84h3.2v3.21h-3.2Z"/><path class="cls-1" d="M27.85,22.47h3.2v3.21h-3.2Z"/><path class="cls-1" d="M27.85,9.63h3.2v3.21h-3.2Z"/><path class="cls-1" d="M27.85,19.26h3.2v3.21h-3.2Z"/><path class="cls-1" d="M27.85,16.05h3.2v3.21h-3.2Z"/><path class="cls-1" d="M31.48,19.26a3.22,3.22,0,0,1,2.79-1.61h0V16H31.05v3.21Z"/><path class="cls-1" d="M37.05,19.26a3.2,3.2,0,0,0-2.78-1.61h0V16h3.21v3.21Z"/><path class="cls-1" d="M31.05,28.89h3.22V32.1H31.05Z"/><path class="cls-1" d="M34.27,28.89h3.21V32.1H34.27Z"/><path class="cls-1" d="M37.48,25.68h3.21v3.21H37.48Z"/><path class="cls-1" d="M40.69,28.89H37.48V32.1A3.21,3.21,0,0,1,40.69,28.89Z"/><path class="cls-1" d="M27.85,28.89h3.2V32.1A3.21,3.21,0,0,0,27.85,28.89Z"/><path class="cls-1" d="M37.48,22.47h3.21v3.21H37.48Z"/><path class="cls-1" d="M27.85,3.21h3.2V6.42h-3.2Z"/><path class="cls-1" d="M37.48,3.21h3.21V6.42H37.48Z"/><path class="cls-1" d="M31.05,27.79v1.1h1.1A1.11,1.11,0,0,1,31.05,27.79Z"/><path class="cls-1" d="M37.48,27.79v1.1h-1.1A1.1,1.1,0,0,0,37.48,27.79Z"/><path class="cls-1" d="M40.69,6.42H37.48V9.63a3.21,3.21,0,0,1,3.2-3.21Z"/><path class="cls-1" d="M37.48,11.25a3.16,3.16,0,0,1-.43,1.59h.43Z"/><path class="cls-1" d="M37.48,20.86a3.22,3.22,0,0,0-.43-1.6h.43Z"/><path class="cls-1" d="M31.05,11.25a3.38,3.38,0,0,0,.43,1.59h-.43Z"/><path class="cls-1" d="M31.05,20.85a3.44,3.44,0,0,1,.43-1.59h-.43Z"/><path class="cls-1" d="M31.05,0a3.21,3.21,0,0,0,0,6.42,3.22,3.22,0,0,1,6.43,0,3.21,3.21,0,0,0,0-6.42Z"/><path class="cls-1" d="M.35,6.54h3.2V3.34H.35Z"/><path class="cls-1" d="M.35,25.72h3.2V22.53H.35Z"/><path class="cls-1" d="M.35,19.33h3.2v-3.2H.35Z"/><path class="cls-1" d="M.35,9.73h3.2V6.54H.35Z"/><path class="cls-1" d="M.35,22.53h3.2v-3.2H.35Z"/><path class="cls-1" d="M.35,12.93h3.2V9.73H.35Z"/><path class="cls-1" d="M.35,16.13h3.2v-3.2H.35Z"/><path class="cls-1" d="M9.94,6.54h3.2V3.34H9.94Z"/><path class="cls-1" d="M3.55.14v3.2H.35A3.2,3.2,0,0,0,3.55.14Z"/><path class="cls-1" d="M13.14,3.34H9.94V.14a3.2,3.2,0,0,0,3.2,3.2Z"/><path class="cls-1" d="M9.94,25.72h3.2V22.53H9.94Z"/><path class="cls-1" d="M9.94,9.73h3.2V6.54H9.94Z"/><path class="cls-1" d="M9.94,22.53h3.2v-3.2H9.94Z"/><path class="cls-1" d="M9.94,12.93h3.2V9.73H9.94Z"/><path class="cls-1" d="M.35,28.92h3.2v-3.2H.35Z"/><path class="cls-1" d="M9.94,28.92h3.2v-3.2H9.94Z"/><path class="cls-1" d="M3.55,32.12a3.2,3.2,0,0,1,0-6.4,3.2,3.2,0,1,0,6.39.16v-.16a3.2,3.2,0,0,1,0,6.4H3.55Z"/><path class="cls-1" d="M13.14,19.33H9.94V18.9a3.21,3.21,0,0,0,3.2,0Z"/><path class="cls-1" d="M9.94,6.54h3.2V3.34H9.94Z"/><path class="cls-1" d="M9.94,19.33h3.2v-3.2H9.94Z"/><path class="cls-1" d="M9.94,9.73h3.2V6.54H9.94Z"/><path class="cls-1" d="M9.94,12.93h3.2V9.73H9.94Z"/><path class="cls-1" d="M9.94,16.13h3.2v-3.2H9.94Z"/><path class="cls-1" d="M19.54,6.54h3.2V3.34h-3.2Z"/><path class="cls-1" d="M22.74,3.34h-3.2V.14a3.19,3.19,0,0,0,3.19,3.2Z"/><path class="cls-1" d="M19.54,25.72h3.2V22.53h-3.2Z"/><path class="cls-1" d="M19.54,9.73h3.2V6.54h-3.2Z"/><path class="cls-1" d="M19.54,22.53h3.2v-3.2h-3.2Z"/><path class="cls-1" d="M19.54,19.33h3.2v-3.2h-3.2Z"/><path class="cls-1" d="M19.54,16.13h3.2v-3.2h-3.2Z"/><path class="cls-1" d="M19.54,12.93h3.2V9.73h-3.2Z"/><path class="cls-1" d="M9.94,28.92h3.2v-3.2H9.94Z"/><path class="cls-1" d="M19.54,28.92h3.2v-3.2h-3.2Z"/><path class="cls-1" d="M13.14,32.12a3.2,3.2,0,0,1,0-6.4,3.2,3.2,0,0,0,6.4,0,3.2,3.2,0,0,1,0,6.4Z"/><path class="cls-1" d="M9.94,32.12h3.2v-3.2H9.94Z"/><path class="cls-1" d="M151.91,95.61v3.21H148.7a3.21,3.21,0,0,0,3.21-3.21Z"/><path class="cls-1" d="M148.7,121.29h3.21v3.21H148.7Z"/><path class="cls-1" d="M148.7,124.5h3.21v3.21H148.7Z"/><path class="cls-1" d="M161.54,121.29h-3.21v3.21h3.21Z"/><path class="cls-1" d="M148.7,102h3.21v3.21H148.7Z"/><path class="cls-1" d="M161.54,102h-3.21v3.21h3.21Z"/><path class="cls-1" d="M148.7,118.08h3.21v3.21H148.7Z"/><path class="cls-1" d="M161.54,118.08h-3.21v3.21h3.21Z"/><path class="cls-1" d="M148.7,105.24h3.21v3.21H148.7Z"/><path class="cls-1" d="M161.54,105.24h-3.21v3.21h3.21Z"/><path class="cls-1" d="M148.7,114.87h3.21v3.21H148.7Z"/><path class="cls-1" d="M161.54,114.87h-3.21v3.21h3.21Z"/><path class="cls-1" d="M148.7,111.66h3.21v3.21H148.7Z"/><path class="cls-1" d="M161.54,111.66h-3.21v3.21h3.21Z"/><path class="cls-1" d="M148.7,108.45h3.21v3.21H148.7Z"/><path class="cls-1" d="M161.54,108.45h-3.21v3.21h3.21Z"/><path class="cls-1" d="M148.7,98.82h3.21V102H148.7Z"/><path class="cls-1" d="M161.54,98.82h-3.21V102h3.21Z"/><path class="cls-1" d="M158.33,95.61v3.21h3.21a3.21,3.21,0,0,0-3.21-3.21Z"/><path class="cls-1" d="M152.34,108.45a3.19,3.19,0,0,0,2.78,1.61h0v1.61h-3.21v-3.22Z"/><path class="cls-1" d="M157.9,108.45a3.19,3.19,0,0,1-2.78,1.61h0v1.61h3.21v-3.22Z"/><path class="cls-1" d="M152.34,114.87a3.19,3.19,0,0,1,2.78-1.61h0v-1.61h-3.21v3.21Z"/><path class="cls-1" d="M157.9,114.87a3.19,3.19,0,0,0-2.78-1.61h0v-1.61h3.21v3.21Z"/><path class="cls-1" d="M158.33,106.87a3.15,3.15,0,0,1-.43,1.58h.43Z"/><path class="cls-1" d="M158.33,116.45a3.15,3.15,0,0,0-.43-1.58h.43Z"/><path class="cls-1" d="M151.91,106.85a3.2,3.2,0,0,0,.43,1.6h-.43Z"/><path class="cls-1" d="M151.91,116.47a3.22,3.22,0,0,1,.43-1.6h-.43Z"/><path class="cls-1" d="M158.33,124.5h3.21a3.21,3.21,0,0,0-3.21,3.21Z"/><path class="cls-1" d="M166.67,121.7h3.21v3.21h-3.21Z"/><path class="cls-1" d="M166.67,102.43h3.21v3.22h-3.21Z"/><path class="cls-1" d="M166.67,108.86h3.21v3.21h-3.21Z"/><path class="cls-1" d="M166.67,118.49h3.21v3.21h-3.21Z"/><path class="cls-1" d="M166.67,105.65h3.21v3.21h-3.21Z"/><path class="cls-1" d="M166.67,115.28h3.21v3.21h-3.21Z"/><path class="cls-1" d="M166.67,112.07h3.21v3.21h-3.21Z"/><path class="cls-1" d="M176.3,121.7h3.21v3.21H176.3Z"/><path class="cls-1" d="M169.88,128.09v-3.18h-3.21A3.21,3.21,0,0,1,169.88,128.09Z"/><path class="cls-1" d="M179.51,124.91H176.3v3.21A3.21,3.21,0,0,1,179.51,124.91Z"/><path class="cls-1" d="M169.88,128.12V126.5h6.42v1.62Z"/><path class="cls-1" d="M176.3,102.43h3.21v3.22H176.3Z"/><path class="cls-1" d="M176.3,118.49h3.21v3.21H176.3Z"/><path class="cls-1" d="M176.3,105.65h3.21v3.21H176.3Z"/><path class="cls-1" d="M176.3,108.86h3.21v3.21H176.3Z"/><path class="cls-1" d="M176.3,112.07h3.21v3.21H176.3Z"/><path class="cls-1" d="M176.3,115.28h3.21v3.21H176.3Z"/><path class="cls-1" d="M166.67,99.22h3.21v3.21h-3.21Z"/><path class="cls-1" d="M176.3,99.22h3.21v3.21H176.3Z"/><path class="cls-1" d="M169.88,96a3.21,3.21,0,0,0,0,6.42,3.21,3.21,0,1,1,6.42-.16v.16a3.21,3.21,0,0,0,.15-6.42h-6.57Z"/><path class="cls-1" d="M170.31,123.3a3.13,3.13,0,0,1-.43-1.61v1.61Z"/><path class="cls-1" d="M175.87,123.3a3.26,3.26,0,0,0,.43-1.61v1.61Z"/><path class="cls-1" d="M173.09,124.91h0a3.22,3.22,0,0,0,2.78-1.62h.43v3.21h-3.21Z"/><path class="cls-1" d="M170.31,123.3a3.19,3.19,0,0,0,2.78,1.61h0v1.61h-3.21V123.3Z"/><path class="cls-1" d="M120.91,101.83h3.2V98.64h-3.2Z"/><path class="cls-1" d="M120.91,121h3.2v-3.19h-3.2Z"/><path class="cls-1" d="M120.91,114.63h3.2v-3.2h-3.2Z"/><path class="cls-1" d="M120.91,105h3.2v-3.2h-3.2Z"/><path class="cls-1" d="M120.91,117.83h3.2v-3.2h-3.2Z"/><path class="cls-1" d="M120.91,108.23h3.2V105h-3.2Z"/><path class="cls-1" d="M120.91,111.43h3.2v-3.2h-3.2Z"/><path class="cls-1" d="M130.51,101.83h3.2V98.64h-3.2Z"/><path class="cls-1" d="M124.11,95.45v3.19h-3.2a3.19,3.19,0,0,0,3.2-3.19Z"/><path class="cls-1" d="M133.71,98.64h-3.2V95.45A3.19,3.19,0,0,0,133.71,98.64Z"/><path class="cls-1" d="M130.51,121h3.2v-3.19h-3.2Z"/><path class="cls-1" d="M130.51,105h3.2v-3.2h-3.2Z"/><path class="cls-1" d="M130.51,117.83h3.2v-3.2h-3.2Z"/><path class="cls-1" d="M130.51,108.23h3.2V105h-3.2Z"/><path class="cls-1" d="M120.91,124.22h3.2V121h-3.2Z"/><path class="cls-1" d="M130.51,124.22h3.2V121h-3.2Z"/><path class="cls-1" d="M124.11,127.42a3.2,3.2,0,1,1,0-6.4,3.2,3.2,0,1,0,6.4,0,3.2,3.2,0,0,1,0,6.4h-6.41Z"/><path class="cls-1" d="M133.71,114.63h-3.2v-.43a3.21,3.21,0,0,0,3.2,0Z"/><path class="cls-1" d="M130.51,101.83h3.2V98.64h-3.2Z"/><path class="cls-1" d="M130.51,114.63h3.2v-3.2h-3.2Z"/><path class="cls-1" d="M130.51,105h3.2v-3.2h-3.2Z"/><path class="cls-1" d="M130.51,108.23h3.2V105h-3.2Z"/><path class="cls-1" d="M130.51,111.43h3.2v-3.2h-3.2Z"/><path class="cls-1" d="M140.1,101.83h3.2V98.64h-3.2Z"/><path class="cls-1" d="M143.3,98.64h-3.2V95.45A3.21,3.21,0,0,0,143.3,98.64Z"/><path class="cls-1" d="M140.1,121h3.2v-3.19h-3.2Z"/><path class="cls-1" d="M140.1,105h3.2v-3.2h-3.2Z"/><path class="cls-1" d="M140.1,117.83h3.2v-3.2h-3.2Z"/><path class="cls-1" d="M140.1,114.63h3.2v-3.2h-3.2Z"/><path class="cls-1" d="M140.1,111.43h3.2v-3.2h-3.2Z"/><path class="cls-1" d="M140.1,108.23h3.2V105h-3.2Z"/><path class="cls-1" d="M130.51,124.22h3.2V121h-3.2Z"/><path class="cls-1" d="M140.1,124.22h3.2V121h-3.2Z"/><path class="cls-1" d="M133.71,127.42a3.2,3.2,0,0,1,0-6.4,3.2,3.2,0,1,0,6.39,0,3.2,3.2,0,1,1,0,6.4h-6.4Z"/><path class="cls-1" d="M130.51,127.42h3.2v-3.2h-3.2Z"/></g></g></g></g></svg>