<svg width="80" height="200" viewBox="0 0 80 200" fill="none" xmlns="http://www.w3.org/2000/svg">
<rect x="30" y="40" width="20" height="20" fill="black"/>
<rect x="30" y="20" width="20" height="20" fill="black"/>
<rect x="30" y="60" width="20" height="20" fill="black"/>
<rect x="30" y="80" width="20" height="20" fill="black"/>
<rect x="30" y="100" width="20" height="20" fill="black"/>
<rect x="30" y="120" width="20" height="20" fill="black"/>
<rect x="30" y="140" width="20" height="20" fill="black"/>
<rect x="30" y="180" width="20" height="20" fill="black"/>
<rect x="30" y="160" width="20" height="20" fill="black"/>
<path fill-rule="evenodd" clip-rule="evenodd" d="M0 20C0 8.95431 8.95431 0 20 0H60C71.0457 0 80 8.95431 80 20H40H0Z" fill="black"/>
<path fill-rule="evenodd" clip-rule="evenodd" d="M50 180V200H70C58.9543 200 50 191.046 50 180Z" fill="black"/>
<path fill-rule="evenodd" clip-rule="evenodd" d="M30 40V20H10C21.0457 20 30 28.9543 30 40Z" fill="black"/>
</svg>
