<svg width="80" height="200" viewBox="0 0 80 200" fill="none" xmlns="http://www.w3.org/2000/svg">
<path fill-rule="evenodd" clip-rule="evenodd" d="M60 0V20V40V60V80V100V120V129C60 137.583 54.5933 144.903 47 147.741V172.5C47 176.642 43.6421 180 39.5 180C35.3579 180 32 176.642 32 172.5V147.336C24.9364 144.25 20 137.201 20 129V120V100V80V60V40V20V0C8.95431 0 0 8.95431 0 20V40V60V80V100V120V140V160V180C11.0457 180 20 188.954 20 200H60C60 188.954 68.9543 180 80 180V160V140V120V100V80V60V40V20C80 8.95431 71.0457 0 60 0Z" fill="black"/>
</svg>
