<svg width="80" height="200" viewBox="0 0 80 200" fill="none" xmlns="http://www.w3.org/2000/svg">
<path fill-rule="evenodd" clip-rule="evenodd" d="M20 0V20H0C11.0457 20 20 11.0457 20 0Z" fill="black"/>
<path fill-rule="evenodd" clip-rule="evenodd" d="M60 0V20H80C68.9543 20 60 11.0457 60 0Z" fill="black"/>
<rect y="160" width="20" height="20" fill="black"/>
<rect y="180" width="20" height="20" fill="black"/>
<rect width="20" height="20" transform="matrix(-1 0 0 1 80 160)" fill="black"/>
<rect width="20" height="20" transform="matrix(-1 0 0 1 80 180)" fill="black"/>
<rect y="40" width="20" height="20" fill="black"/>
<rect width="20" height="20" transform="matrix(-1 0 0 1 80 40)" fill="black"/>
<rect y="140" width="20" height="20" fill="black"/>
<rect width="20" height="20" transform="matrix(-1 0 0 1 80 140)" fill="black"/>
<rect y="60" width="20" height="20" fill="black"/>
<rect width="20" height="20" transform="matrix(-1 0 0 1 80 60)" fill="black"/>
<rect y="120" width="20" height="20" fill="black"/>
<rect width="20" height="20" transform="matrix(-1 0 0 1 80 120)" fill="black"/>
<rect y="20" width="20" height="20" fill="black"/>
<rect width="20" height="20" transform="matrix(-1 0 0 1 80 20)" fill="black"/>
<path fill-rule="evenodd" clip-rule="evenodd" d="M22.6756 80C26.1337 85.978 32.5972 90 40 90V100H20V80H22.6756Z" fill="black"/>
<path fill-rule="evenodd" clip-rule="evenodd" d="M57.3244 80C53.8663 85.978 47.4028 90 40 90V100H60V80H57.3244Z" fill="black"/>
<path fill-rule="evenodd" clip-rule="evenodd" d="M22.6756 120C26.1337 114.022 32.5972 110 40 110V100H20V120H22.6756Z" fill="black"/>
<path fill-rule="evenodd" clip-rule="evenodd" d="M57.3244 120C53.8663 114.022 47.4028 110 40 110V100H60V120H57.3244Z" fill="black"/>
<path fill-rule="evenodd" clip-rule="evenodd" d="M57.3244 80H60V70C60 73.6429 59.0261 77.0583 57.3244 80Z" fill="black"/>
<path fill-rule="evenodd" clip-rule="evenodd" d="M57.3244 120H60V130C60 126.357 59.0261 122.942 57.3244 120Z" fill="black"/>
<path fill-rule="evenodd" clip-rule="evenodd" d="M22.6756 80H20V70C20 73.6429 20.9739 77.0583 22.6756 80Z" fill="black"/>
<path fill-rule="evenodd" clip-rule="evenodd" d="M22.6756 120H20V130C20 126.357 20.9739 122.942 22.6756 120Z" fill="black"/>
<path fill-rule="evenodd" clip-rule="evenodd" d="M80 80H60V100V120H80C68.9543 120 60 111.046 60 100C60 88.9543 68.9543 80 80 80Z" fill="black"/>
<path fill-rule="evenodd" clip-rule="evenodd" d="M0 120H20V100V80H0C11.0457 80 20 88.9543 20 100C20 111.046 11.0457 120 0 120Z" fill="black"/>
</svg>
