<?xml version="1.0" encoding="utf-8"?>
<!-- Generator: Adobe Illustrator 25.2.1, SVG Export Plug-In . SVG Version: 6.00 Build 0)  -->
<svg version="1.1" id="Layer_1" xmlns="http://www.w3.org/2000/svg" xmlns:xlink="http://www.w3.org/1999/xlink" x="0px" y="0px"
	 viewBox="0 0 100 124.6" style="enable-background:new 0 0 100 124.6;" xml:space="preserve">
<style type="text/css">
	.st0{fill:#7DF9FF;}
</style>
<g>
	<path class="st0" d="M95.3,29.7c2.8-3.2,4.4-7.3,4.4-11.7c0-9.7-7.9-17.6-17.6-17.6c-6.6,0-12.3,3.6-15.3,8.9
		C64.4,7.9,61.6,7,58.6,7c-1.1,0-2.3,0.1-3.4,0.4c-3-4.4-7.9-7-13.3-7c-4.2,0-8,1.6-10.9,4.3C27.8,1.8,23.5,0,18.7,0
		C8.4,0,0,8.4,0,18.7c0,3.9,1.2,7.7,3.4,10.8c-0.8,1.9-1.2,3.9-1.2,5.9c0,5.5,2.9,10.4,7.3,13.2v15.3c0,1.1,0.9,2,2,2h43.1
		c1.1,0,2-0.9,2-2V47.9c0-0.6-0.3-1.2-0.8-1.6l-10.8-8c0.9-1.1,1.7-2.4,2.2-3.8c3,3,7,4.7,11.3,4.7c0.6,0,1.2-0.1,1.8-0.1v20.2
		c0,0.8,0.5,1.5,1.2,1.8c0.2,0.1,0.5,0.2,0.8,0.2c0.5,0,1-0.2,1.4-0.6l12-12c0.2-0.2,0.3-0.4,0.4-0.6c1.2,1.5,2.7,2.7,4.4,3.6
		L67,65.3c-0.4,0.4-0.6,0.9-0.6,1.4v31c0,1.1,0.9,2,2,2s2-0.9,2-2V67.6l14.2-14.2c0.1-0.1,0.1-0.2,0.2-0.2c0.6,0.1,1.2,0.1,1.9,0.1
		c7.4,0,13.4-6,13.4-13.4C100,35.9,98.2,32.2,95.3,29.7z M29.6,61.1v-9.3h6.7v9.3H29.6z M52.7,62H40.3V49.9c0-1.1-0.9-2-2-2H27.6
		c-1.1,0-2,0.9-2,2V62H13.5V48.9l19.6-14.6l19.6,14.6L52.7,62L52.7,62z M34.3,30.2c-0.7-0.5-1.7-0.5-2.4,0l-20.2,15
		c-3.3-2-5.5-5.6-5.5-9.8c0-1.8,0.4-3.6,1.3-5.3c0.4-0.7,0.3-1.6-0.2-2.2C5.1,25.4,4,22.2,4,18.7C4,10.6,10.6,4,18.7,4
		c7.8,0,14.3,6.1,14.7,13.9c0.1,1,0.8,1.8,1.8,1.9c5.1,0.5,8.9,4.7,8.9,9.8c0,2.4-0.9,4.6-2.3,6.3L34.3,30.2z M48.2,29.2
		c-0.2-6.4-4.7-11.8-10.9-13.1c-0.4-3.2-1.7-6.1-3.5-8.5c2.2-2,5-3.2,8.2-3.2c4.4,0,8.5,2.4,10.6,6.3c0.5,0.8,1.4,1.2,2.3,0.9
		c1.2-0.4,2.4-0.6,3.7-0.6c2.4,0,4.7,0.7,6.6,2c-0.5,1.6-0.7,3.3-0.7,5c0,2.9,0.7,5.8,2.1,8.3c-3.2,1.8-5.4,5-5.9,8.7
		c-0.7,0.1-1.4,0.2-2.1,0.2C54.3,35.2,50.3,32.9,48.2,29.2z M64.4,45.3c1.7,1.6,3.8,2.6,6.2,3l-6.2,6.2V45.3z M86.6,49.3
		c-3.4,0-6.5-1.8-8.2-4.8c-0.4-0.6-1-1-1.7-1c-0.3,0-0.6,0.1-0.9,0.2c-1.1,0.5-2.3,0.8-3.4,0.8c-4.3,0-7.9-3.5-7.9-7.9
		c0-3.5,2.2-6.5,5.6-7.5c0.6-0.2,1.1-0.7,1.3-1.3c0.2-0.6,0.1-1.3-0.3-1.8c-1.7-2.4-2.7-5.2-2.7-8.1c0-7.5,6.1-13.6,13.6-13.6
		S95.7,10.5,95.7,18c0,4-1.8,7.8-4.8,10.4c-0.5,0.4-0.8,1.1-0.7,1.7c0.1,0.6,0.4,1.2,1,1.5c3,1.7,4.8,4.8,4.8,8.2
		C96,45.1,91.8,49.3,86.6,49.3z"/>
	<path class="st0" d="M38,70.1H7.6c-1.1,0-2,0.9-2,2s0.9,2,2,2H36v23.6c0,1.1,0.9,2,2,2s2-0.9,2-2V72.1C40,71,39.1,70.1,38,70.1z"/>
</g>
</svg>
