<svg xmlns="http://www.w3.org/2000/svg" viewBox="0 0 478.62 347.3"><g id="Layer_2" data-name="Layer 2"><g id="Layer_1-2" data-name="Layer 1"><path d="M478.31,11.35a1.47,1.47,0,0,1,.08-.28c0-.09.11-.47.14-.71v-.23a1.67,1.67,0,0,1,.06-.5c.06-.16,0-.2,0-.3V7.83a1.13,1.13,0,0,0-.07-.45c-.07-.15,0-.11,0-.17V7.08a1.85,1.85,0,0,0-.11-.45c0-.15,0-.19-.08-.28a1.58,1.58,0,0,1-.15-.45l-.09-.25c-.08-.21-.17-.41-.27-.62l-.11-.21-.26-.49-.15-.24-.25-.38-.18-.24-.27-.34-.21-.24-.29-.31-.24-.23-.17-.17-.07-.06a8.07,8.07,0,0,0-1-.74l-.18-.11a9.37,9.37,0,0,0-1.08-.58l-.21,0A8.53,8.53,0,0,0,472,.22h0A8.33,8.33,0,0,0,470.72,0h-434A36.79,36.79,0,0,0,10.81,62.84l83.53,82.72a36.75,36.75,0,0,0,39.61,8L349,67.15l-175.9,99.91a36.79,36.79,0,0,0-6.68,59.11L288,337.64a36.79,36.79,0,0,0,58.77-12.88L478,12.4a1,1,0,0,1,.12-.32l.12-.31C478.23,11.66,478.25,11.49,478.31,11.35ZM127.25,136.86A18.77,18.77,0,0,1,107,132.78L23.47,50.05A18.79,18.79,0,0,1,36.69,17.91H423.13Zm203,181a18.8,18.8,0,0,1-30,6.58L178.48,212.91a18.79,18.79,0,0,1-1.16-26.55,19.13,19.13,0,0,1,4.57-3.64L451.13,29.79Z"/></g></g></svg>