<svg xmlns="http://www.w3.org/2000/svg" viewBox="0 0 128 64.6"><g id="Layer_2" data-name="Layer 2"><g id="Layer_1-2" data-name="Layer 1"><circle cx="53.4" cy="0.6" r="0.6"/><circle cx="51.1" cy="0.6" r="0.6"/><circle cx="62.8" cy="5.3" r="0.6"/><circle cx="52.3" cy="1.8" r="0.6"/><circle cx="49.9" cy="1.8" r="0.6"/><circle cx="51.1" cy="5.3" r="0.6"/><circle cx="49.9" cy="6.5" r="0.6"/><circle cx="49.9" cy="4.1" r="0.6"/><circle cx="64" cy="4.1" r="0.6"/><circle cx="65.2" cy="5.3" r="0.6"/><circle cx="51.1" cy="3" r="0.6"/><circle cx="46.4" cy="0.6" r="0.6"/><circle cx="45.2" cy="1.8" r="0.6"/><circle cx="46.4" cy="5.3" r="0.6"/><circle cx="45.2" cy="6.5" r="0.6"/><circle cx="45.2" cy="4.1" r="0.6"/><circle cx="47.6" cy="1.8" r="0.6"/><circle cx="47.6" cy="6.5" r="0.6"/><circle cx="47.6" cy="4.1" r="0.6"/><circle cx="46.4" cy="3" r="0.6"/><circle cx="48.7" cy="0.6" r="0.6"/><path d="M65.2,7.1a.65.65,0,0,0-.6.6.65.65,0,0,0,.6.6.82.82,0,0,0,.6-.4V7.7A.58.58,0,0,0,65.2,7.1Z"/><circle cx="62.8" cy="7.7" r="0.6"/><circle cx="64" cy="6.5" r="0.6"/><circle cx="60.5" cy="7.7" r="0.6"/><circle cx="61.7" cy="6.5" r="0.6"/><circle cx="48.7" cy="5.3" r="0.6"/><circle cx="48.7" cy="3" r="0.6"/><circle cx="44" cy="0.6" r="0.6"/><circle cx="42.9" cy="1.8" r="0.6"/><circle cx="44" cy="7.7" r="0.6"/><circle cx="44" cy="5.3" r="0.6"/><circle cx="42.9" cy="6.5" r="0.6"/><circle cx="42.9" cy="4.1" r="0.6"/><circle cx="44" cy="3" r="0.6"/><circle cx="40.5" cy="1.8" r="0.6"/><circle cx="40.5" cy="6.5" r="0.6"/><circle cx="39.3" cy="3" r="0.6"/><circle cx="41.7" cy="0.6" r="0.6"/><circle cx="41.7" cy="7.7" r="0.6"/><circle cx="41.7" cy="5.3" r="0.6"/><circle cx="41.7" cy="3" r="0.6"/><circle cx="38.2" cy="1.8" r="0.6"/><circle cx="38.2" cy="6.5" r="0.6"/><circle cx="34.6" cy="7.7" r="0.6"/><circle cx="34.6" cy="5.3" r="0.6"/><circle cx="35.8" cy="6.5" r="0.6"/><circle cx="35.8" cy="4.1" r="0.6"/><circle cx="34.6" cy="3" r="0.6"/><circle cx="37" cy="7.7" r="0.6"/><circle cx="37" cy="5.3" r="0.6"/><circle cx="33.5" cy="4.1" r="0.6"/><path d="M22.9,7.1a.65.65,0,0,0-.6.6.65.65,0,0,0,.6.6.82.82,0,0,0,.6-.4V7.7A.58.58,0,0,0,22.9,7.1Z"/><circle cx="20.6" cy="7.7" r="0.6"/><circle cx="22.9" cy="5.3" r="0.6"/><circle cx="25.2" cy="5.3" r="0.6"/><circle cx="27.6" cy="5.3" r="0.6"/><circle cx="29.9" cy="5.3" r="0.6"/><circle cx="20.6" cy="5.3" r="0.6"/><circle cx="21.7" cy="6.5" r="0.6"/><circle cx="18.2" cy="7.7" r="0.6"/><circle cx="18.2" cy="5.3" r="0.6"/><circle cx="17" cy="6.5" r="0.6"/><circle cx="19.4" cy="6.5" r="0.6"/><circle cx="28.8" cy="4.1" r="0.6"/><circle cx="31.1" cy="4.1" r="0.6"/><circle cx="32.3" cy="5.3" r="0.6"/><circle cx="32.3" cy="3" r="0.6"/><circle cx="13.5" cy="7.7" r="0.6"/><circle cx="13.5" cy="5.3" r="0.6"/><circle cx="12.3" cy="6.5" r="0.6"/><circle cx="12.3" cy="4.1" r="0.6"/><circle cx="14.7" cy="6.5" r="0.6"/><circle cx="15.9" cy="7.7" r="0.6"/><circle cx="29.9" cy="7.7" r="0.6"/><circle cx="31.1" cy="6.5" r="0.6"/><circle cx="27.6" cy="7.7" r="0.6"/><circle cx="26.4" cy="6.5" r="0.6"/><circle cx="28.8" cy="6.5" r="0.6"/><circle cx="24.1" cy="6.5" r="0.6"/><circle cx="25.2" cy="7.7" r="0.6"/><circle cx="15.9" cy="5.3" r="0.6"/><circle cx="11.2" cy="7.7" r="0.6"/><circle cx="11.2" cy="5.3" r="0.6"/><circle cx="10" cy="6.5" r="0.6"/><circle cx="10" cy="4.1" r="0.6"/><circle cx="6.5" cy="7.7" r="0.6"/><circle cx="6.5" cy="5.3" r="0.6"/><circle cx="7.6" cy="6.5" r="0.6"/><circle cx="8.8" cy="7.7" r="0.6"/><circle cx="8.8" cy="5.3" r="0.6"/><circle cx="5.3" cy="6.5" r="0.6"/><circle cx="4.1" cy="7.7" r="0.6"/><circle cx="65.2" cy="38.2" r="0.6"/><circle cx="64" cy="39.4" r="0.6"/><circle cx="64" cy="37" r="0.6"/><path d="M65.8,45.1a.61.61,0,0,0-1.2,0v.1a.65.65,0,0,0,.6.6.82.82,0,0,0,.6-.4v-.3Z"/><path d="M62.8,45.8a.65.65,0,0,0,.6-.6v-.1a.61.61,0,0,0-1.2,0v.1A.58.58,0,0,0,62.8,45.8Z"/><circle cx="65.2" cy="42.9" r="0.6"/><circle cx="64" cy="44.1" r="0.6"/><circle cx="64" cy="41.7" r="0.6"/><circle cx="65.2" cy="47.6" r="0.6"/><circle cx="64" cy="48.8" r="0.6"/><circle cx="64" cy="46.4" r="0.6"/><path d="M65.2,54a.6.6,0,1,0,0,1.2.82.82,0,0,0,.6-.4v-.2A.65.65,0,0,0,65.2,54Z"/><circle cx="65.2" cy="52.3" r="0.6"/><circle cx="64" cy="53.5" r="0.6"/><circle cx="64" cy="51.1" r="0.6"/><circle cx="62.8" cy="38.2" r="0.6"/><circle cx="60.5" cy="38.2" r="0.6"/><circle cx="61.7" cy="39.4" r="0.6"/><circle cx="61.7" cy="37" r="0.6"/><circle cx="62.8" cy="42.9" r="0.6"/><circle cx="61.7" cy="44.1" r="0.6"/><circle cx="62.8" cy="47.6" r="0.6"/><circle cx="61.7" cy="46.4" r="0.6"/><circle cx="35.8" cy="53.5" r="0.6"/><circle cx="33.5" cy="53.5" r="0.6"/><circle cx="40.5" cy="46.4" r="0.6"/><path d="M37.6,45.1a.61.61,0,0,0-1.2,0v.1a.65.65,0,0,0,.6.6.82.82,0,0,0,.6-.4v-.3Z"/><path d="M35.2,45.1a.61.61,0,0,0-1.2,0v.1a.65.65,0,0,0,.6.6.82.82,0,0,0,.6-.4v-.3Z"/><circle cx="37" cy="47.6" r="0.6"/><circle cx="34.6" cy="47.6" r="0.6"/><circle cx="35.8" cy="46.4" r="0.6"/><circle cx="38.2" cy="46.4" r="0.6"/><circle cx="33.5" cy="46.4" r="0.6"/><path d="M41.7,41.1a.65.65,0,0,0,.6-.6v-.1a.56.56,0,0,0-.6-.5.63.63,0,0,0-.6.5v.1A.58.58,0,0,0,41.7,41.1Z"/><circle cx="40.5" cy="39.4" r="0.6"/><circle cx="41.7" cy="42.9" r="0.6"/><circle cx="40.5" cy="44.1" r="0.6"/><path d="M39.3,45.8a.65.65,0,0,0,.6-.6v-.1a.61.61,0,0,0-1.2,0v.1A.58.58,0,0,0,39.3,45.8Z"/><path d="M39.3,47a.63.63,0,0,0-.6.5v.1a.6.6,0,1,0,1.2,0v-.1A.56.56,0,0,0,39.3,47Z"/><circle cx="37" cy="49.9" r="0.6"/><circle cx="34.6" cy="49.9" r="0.6"/><circle cx="35.8" cy="48.8" r="0.6"/><circle cx="38.2" cy="48.8" r="0.6"/><circle cx="33.5" cy="48.8" r="0.6"/><circle cx="37" cy="52.3" r="0.6"/><circle cx="34.6" cy="52.3" r="0.6"/><circle cx="35.8" cy="51.1" r="0.6"/><circle cx="33.5" cy="51.1" r="0.6"/><circle cx="39.3" cy="42.9" r="0.6"/><circle cx="38.2" cy="44.1" r="0.6"/><circle cx="35.8" cy="44.1" r="0.6"/><circle cx="33.5" cy="44.1" r="0.6"/><circle cx="40.5" cy="41.7" r="0.6"/><circle cx="42.9" cy="41.7" r="0.6"/><path d="M37.6,40.4a.61.61,0,0,0-1.2,0v.1a.65.65,0,0,0,.6.6.82.82,0,0,0,.6-.4v-.3Z"/><circle cx="37" cy="38.2" r="0.6"/><circle cx="35.8" cy="39.4" r="0.6"/><circle cx="38.2" cy="39.4" r="0.6"/><circle cx="35.8" cy="37" r="0.6"/><circle cx="37" cy="42.9" r="0.6"/><circle cx="35.8" cy="41.7" r="0.6"/><circle cx="33.5" cy="41.7" r="0.6"/><circle cx="38.2" cy="41.7" r="0.6"/><path d="M34,40.5a.6.6,0,0,0,1.2,0v-.1a.61.61,0,0,0-1.2,0Z"/><circle cx="34.6" cy="38.2" r="0.6"/><circle cx="33.5" cy="39.4" r="0.6"/><circle cx="33.5" cy="37" r="0.6"/><circle cx="34.6" cy="42.9" r="0.6"/><circle cx="65.2" cy="49.9" r="0.6"/><circle cx="62.8" cy="49.9" r="0.6"/><path d="M39.9,40.4a.61.61,0,0,0-1.2,0v.1a.6.6,0,1,0,1.2,0Z"/><circle cx="34.6" cy="54.6" r="0.6"/><circle cx="34.6" cy="64" r="0.6"/><circle cx="33.5" cy="55.8" r="0.6"/><circle cx="33.5" cy="62.8" r="0.6"/><circle cx="65.2" cy="40.5" r="0.6"/><circle cx="62.8" cy="40.5" r="0.6"/><circle cx="65.2" cy="10" r="0.6"/><circle cx="64" cy="11.2" r="0.6"/><circle cx="64" cy="8.8" r="0.6"/><path d="M64.6,17a.65.65,0,0,0,.6.6.82.82,0,0,0,.6-.4v-.3a.61.61,0,0,0-1.2,0Z"/><circle cx="65.2" cy="14.7" r="0.6"/><circle cx="64" cy="15.9" r="0.6"/><circle cx="64" cy="13.5" r="0.6"/><circle cx="65.2" cy="19.4" r="0.6"/><path d="M65.2,27a.82.82,0,0,0,.6-.4v-.2a.6.6,0,1,0-1.2,0A.58.58,0,0,0,65.2,27Z"/><circle cx="62.8" cy="26.4" r="0.6"/><circle cx="65.2" cy="24.1" r="0.6"/><circle cx="62.8" cy="24.1" r="0.6"/><circle cx="64" cy="25.3" r="0.6"/><circle cx="64" cy="22.9" r="0.6"/><circle cx="62.8" cy="10" r="0.6"/><circle cx="60.5" cy="10" r="0.6"/><circle cx="61.7" cy="11.2" r="0.6"/><circle cx="59.3" cy="8.8" r="0.6"/><circle cx="61.7" cy="8.8" r="0.6"/><path d="M60.5,16.5a.63.63,0,0,0-.6.5v.1a.6.6,0,1,0,1.2,0V17A.63.63,0,0,0,60.5,16.5Z"/><circle cx="62.8" cy="14.7" r="0.6"/><circle cx="60.5" cy="14.7" r="0.6"/><circle cx="59.3" cy="15.9" r="0.6"/><circle cx="61.7" cy="15.9" r="0.6"/><circle cx="59.3" cy="13.5" r="0.6"/><circle cx="61.7" cy="13.5" r="0.6"/><circle cx="62.8" cy="19.4" r="0.6"/><circle cx="59.3" cy="20.6" r="0.6"/><circle cx="61.7" cy="18.2" r="0.6"/><circle cx="60.5" cy="26.4" r="0.6"/><circle cx="60.5" cy="24.1" r="0.6"/><circle cx="59.3" cy="25.3" r="0.6"/><circle cx="61.7" cy="25.3" r="0.6"/><circle cx="59.3" cy="22.9" r="0.6"/><circle cx="61.7" cy="22.9" r="0.6"/><circle cx="59.3" cy="27.6" r="0.6"/><circle cx="61.7" cy="27.6" r="0.6"/><circle cx="64" cy="27.6" r="0.6"/><path d="M55.8,11.8a.63.63,0,0,0-.6.5v.1a.65.65,0,0,0,.6.6.82.82,0,0,0,.6-.4v-.3A.63.63,0,0,0,55.8,11.8Z"/><circle cx="55.8" cy="10" r="0.6"/><circle cx="54.6" cy="11.2" r="0.6"/><circle cx="57" cy="11.2" r="0.6"/><path d="M55.2,17a.65.65,0,0,0,.6.6.82.82,0,0,0,.6-.4v-.3a.61.61,0,0,0-1.2,0Z"/><circle cx="57" cy="15.9" r="0.6"/><circle cx="54.6" cy="15.9" r="0.6"/><circle cx="54.6" cy="13.5" r="0.6"/><circle cx="54.6" cy="20.6" r="0.6"/><circle cx="57" cy="20.6" r="0.6"/><circle cx="54.6" cy="18.2" r="0.6"/><circle cx="57" cy="18.2" r="0.6"/><path d="M55.8,25.9a.6.6,0,0,0,0,1.2.82.82,0,0,0,.6-.4v-.2A.58.58,0,0,0,55.8,25.9Z"/><circle cx="53.4" cy="26.4" r="0.6"/><circle cx="55.8" cy="24.1" r="0.6"/><circle cx="53.4" cy="24.1" r="0.6"/><circle cx="54.6" cy="25.3" r="0.6"/><circle cx="57" cy="25.3" r="0.6"/><circle cx="54.6" cy="22.9" r="0.6"/><circle cx="57" cy="22.9" r="0.6"/><circle cx="55.8" cy="28.8" r="0.6"/><circle cx="53.4" cy="28.8" r="0.6"/><circle cx="51.1" cy="28.8" r="0.6"/><circle cx="54.6" cy="30" r="0.6"/><circle cx="57" cy="30" r="0.6"/><circle cx="59.3" cy="30" r="0.6"/><circle cx="54.6" cy="27.6" r="0.6"/><circle cx="57" cy="27.6" r="0.6"/><path d="M55.8,35.3a.6.6,0,0,0,0,1.2.82.82,0,0,0,.6-.4v-.2A.58.58,0,0,0,55.8,35.3Z"/><circle cx="53.4" cy="35.8" r="0.6"/><circle cx="55.8" cy="33.5" r="0.6"/><circle cx="58.1" cy="33.5" r="0.6"/><circle cx="60.5" cy="33.5" r="0.6"/><circle cx="62.8" cy="33.5" r="0.6"/><circle cx="53.4" cy="33.5" r="0.6"/><circle cx="54.6" cy="34.7" r="0.6"/><circle cx="54.6" cy="32.3" r="0.6"/><circle cx="57" cy="32.3" r="0.6"/><circle cx="59.3" cy="32.3" r="0.6"/><path d="M53.4,11.8a.63.63,0,0,0-.6.5v.1a.6.6,0,0,0,1.2,0v-.1A.63.63,0,0,0,53.4,11.8Z"/><path d="M52.9,17a.6.6,0,0,0,1.2,0v-.1a.61.61,0,0,0-1.2,0Z"/><circle cx="51.1" cy="26.4" r="0.6"/><circle cx="51.1" cy="24.1" r="0.6"/><circle cx="52.3" cy="25.3" r="0.6"/><circle cx="52.3" cy="22.9" r="0.6"/><circle cx="52.3" cy="30" r="0.6"/><circle cx="49.9" cy="30" r="0.6"/><circle cx="52.3" cy="27.6" r="0.6"/><circle cx="49.9" cy="27.6" r="0.6"/><circle cx="51.1" cy="33.5" r="0.6"/><circle cx="52.3" cy="34.7" r="0.6"/><circle cx="52.3" cy="32.3" r="0.6"/><circle cx="49.9" cy="32.3" r="0.6"/><circle cx="42.9" cy="8.8" r="0.6"/><circle cx="33.5" cy="15.9" r="0.6"/><path d="M36.4,12.4a.65.65,0,0,0,.6.6.82.82,0,0,0,.6-.4v-.3a.61.61,0,0,0-1.2,0Z"/><circle cx="35.8" cy="11.2" r="0.6"/><circle cx="35.8" cy="8.8" r="0.6"/><circle cx="37" cy="14.7" r="0.6"/><circle cx="35.8" cy="13.5" r="0.6"/><circle cx="33.5" cy="13.5" r="0.6"/><path d="M34,12.4a.6.6,0,1,0,1.2,0v-.1a.61.61,0,0,0-1.2,0Z"/><circle cx="34.6" cy="10" r="0.6"/><circle cx="33.5" cy="11.2" r="0.6"/><circle cx="60.5" cy="21.7" r="0.6"/><circle cx="58.1" cy="21.7" r="0.6"/><circle cx="58.1" cy="31.1" r="0.6"/><circle cx="58.1" cy="28.8" r="0.6"/><circle cx="60.5" cy="28.8" r="0.6"/><circle cx="58.1" cy="26.4" r="0.6"/><circle cx="58.1" cy="24.1" r="0.6"/><circle cx="58.1" cy="17" r="0.6"/><circle cx="58.1" cy="14.7" r="0.6"/><circle cx="58.1" cy="12.4" r="0.6"/><circle cx="55.8" cy="21.7" r="0.6"/><circle cx="53.4" cy="21.7" r="0.6"/><circle cx="55.8" cy="31.1" r="0.6"/><circle cx="61.7" cy="30" r="0.6"/><circle cx="61.7" cy="32.3" r="0.6"/><circle cx="64" cy="30" r="0.6"/><circle cx="64" cy="32.3" r="0.6"/><circle cx="62.8" cy="31.1" r="0.6"/><circle cx="62.8" cy="28.8" r="0.6"/><circle cx="65.2" cy="33.5" r="0.6"/><circle cx="65.2" cy="31.1" r="0.6"/><circle cx="65.2" cy="28.8" r="0.6"/><circle cx="60.5" cy="31.1" r="0.6"/><circle cx="53.4" cy="31.1" r="0.6"/><circle cx="51.1" cy="31.1" r="0.6"/><path d="M65.2,35.3a.6.6,0,1,0,0,1.2.82.82,0,0,0,.6-.4v-.2A.58.58,0,0,0,65.2,35.3Z"/><circle cx="62.8" cy="35.8" r="0.6"/><circle cx="64" cy="34.7" r="0.6"/><circle cx="60.5" cy="35.8" r="0.6"/><circle cx="59.3" cy="34.7" r="0.6"/><circle cx="61.7" cy="34.7" r="0.6"/><circle cx="57" cy="34.7" r="0.6"/><circle cx="34.6" cy="35.8" r="0.6"/><circle cx="33.5" cy="34.7" r="0.6"/><circle cx="65.2" cy="12.4" r="0.6"/><circle cx="62.8" cy="12.4" r="0.6"/><circle cx="60.5" cy="12.4" r="0.6"/><circle cx="32.3" cy="38.2" r="0.6"/><circle cx="31.1" cy="39.4" r="0.6"/><circle cx="31.1" cy="37" r="0.6"/><path d="M32.9,45.1a.61.61,0,0,0-1.2,0v.1a.65.65,0,0,0,.6.6.82.82,0,0,0,.6-.4v-.3Z"/><path d="M29.3,45.2a.6.6,0,1,0,1.2,0v-.1a.61.61,0,0,0-1.2,0Z"/><circle cx="32.3" cy="42.9" r="0.6"/><circle cx="31.1" cy="44.1" r="0.6"/><circle cx="31.1" cy="41.7" r="0.6"/><circle cx="32.3" cy="47.6" r="0.6"/><circle cx="31.1" cy="48.8" r="0.6"/><circle cx="31.1" cy="46.4" r="0.6"/><path d="M32.3,54a.6.6,0,1,0,0,1.2.82.82,0,0,0,.6-.4v-.2A.65.65,0,0,0,32.3,54Z"/><circle cx="29.9" cy="54.6" r="0.6"/><circle cx="32.3" cy="52.3" r="0.6"/><circle cx="29.9" cy="52.3" r="0.6"/><circle cx="31.1" cy="53.5" r="0.6"/><circle cx="31.1" cy="51.1" r="0.6"/><circle cx="29.9" cy="38.2" r="0.6"/><circle cx="27.6" cy="38.2" r="0.6"/><circle cx="26.4" cy="39.4" r="0.6"/><circle cx="28.8" cy="39.4" r="0.6"/><circle cx="26.4" cy="37" r="0.6"/><circle cx="28.8" cy="37" r="0.6"/><path d="M27.6,45.8a.65.65,0,0,0,.6-.6v-.1a.61.61,0,0,0-1.2,0v.1A.58.58,0,0,0,27.6,45.8Z"/><circle cx="29.9" cy="42.9" r="0.6"/><circle cx="27.6" cy="42.9" r="0.6"/><circle cx="26.4" cy="44.1" r="0.6"/><circle cx="28.8" cy="44.1" r="0.6"/><circle cx="26.4" cy="41.7" r="0.6"/><circle cx="28.8" cy="41.7" r="0.6"/><circle cx="29.9" cy="47.6" r="0.6"/><circle cx="27.6" cy="47.6" r="0.6"/><circle cx="28.8" cy="48.8" r="0.6"/><circle cx="26.4" cy="46.4" r="0.6"/><circle cx="28.8" cy="46.4" r="0.6"/><circle cx="27.6" cy="54.6" r="0.6"/><circle cx="27.6" cy="52.3" r="0.6"/><circle cx="28.8" cy="53.5" r="0.6"/><circle cx="28.8" cy="51.1" r="0.6"/><circle cx="28.8" cy="55.8" r="0.6"/><circle cx="31.1" cy="55.8" r="0.6"/><path d="M23.5,40.4a.61.61,0,0,0-1.2,0v.1a.65.65,0,0,0,.6.6c.2,0,.5-.2.5-.4v-.2C23.5,40.5,23.5,40.5,23.5,40.4Z"/><circle cx="22.9" cy="38.2" r="0.6"/><circle cx="24.1" cy="39.4" r="0.6"/><circle cx="24.1" cy="37" r="0.6"/><circle cx="24.1" cy="44.1" r="0.6"/><circle cx="24.1" cy="41.7" r="0.6"/><circle cx="29.9" cy="61.7" r="0.6"/><circle cx="32.3" cy="49.9" r="0.6"/><circle cx="29.9" cy="49.9" r="0.6"/><circle cx="27.6" cy="49.9" r="0.6"/><circle cx="25.2" cy="45.2" r="0.6"/><circle cx="25.2" cy="42.9" r="0.6"/><circle cx="25.2" cy="40.5" r="0.6"/><circle cx="25.2" cy="38.2" r="0.6"/><circle cx="28.8" cy="58.2" r="0.6"/><circle cx="28.8" cy="60.5" r="0.6"/><circle cx="31.1" cy="58.2" r="0.6"/><circle cx="31.1" cy="60.5" r="0.6"/><circle cx="29.9" cy="59.3" r="0.6"/><circle cx="29.9" cy="57" r="0.6"/><circle cx="32.3" cy="61.7" r="0.6"/><circle cx="32.3" cy="59.3" r="0.6"/><circle cx="32.3" cy="57" r="0.6"/><path d="M32.3,63.4a.6.6,0,0,0,0,1.2.82.82,0,0,0,.6-.4V64A.65.65,0,0,0,32.3,63.4Z"/><circle cx="31.1" cy="62.8" r="0.6"/><circle cx="32.3" cy="40.5" r="0.6"/><circle cx="29.9" cy="40.5" r="0.6"/><circle cx="27.6" cy="40.5" r="0.6"/><circle cx="32.3" cy="10" r="0.6"/><circle cx="31.1" cy="11.2" r="0.6"/><circle cx="31.1" cy="8.8" r="0.6"/><path d="M32.9,16.9a.61.61,0,0,0-1.2,0V17a.65.65,0,0,0,.6.6.82.82,0,0,0,.6-.4v-.3Z"/><path d="M29.3,17a.6.6,0,1,0,1.2,0v-.1a.61.61,0,0,0-1.2,0Z"/><circle cx="32.3" cy="14.7" r="0.6"/><circle cx="31.1" cy="15.9" r="0.6"/><circle cx="31.1" cy="13.5" r="0.6"/><circle cx="26.4" cy="11.2" r="0.6"/><circle cx="26.4" cy="8.8" r="0.6"/><path d="M27.6,16.5a.63.63,0,0,0-.6.5v.1a.6.6,0,0,0,1.2,0V17A.63.63,0,0,0,27.6,16.5Z"/><circle cx="29.9" cy="14.7" r="0.6"/><circle cx="27.6" cy="14.7" r="0.6"/><circle cx="26.4" cy="15.9" r="0.6"/><circle cx="28.8" cy="15.9" r="0.6"/><circle cx="26.4" cy="13.5" r="0.6"/><circle cx="28.8" cy="13.5" r="0.6"/><circle cx="27.6" cy="19.4" r="0.6"/><circle cx="26.4" cy="20.6" r="0.6"/><circle cx="26.4" cy="18.2" r="0.6"/><circle cx="28.8" cy="18.2" r="0.6"/><path d="M22.9,11.8a.63.63,0,0,0-.6.5v.1a.65.65,0,0,0,.6.6c.2,0,.5-.2.5-.4v-.3A.47.47,0,0,0,22.9,11.8Z"/><circle cx="22.9" cy="10" r="0.6"/><circle cx="21.7" cy="11.2" r="0.6"/><circle cx="24.1" cy="11.2" r="0.6"/><circle cx="21.7" cy="8.8" r="0.6"/><circle cx="24.1" cy="8.8" r="0.6"/><path d="M22.3,17a.65.65,0,0,0,.6.6c.2,0,.5-.2.5-.4v-.3a.61.61,0,0,0-1.2,0Z"/><circle cx="22.9" cy="14.7" r="0.6"/><circle cx="21.7" cy="15.9" r="0.6"/><circle cx="24.1" cy="15.9" r="0.6"/><circle cx="21.7" cy="13.5" r="0.6"/><circle cx="24.1" cy="13.5" r="0.6"/><circle cx="22.9" cy="19.4" r="0.6"/><circle cx="20.6" cy="19.4" r="0.6"/><circle cx="21.7" cy="20.6" r="0.6"/><circle cx="24.1" cy="20.6" r="0.6"/><circle cx="21.7" cy="18.2" r="0.6"/><circle cx="24.1" cy="18.2" r="0.6"/><circle cx="22.9" cy="24.1" r="0.6"/><circle cx="24.1" cy="25.3" r="0.6"/><circle cx="21.7" cy="22.9" r="0.6"/><circle cx="24.1" cy="22.9" r="0.6"/><circle cx="20.6" cy="28.8" r="0.6"/><circle cx="18.2" cy="28.8" r="0.6"/><circle cx="21.7" cy="30" r="0.6"/><circle cx="22.9" cy="33.5" r="0.6"/><circle cx="25.2" cy="33.5" r="0.6"/><circle cx="27.6" cy="33.5" r="0.6"/><circle cx="29.9" cy="33.5" r="0.6"/><circle cx="20.6" cy="33.5" r="0.6"/><circle cx="21.7" cy="34.7" r="0.6"/><circle cx="21.7" cy="32.3" r="0.6"/><circle cx="24.1" cy="32.3" r="0.6"/><circle cx="26.4" cy="32.3" r="0.6"/><path d="M20.6,11.8a.63.63,0,0,0-.6.5v.1a.6.6,0,1,0,1.2,0v-.1A.74.74,0,0,0,20.6,11.8Z"/><path d="M18.2,11.8a.63.63,0,0,0-.6.5v.1a.6.6,0,1,0,1.2,0v-.1A.63.63,0,0,0,18.2,11.8Z"/><circle cx="20.6" cy="10" r="0.6"/><circle cx="18.2" cy="10" r="0.6"/><circle cx="17" cy="11.2" r="0.6"/><circle cx="19.4" cy="11.2" r="0.6"/><circle cx="17" cy="8.8" r="0.6"/><circle cx="19.4" cy="8.8" r="0.6"/><path d="M20,17a.6.6,0,1,0,1.2,0v-.1a.61.61,0,0,0-1.2,0Z"/><path d="M18.2,16.5a.63.63,0,0,0-.6.5v.1a.6.6,0,0,0,1.2,0V17A.63.63,0,0,0,18.2,16.5Z"/><circle cx="20.6" cy="14.7" r="0.6"/><circle cx="18.2" cy="14.7" r="0.6"/><circle cx="17" cy="15.9" r="0.6"/><circle cx="19.4" cy="15.9" r="0.6"/><circle cx="17" cy="13.5" r="0.6"/><circle cx="19.4" cy="13.5" r="0.6"/><circle cx="18.2" cy="19.4" r="0.6"/><circle cx="17" cy="20.6" r="0.6"/><circle cx="19.4" cy="20.6" r="0.6"/><circle cx="17" cy="18.2" r="0.6"/><circle cx="19.4" cy="18.2" r="0.6"/><circle cx="18.2" cy="24.1" r="0.6"/><circle cx="17" cy="25.3" r="0.6"/><circle cx="14.7" cy="25.3" r="0.6"/><circle cx="12.3" cy="25.3" r="0.6"/><circle cx="10" cy="25.3" r="0.6"/><circle cx="17" cy="22.9" r="0.6"/><circle cx="19.4" cy="22.9" r="0.6"/><circle cx="19.4" cy="30" r="0.6"/><circle cx="17" cy="30" r="0.6"/><circle cx="19.4" cy="27.6" r="0.6"/><circle cx="17" cy="27.6" r="0.6"/><circle cx="19.4" cy="32.3" r="0.6"/><path d="M13.5,11.8a.63.63,0,0,0-.6.5v.1a.65.65,0,0,0,.6.6.66.66,0,0,0,.5-.4v-.3A.47.47,0,0,0,13.5,11.8Z"/><circle cx="13.5" cy="10" r="0.6"/><circle cx="12.3" cy="11.2" r="0.6"/><circle cx="14.7" cy="11.2" r="0.6"/><circle cx="12.3" cy="8.8" r="0.6"/><circle cx="14.7" cy="8.8" r="0.6"/><path d="M13.5,17.6a.66.66,0,0,0,.5-.4v-.3a.56.56,0,0,0-.6-.5.63.63,0,0,0-.6.5V17A.73.73,0,0,0,13.5,17.6Z"/><circle cx="13.5" cy="14.7" r="0.6"/><circle cx="12.3" cy="15.9" r="0.6"/><circle cx="14.7" cy="15.9" r="0.6"/><circle cx="12.3" cy="13.5" r="0.6"/><circle cx="14.7" cy="13.5" r="0.6"/><circle cx="13.5" cy="19.4" r="0.6"/><circle cx="13.5" cy="21.7" r="0.6"/><circle cx="13.5" cy="24.1" r="0.6"/><circle cx="14.7" cy="20.6" r="0.6"/><circle cx="14.7" cy="22.9" r="0.6"/><circle cx="12.3" cy="18.2" r="0.6"/><circle cx="14.7" cy="18.2" r="0.6"/><path d="M8.8,16.5a.63.63,0,0,0-.6.5v.1a.65.65,0,0,0,.6.6.82.82,0,0,0,.6-.4V17A.63.63,0,0,0,8.8,16.5Z"/><circle cx="8.8" cy="19.4" r="0.6"/><circle cx="10" cy="18.2" r="0.6"/><path d="M10.6,12.4a.6.6,0,0,0,1.2,0v-.1a.61.61,0,0,0-1.2,0Z"/><circle cx="11.2" cy="10" r="0.6"/><circle cx="7.6" cy="8.8" r="0.6"/><circle cx="10" cy="8.8" r="0.6"/><path d="M10.6,17a.6.6,0,1,0,1.2,0v-.1a.61.61,0,0,0-1.2,0Z"/><path d="M10.6,19.4a.6.6,0,1,0,1.2,0v-.1a.61.61,0,0,0-1.2,0Z"/><circle cx="11.2" cy="14.7" r="0.6"/><circle cx="10" cy="15.9" r="0.6"/><circle cx="12.3" cy="20.6" r="0.6"/><circle cx="8.8" cy="21.7" r="0.6"/><circle cx="10" cy="20.6" r="0.6"/><path d="M10.6,21.7a.6.6,0,1,0,1.2,0v-.1a.61.61,0,0,0-1.2,0Z"/><circle cx="12.3" cy="22.9" r="0.6"/><circle cx="10" cy="22.9" r="0.6"/><path d="M11.2,24.7a.65.65,0,0,0,.6-.6V24a.61.61,0,0,0-1.2,0v.1A.58.58,0,0,0,11.2,24.7Z"/><circle cx="10" cy="13.5" r="0.6"/><circle cx="4.1" cy="10" r="0.6"/><circle cx="2.9" cy="8.8" r="0.6"/><circle cx="5.3" cy="8.8" r="0.6"/><circle cx="1.8" cy="10" r="0.6"/><circle cx="0.6" cy="11.2" r="0.6"/><circle cx="25.2" cy="21.7" r="0.6"/><circle cx="25.2" cy="19.4" r="0.6"/><circle cx="25.2" cy="17" r="0.6"/><circle cx="25.2" cy="14.7" r="0.6"/><circle cx="25.2" cy="12.4" r="0.6"/><circle cx="25.2" cy="10" r="0.6"/><path d="M15.3,12.4a.6.6,0,0,0,1.2,0v-.1a.61.61,0,0,0-1.2,0Z"/><circle cx="15.9" cy="10" r="0.6"/><circle cx="6.5" cy="10" r="0.6"/><path d="M15.8,16.5a.63.63,0,0,0-.6.5v.1a.6.6,0,0,0,1.2,0V17A.56.56,0,0,0,15.8,16.5Z"/><circle cx="15.9" cy="14.7" r="0.6"/><circle cx="15.9" cy="19.4" r="0.6"/><circle cx="15.9" cy="24.1" r="0.6"/><circle cx="15.9" cy="21.7" r="0.6"/><circle cx="22.9" cy="21.7" r="0.6"/><circle cx="20.6" cy="21.7" r="0.6"/><circle cx="18.2" cy="21.7" r="0.6"/><circle cx="15.9" cy="26.4" r="0.6"/><circle cx="28.8" cy="32.3" r="0.6"/><circle cx="31.1" cy="32.3" r="0.6"/><circle cx="20.6" cy="31.1" r="0.6"/><circle cx="18.2" cy="31.1" r="0.6"/><circle cx="13.5" cy="28.8" r="0.6"/><circle cx="13.5" cy="26.4" r="0.6"/><circle cx="12.3" cy="27.6" r="0.6"/><circle cx="14.7" cy="30" r="0.6"/><circle cx="14.7" cy="27.6" r="0.6"/><circle cx="15.9" cy="28.8" r="0.6"/><path d="M32.3,35.3a.6.6,0,1,0,0,1.2.82.82,0,0,0,.6-.4v-.2A.58.58,0,0,0,32.3,35.3Z"/><circle cx="29.9" cy="35.8" r="0.6"/><circle cx="31.1" cy="34.7" r="0.6"/><circle cx="27.6" cy="35.8" r="0.6"/><circle cx="26.4" cy="34.7" r="0.6"/><circle cx="28.8" cy="34.7" r="0.6"/><circle cx="24.1" cy="34.7" r="0.6"/><circle cx="25.2" cy="35.8" r="0.6"/><circle cx="11.2" cy="26.4" r="0.6"/><circle cx="32.3" cy="12.4" r="0.6"/><circle cx="29.9" cy="12.4" r="0.6"/><circle cx="27.6" cy="12.4" r="0.6"/><circle cx="116.8" cy="7.7" r="0.6"/><circle cx="115.7" cy="6.5" r="0.6"/><circle cx="118" cy="6.5" r="0.6"/><circle cx="112.1" cy="7.7" r="0.6"/><circle cx="112.1" cy="5.3" r="0.6"/><circle cx="111" cy="6.5" r="0.6"/><circle cx="113.3" cy="6.5" r="0.6"/><circle cx="114.5" cy="7.7" r="0.6"/><circle cx="114.5" cy="5.3" r="0.6"/><circle cx="109.8" cy="7.7" r="0.6"/><circle cx="109.8" cy="5.3" r="0.6"/><circle cx="108.6" cy="6.5" r="0.6"/><circle cx="105.1" cy="7.7" r="0.6"/><circle cx="105.1" cy="5.3" r="0.6"/><circle cx="106.3" cy="6.5" r="0.6"/><circle cx="106.3" cy="4.1" r="0.6"/><circle cx="107.4" cy="7.7" r="0.6"/><circle cx="107.4" cy="5.3" r="0.6"/><circle cx="103.9" cy="6.5" r="0.6"/><circle cx="103.9" cy="4.1" r="0.6"/><circle cx="100.4" cy="7.7" r="0.6"/><circle cx="100.4" cy="5.3" r="0.6"/><circle cx="101.6" cy="6.5" r="0.6"/><circle cx="101.6" cy="4.1" r="0.6"/><circle cx="102.8" cy="7.7" r="0.6"/><circle cx="102.8" cy="5.3" r="0.6"/><circle cx="99.2" cy="6.5" r="0.6"/><circle cx="99.2" cy="4.1" r="0.6"/><circle cx="87.5" cy="1.8" r="0.6"/><circle cx="89.8" cy="1.8" r="0.6"/><path d="M88.7,7.1a.65.65,0,0,0-.6.6.65.65,0,0,0,.6.6.82.82,0,0,0,.6-.4V7.7Q89.15,7.1,88.7,7.1Z"/><circle cx="86.3" cy="7.7" r="0.6"/><circle cx="88.7" cy="5.3" r="0.6"/><circle cx="91" cy="5.3" r="0.6"/><circle cx="93.4" cy="5.3" r="0.6"/><circle cx="95.7" cy="5.3" r="0.6"/><circle cx="86.3" cy="5.3" r="0.6"/><circle cx="87.5" cy="6.5" r="0.6"/><circle cx="87.5" cy="4.1" r="0.6"/><circle cx="89.8" cy="4.1" r="0.6"/><circle cx="92.2" cy="4.1" r="0.6"/><circle cx="85.1" cy="1.8" r="0.6"/><circle cx="84" cy="7.7" r="0.6"/><circle cx="84" cy="5.3" r="0.6"/><circle cx="82.8" cy="6.5" r="0.6"/><circle cx="85.1" cy="6.5" r="0.6"/><circle cx="85.1" cy="4.1" r="0.6"/><circle cx="82.8" cy="4.1" r="0.6"/><circle cx="91" cy="3" r="0.6"/><circle cx="88.7" cy="3" r="0.6"/><circle cx="94.5" cy="4.1" r="0.6"/><circle cx="96.9" cy="4.1" r="0.6"/><circle cx="98.1" cy="5.3" r="0.6"/><circle cx="93.4" cy="3" r="0.6"/><circle cx="86.3" cy="3" r="0.6"/><circle cx="84" cy="3" r="0.6"/><circle cx="79.3" cy="7.7" r="0.6"/><circle cx="79.3" cy="5.3" r="0.6"/><circle cx="78.1" cy="6.5" r="0.6"/><circle cx="78.1" cy="4.1" r="0.6"/><circle cx="80.4" cy="6.5" r="0.6"/><circle cx="80.4" cy="4.1" r="0.6"/><circle cx="81.6" cy="7.7" r="0.6"/><path d="M98.1,7.1a.65.65,0,0,0-.6.6.65.65,0,0,0,.6.6.82.82,0,0,0,.6-.4V7.7Q98.55,7.1,98.1,7.1Z"/><circle cx="95.7" cy="7.7" r="0.6"/><circle cx="96.9" cy="6.5" r="0.6"/><circle cx="93.4" cy="7.7" r="0.6"/><circle cx="92.2" cy="6.5" r="0.6"/><circle cx="94.5" cy="6.5" r="0.6"/><circle cx="89.8" cy="6.5" r="0.6"/><circle cx="91" cy="7.7" r="0.6"/><circle cx="81.6" cy="5.3" r="0.6"/><circle cx="76.9" cy="7.7" r="0.6"/><circle cx="76.9" cy="5.3" r="0.6"/><circle cx="75.7" cy="6.5" r="0.6"/><circle cx="72.2" cy="7.7" r="0.6"/><circle cx="72.2" cy="5.3" r="0.6"/><circle cx="73.4" cy="6.5" r="0.6"/><circle cx="74.6" cy="7.7" r="0.6"/><circle cx="74.6" cy="5.3" r="0.6"/><circle cx="71" cy="6.5" r="0.6"/><circle cx="67.5" cy="7.7" r="0.6"/><circle cx="67.5" cy="5.3" r="0.6"/><circle cx="68.7" cy="6.5" r="0.6"/><circle cx="69.9" cy="7.7" r="0.6"/><circle cx="69.9" cy="5.3" r="0.6"/><circle cx="66.3" cy="6.5" r="0.6"/><circle cx="66.3" cy="4.1" r="0.6"/><circle cx="126.2" cy="54.6" r="0.6"/><circle cx="125.1" cy="55.8" r="0.6"/><circle cx="127.4" cy="55.8" r="0.6"/><circle cx="120.4" cy="41.7" r="0.6"/><circle cx="119.2" cy="47.6" r="0.6"/><circle cx="119.2" cy="52.3" r="0.6"/><circle cx="120.4" cy="51.1" r="0.6"/><circle cx="122.7" cy="58.2" r="0.6"/><circle cx="125.1" cy="58.2" r="0.6"/><circle cx="120.4" cy="60.5" r="0.6"/><circle cx="122.7" cy="60.5" r="0.6"/><path d="M118.6,40.5a.6.6,0,1,0,1.2,0v-.1a.61.61,0,0,0-1.2,0Z"/><path d="M116.8,41.1a.65.65,0,0,0,.6-.6v-.1a.61.61,0,0,0-1.2,0v.1A.58.58,0,0,0,116.8,41.1Z"/><circle cx="116.8" cy="38.2" r="0.6"/><circle cx="115.7" cy="39.4" r="0.6"/><circle cx="118" cy="39.4" r="0.6"/><path d="M117.4,45.1a.61.61,0,0,0-1.2,0v.1a.6.6,0,1,0,1.2,0Z"/><circle cx="118" cy="41.7" r="0.6"/><circle cx="116.8" cy="47.6" r="0.6"/><circle cx="115.7" cy="48.8" r="0.6"/><circle cx="118" cy="48.8" r="0.6"/><circle cx="115.7" cy="46.4" r="0.6"/><circle cx="118" cy="46.4" r="0.6"/><circle cx="116.8" cy="54.6" r="0.6"/><circle cx="116.8" cy="52.3" r="0.6"/><circle cx="115.7" cy="53.5" r="0.6"/><circle cx="113.3" cy="53.5" r="0.6"/><circle cx="111" cy="53.5" r="0.6"/><circle cx="118" cy="53.5" r="0.6"/><circle cx="108.6" cy="53.5" r="0.6"/><circle cx="103.9" cy="53.5" r="0.6"/><circle cx="106.3" cy="53.5" r="0.6"/><circle cx="115.7" cy="51.1" r="0.6"/><circle cx="118" cy="51.1" r="0.6"/><circle cx="115.7" cy="55.8" r="0.6"/><circle cx="112.1" cy="38.2" r="0.6"/><circle cx="113.3" cy="39.4" r="0.6"/><path d="M112.2,45.8a.82.82,0,0,0,.6-.4v-.3a.61.61,0,0,0-1.2,0v.1A.53.53,0,0,0,112.2,45.8Z"/><circle cx="112.1" cy="42.9" r="0.6"/><circle cx="111" cy="44.1" r="0.6"/><circle cx="113.3" cy="44.1" r="0.6"/><circle cx="112.1" cy="47.6" r="0.6"/><circle cx="112.1" cy="49.9" r="0.6"/><circle cx="112.1" cy="52.3" r="0.6"/><circle cx="113.3" cy="48.8" r="0.6"/><circle cx="113.3" cy="51.1" r="0.6"/><circle cx="111" cy="46.4" r="0.6"/><circle cx="113.3" cy="46.4" r="0.6"/><circle cx="107.4" cy="47.6" r="0.6"/><circle cx="108.6" cy="46.4" r="0.6"/><path d="M108,40.4a.61.61,0,0,0-1.2,0v.1a.6.6,0,1,0,1.2,0Z"/><circle cx="109.8" cy="38.2" r="0.6"/><circle cx="107.4" cy="38.2" r="0.6"/><circle cx="108.6" cy="39.4" r="0.6"/><circle cx="106.3" cy="37" r="0.6"/><circle cx="108.6" cy="37" r="0.6"/><path d="M109.8,45.8a.65.65,0,0,0,.6-.6v-.1a.61.61,0,0,0-1.2,0v.1A.58.58,0,0,0,109.8,45.8Z"/><path d="M109.8,48.2a.65.65,0,0,0,.6-.6v-.1a.61.61,0,0,0-1.2,0v.1A.65.65,0,0,0,109.8,48.2Z"/><path d="M105.1,48.2a.65.65,0,0,0,.6-.6v-.1a.61.61,0,0,0-1.2,0v.1A.65.65,0,0,0,105.1,48.2Z"/><circle cx="111" cy="48.8" r="0.6"/><circle cx="107.4" cy="49.9" r="0.6"/><circle cx="106.3" cy="48.8" r="0.6"/><circle cx="108.6" cy="48.8" r="0.6"/><circle cx="103.9" cy="48.8" r="0.6"/><path d="M109.8,50.5a.65.65,0,0,0,.6-.6v-.1a.61.61,0,0,0-1.2,0v.1A.58.58,0,0,0,109.8,50.5Z"/><path d="M105.7,49.8a.61.61,0,0,0-1.2,0v.1a.6.6,0,0,0,1.2,0Z"/><circle cx="111" cy="51.1" r="0.6"/><circle cx="107.4" cy="52.3" r="0.6"/><circle cx="106.3" cy="51.1" r="0.6"/><circle cx="108.6" cy="51.1" r="0.6"/><circle cx="103.9" cy="51.1" r="0.6"/><path d="M110.4,52.1a.61.61,0,0,0-1.2,0v.1a.6.6,0,0,0,1.2,0Z"/><path d="M105.1,52.9a.65.65,0,0,0,.6-.6v-.1a.61.61,0,0,0-1.2,0v.1A.65.65,0,0,0,105.1,52.9Z"/><circle cx="106.3" cy="41.7" r="0.6"/><path d="M102.8,41.1c.2,0,.5-.2.5-.4v-.3a.61.61,0,0,0-1.2,0v.1A.66.66,0,0,0,102.8,41.1Z"/><circle cx="101.6" cy="39.4" r="0.6"/><circle cx="103.9" cy="39.4" r="0.6"/><circle cx="103.9" cy="37" r="0.6"/><circle cx="101.6" cy="41.7" r="0.6"/><circle cx="103.9" cy="41.7" r="0.6"/><path d="M101,40.4a.61.61,0,0,0-1.2,0v.1a.6.6,0,1,0,1.2,0Z"/><circle cx="100.4" cy="38.2" r="0.6"/><circle cx="99.3" cy="39.4" r="0.6"/><circle cx="99.2" cy="37" r="0.6"/><circle cx="123.9" cy="59.3" r="0.6"/><circle cx="123.9" cy="57" r="0.6"/><circle cx="126.2" cy="57" r="0.6"/><path d="M113.9,40.5a.6.6,0,0,0,1.2,0v-.1a.61.61,0,0,0-1.2,0Z"/><circle cx="114.5" cy="38.2" r="0.6"/><path d="M105.7,40.4a.61.61,0,0,0-1.2,0v.1a.6.6,0,0,0,1.2,0Z"/><circle cx="105.1" cy="38.2" r="0.6"/><path d="M114.5,45.8a.65.65,0,0,0,.6-.6v-.1a.61.61,0,0,0-1.2,0v.1A.58.58,0,0,0,114.5,45.8Z"/><circle cx="114.5" cy="47.6" r="0.6"/><circle cx="114.5" cy="52.3" r="0.6"/><circle cx="114.5" cy="49.9" r="0.6"/><circle cx="119.2" cy="49.9" r="0.6"/><circle cx="116.8" cy="49.9" r="0.6"/><circle cx="114.5" cy="54.6" r="0.6"/><circle cx="121.5" cy="59.3" r="0.6"/><circle cx="112.1" cy="54.6" r="0.6"/><circle cx="113.3" cy="55.8" r="0.6"/><circle cx="114.5" cy="57" r="0.6"/><circle cx="105.1" cy="54.6" r="0.6"/><circle cx="102.8" cy="54.6" r="0.6"/><circle cx="115.7" cy="11.2" r="0.6"/><circle cx="115.7" cy="8.8" r="0.6"/><circle cx="115.7" cy="13.5" r="0.6"/><circle cx="103.9" cy="25.3" r="0.6"/><circle cx="101.6" cy="25.3" r="0.6"/><circle cx="99.2" cy="25.3" r="0.6"/><circle cx="106.3" cy="25.3" r="0.6"/><circle cx="112.1" cy="10" r="0.6"/><circle cx="113.3" cy="11.2" r="0.6"/><circle cx="111" cy="8.8" r="0.6"/><circle cx="113.3" cy="8.8" r="0.6"/><path d="M112.2,16.5a.63.63,0,0,0-.6.5v.1a.65.65,0,0,0,.6.6.82.82,0,0,0,.6-.4V17A.74.74,0,0,0,112.2,16.5Z"/><circle cx="111" cy="15.9" r="0.6"/><circle cx="112.1" cy="19.4" r="0.6"/><circle cx="112.1" cy="21.7" r="0.6"/><circle cx="111" cy="18.2" r="0.6"/><path d="M107.5,16.5a.63.63,0,0,0-.6.5v.1a.65.65,0,0,0,.6.6c.2,0,.5-.2.5-.4V17A.54.54,0,0,0,107.5,16.5Z"/><circle cx="107.4" cy="19.4" r="0.6"/><circle cx="106.3" cy="18.2" r="0.6"/><path d="M102.8,16.5a.63.63,0,0,0-.6.5v.1a.65.65,0,0,0,.6.6c.2,0,.5-.2.5-.4V17A.54.54,0,0,0,102.8,16.5Z"/><path d="M99.8,17a.65.65,0,0,0,.6.6.66.66,0,0,0,.5-.4v-.3a.61.61,0,0,0-1.2,0Z"/><circle cx="102.8" cy="19.4" r="0.6"/><circle cx="100.4" cy="19.4" r="0.6"/><circle cx="101.6" cy="18.2" r="0.6"/><circle cx="99.2" cy="18.2" r="0.6"/><path d="M107.5,11.8a.63.63,0,0,0-.6.5v.1a.6.6,0,1,0,1.2,0v-.1A.74.74,0,0,0,107.5,11.8Z"/><circle cx="107.4" cy="10" r="0.6"/><circle cx="106.3" cy="11.2" r="0.6"/><circle cx="106.3" cy="8.8" r="0.6"/><circle cx="108.6" cy="8.8" r="0.6"/><circle cx="109.8" cy="14.7" r="0.6"/><circle cx="107.4" cy="14.7" r="0.6"/><circle cx="108.6" cy="15.9" r="0.6"/><circle cx="106.3" cy="15.9" r="0.6"/><path d="M104.5,17a.6.6,0,1,0,1.2,0v-.1a.61.61,0,0,0-1.2,0Z"/><circle cx="111" cy="20.6" r="0.6"/><circle cx="108.6" cy="20.6" r="0.6"/><circle cx="102.8" cy="21.7" r="0.6"/><circle cx="100.4" cy="21.7" r="0.6"/><circle cx="101.6" cy="20.6" r="0.6"/><circle cx="103.9" cy="20.6" r="0.6"/><circle cx="99.2" cy="20.6" r="0.6"/><path d="M109.8,21.2a.63.63,0,0,0-.6.5v.1a.6.6,0,0,0,1.2,0v-.1A.63.63,0,0,0,109.8,21.2Z"/><path d="M105.7,21.6a.61.61,0,0,0-1.2,0v.1a.6.6,0,1,0,1.2,0Z"/><circle cx="111" cy="22.9" r="0.6"/><circle cx="106.3" cy="22.9" r="0.6"/><circle cx="102.8" cy="24.1" r="0.6"/><circle cx="100.4" cy="24.1" r="0.6"/><circle cx="101.6" cy="22.9" r="0.6"/><circle cx="103.9" cy="22.9" r="0.6"/><circle cx="99.2" cy="22.9" r="0.6"/><path d="M105.1,24.7a.65.65,0,0,0,.6-.6V24a.61.61,0,0,0-1.2,0v.1A.65.65,0,0,0,105.1,24.7Z"/><circle cx="105.1" cy="14.7" r="0.6"/><circle cx="103.9" cy="15.9" r="0.6"/><circle cx="101.6" cy="15.9" r="0.6"/><circle cx="99.2" cy="15.9" r="0.6"/><circle cx="106.3" cy="13.5" r="0.6"/><circle cx="108.6" cy="13.5" r="0.6"/><path d="M102.8,11.8a.63.63,0,0,0-.6.5v.1a.65.65,0,0,0,.6.6c.2,0,.5-.2.5-.4v-.3A.54.54,0,0,0,102.8,11.8Z"/><circle cx="102.8" cy="10" r="0.6"/><circle cx="101.6" cy="11.2" r="0.6"/><circle cx="103.9" cy="11.2" r="0.6"/><circle cx="101.6" cy="8.8" r="0.6"/><circle cx="103.9" cy="8.8" r="0.6"/><circle cx="102.8" cy="14.7" r="0.6"/><circle cx="101.6" cy="13.5" r="0.6"/><circle cx="99.2" cy="13.5" r="0.6"/><circle cx="103.9" cy="13.5" r="0.6"/><path d="M99.8,12.4a.6.6,0,0,0,1.2,0v-.1a.61.61,0,0,0-1.2,0Z"/><circle cx="100.4" cy="10" r="0.6"/><circle cx="99.2" cy="11.2" r="0.6"/><circle cx="99.2" cy="8.8" r="0.6"/><circle cx="100.4" cy="14.7" r="0.6"/><path d="M113.9,12.4a.6.6,0,1,0,1.2,0v-.1a.61.61,0,0,0-1.2,0Z"/><circle cx="114.5" cy="10" r="0.6"/><path d="M104.5,12.4a.6.6,0,1,0,1.2,0v-.1a.61.61,0,0,0-1.2,0Z"/><circle cx="105.1" cy="10" r="0.6"/><circle cx="108.6" cy="30" r="0.6"/><circle cx="108.6" cy="32.3" r="0.6"/><circle cx="105.1" cy="26.4" r="0.6"/><circle cx="105.1" cy="35.8" r="0.6"/><circle cx="106.3" cy="34.7" r="0.6"/><circle cx="107.4" cy="28.8" r="0.6"/><circle cx="107.4" cy="35.8" r="0.6"/><circle cx="107.4" cy="31.1" r="0.6"/><circle cx="103.9" cy="27.6" r="0.6"/><circle cx="102.8" cy="26.4" r="0.6"/><circle cx="100.4" cy="28.8" r="0.6"/><circle cx="100.4" cy="26.4" r="0.6"/><circle cx="100.4" cy="35.8" r="0.6"/><circle cx="101.6" cy="30" r="0.6"/><circle cx="101.6" cy="27.6" r="0.6"/><circle cx="101.6" cy="32.3" r="0.6"/><circle cx="100.4" cy="31.1" r="0.6"/><circle cx="102.8" cy="31.1" r="0.6"/><circle cx="99.2" cy="30" r="0.6"/><circle cx="99.2" cy="27.6" r="0.6"/><circle cx="99.2" cy="34.7" r="0.6"/><circle cx="99.2" cy="32.3" r="0.6"/><circle cx="68.7" cy="53.5" r="0.6"/><circle cx="66.3" cy="53.5" r="0.6"/><circle cx="78.1" cy="44.1" r="0.6"/><circle cx="78.1" cy="46.4" r="0.6"/><circle cx="74.6" cy="47.6" r="0.6"/><circle cx="75.7" cy="46.4" r="0.6"/><path d="M70.4,45.1a.61.61,0,0,0-1.2,0v.1a.65.65,0,0,0,.6.6.66.66,0,0,0,.5-.4v-.2C70.4,45.2,70.4,45.2,70.4,45.1Z"/><path d="M68.1,45.1a.61.61,0,0,0-1.2,0v.1a.65.65,0,0,0,.6.6.82.82,0,0,0,.6-.4v-.3Z"/><circle cx="69.9" cy="47.6" r="0.6"/><circle cx="67.5" cy="47.6" r="0.6"/><circle cx="68.7" cy="46.4" r="0.6"/><circle cx="71" cy="46.4" r="0.6"/><circle cx="66.3" cy="46.4" r="0.6"/><circle cx="74.6" cy="38.2" r="0.6"/><circle cx="73.4" cy="39.4" r="0.6"/><circle cx="73.4" cy="37" r="0.6"/><circle cx="75.7" cy="37" r="0.6"/><path d="M76.9,45.8a.65.65,0,0,0,.6-.6v-.1a.61.61,0,0,0-1.2,0v.1A.58.58,0,0,0,76.9,45.8Z"/><path d="M76.9,47a.63.63,0,0,0-.6.5v.1a.6.6,0,0,0,1.2,0v-.1A.63.63,0,0,0,76.9,47Z"/><circle cx="76.9" cy="42.9" r="0.6"/><circle cx="73.4" cy="44.1" r="0.6"/><path d="M72.2,44.6a.63.63,0,0,0-.6.5v.1a.6.6,0,0,0,1.2,0v-.1A.63.63,0,0,0,72.2,44.6Z"/><circle cx="74.6" cy="49.9" r="0.6"/><circle cx="75.7" cy="48.8" r="0.6"/><circle cx="69.9" cy="49.9" r="0.6"/><circle cx="67.5" cy="49.9" r="0.6"/><circle cx="68.7" cy="48.8" r="0.6"/><circle cx="71" cy="48.8" r="0.6"/><circle cx="66.3" cy="48.8" r="0.6"/><circle cx="69.9" cy="52.3" r="0.6"/><circle cx="67.5" cy="52.3" r="0.6"/><circle cx="68.7" cy="51.1" r="0.6"/><circle cx="66.3" cy="51.1" r="0.6"/><circle cx="72.2" cy="42.9" r="0.6"/><circle cx="71" cy="44.1" r="0.6"/><circle cx="68.7" cy="44.1" r="0.6"/><circle cx="66.3" cy="44.1" r="0.6"/><circle cx="73.4" cy="41.7" r="0.6"/><path d="M69.9,41.1a.66.66,0,0,0,.5-.4v-.3a.61.61,0,0,0-1.2,0v.1A.66.66,0,0,0,69.9,41.1Z"/><circle cx="69.9" cy="38.2" r="0.6"/><circle cx="68.7" cy="39.4" r="0.6"/><circle cx="71" cy="39.4" r="0.6"/><circle cx="68.7" cy="37" r="0.6"/><circle cx="71" cy="37" r="0.6"/><circle cx="69.9" cy="42.9" r="0.6"/><circle cx="68.7" cy="41.7" r="0.6"/><circle cx="66.3" cy="41.7" r="0.6"/><circle cx="71" cy="41.7" r="0.6"/><path d="M67.5,41.1a.65.65,0,0,0,.6-.6v-.1a.61.61,0,0,0-1.2,0v.1A.58.58,0,0,0,67.5,41.1Z"/><circle cx="67.5" cy="38.2" r="0.6"/><circle cx="66.3" cy="39.4" r="0.6"/><circle cx="66.3" cy="37" r="0.6"/><circle cx="67.5" cy="42.9" r="0.6"/><path d="M72.8,40.4a.61.61,0,0,0-1.2,0v.1a.6.6,0,0,0,1.2,0Z"/><circle cx="72.2" cy="38.2" r="0.6"/><circle cx="98.1" cy="10" r="0.6"/><circle cx="96.9" cy="11.2" r="0.6"/><circle cx="96.9" cy="8.8" r="0.6"/><path d="M98.6,16.9a.61.61,0,0,0-1.2,0V17a.65.65,0,0,0,.6.6.66.66,0,0,0,.5-.4V17C98.6,17,98.6,17,98.6,16.9Z"/><path d="M96.3,16.9a.61.61,0,0,0-1.2,0V17a.6.6,0,0,0,1.2,0Z"/><circle cx="98.1" cy="14.7" r="0.6"/><circle cx="96.9" cy="15.9" r="0.6"/><circle cx="96.9" cy="13.5" r="0.6"/><circle cx="98.1" cy="19.4" r="0.6"/><circle cx="96.9" cy="20.6" r="0.6"/><circle cx="96.9" cy="18.2" r="0.6"/><path d="M98.1,25.9a.6.6,0,0,0,0,1.2.82.82,0,0,0,.6-.4v-.2Q98.55,25.9,98.1,25.9Z"/><circle cx="95.7" cy="26.4" r="0.6"/><circle cx="98.1" cy="24.1" r="0.6"/><circle cx="95.7" cy="24.1" r="0.6"/><circle cx="96.9" cy="25.3" r="0.6"/><circle cx="96.9" cy="22.9" r="0.6"/><circle cx="95.7" cy="10" r="0.6"/><circle cx="93.4" cy="10" r="0.6"/><circle cx="92.2" cy="11.2" r="0.6"/><circle cx="94.5" cy="11.2" r="0.6"/><circle cx="92.2" cy="8.8" r="0.6"/><circle cx="94.5" cy="8.8" r="0.6"/><path d="M93.4,17.6A.65.65,0,0,0,94,17v-.1a.61.61,0,0,0-1.2,0V17A.53.53,0,0,0,93.4,17.6Z"/><circle cx="95.7" cy="14.7" r="0.6"/><circle cx="93.4" cy="14.7" r="0.6"/><circle cx="92.2" cy="15.9" r="0.6"/><circle cx="94.5" cy="15.9" r="0.6"/><circle cx="92.2" cy="13.5" r="0.6"/><circle cx="94.5" cy="13.5" r="0.6"/><circle cx="95.7" cy="19.4" r="0.6"/><circle cx="93.4" cy="19.4" r="0.6"/><circle cx="92.2" cy="20.6" r="0.6"/><circle cx="94.5" cy="20.6" r="0.6"/><circle cx="92.2" cy="18.2" r="0.6"/><circle cx="94.5" cy="18.2" r="0.6"/><circle cx="93.4" cy="26.4" r="0.6"/><circle cx="93.4" cy="24.1" r="0.6"/><circle cx="92.2" cy="25.3" r="0.6"/><circle cx="94.5" cy="25.3" r="0.6"/><circle cx="92.2" cy="22.9" r="0.6"/><circle cx="94.5" cy="22.9" r="0.6"/><circle cx="92.2" cy="27.6" r="0.6"/><circle cx="94.5" cy="27.6" r="0.6"/><circle cx="96.9" cy="27.6" r="0.6"/><path d="M88.7,11.8a.63.63,0,0,0-.6.5v.1a.65.65,0,0,0,.6.6.82.82,0,0,0,.6-.4v-.3A.63.63,0,0,0,88.7,11.8Z"/><circle cx="88.7" cy="10" r="0.6"/><circle cx="87.5" cy="11.2" r="0.6"/><circle cx="89.8" cy="11.2" r="0.6"/><circle cx="87.5" cy="8.8" r="0.6"/><circle cx="89.8" cy="8.8" r="0.6"/><path d="M89.3,16.9a.61.61,0,0,0-1.2,0V17a.65.65,0,0,0,.6.6.82.82,0,0,0,.6-.4v-.3Z"/><circle cx="88.7" cy="14.7" r="0.6"/><circle cx="87.5" cy="15.9" r="0.6"/><circle cx="89.8" cy="15.9" r="0.6"/><circle cx="87.5" cy="13.5" r="0.6"/><circle cx="89.8" cy="13.5" r="0.6"/><circle cx="88.7" cy="19.4" r="0.6"/><circle cx="86.3" cy="19.4" r="0.6"/><circle cx="87.5" cy="20.6" r="0.6"/><circle cx="89.8" cy="20.6" r="0.6"/><circle cx="87.5" cy="18.2" r="0.6"/><circle cx="89.8" cy="18.2" r="0.6"/><path d="M88.7,25.9a.6.6,0,1,0,0,1.2.82.82,0,0,0,.6-.4v-.2Q89.15,25.9,88.7,25.9Z"/><circle cx="86.3" cy="26.4" r="0.6"/><circle cx="88.7" cy="24.1" r="0.6"/><circle cx="86.3" cy="24.1" r="0.6"/><circle cx="87.5" cy="25.3" r="0.6"/><circle cx="89.8" cy="25.3" r="0.6"/><circle cx="87.5" cy="22.9" r="0.6"/><circle cx="89.8" cy="22.9" r="0.6"/><circle cx="88.7" cy="28.8" r="0.6"/><circle cx="87.5" cy="30" r="0.6"/><circle cx="89.8" cy="30" r="0.6"/><circle cx="87.5" cy="27.6" r="0.6"/><circle cx="89.8" cy="27.6" r="0.6"/><circle cx="89.8" cy="32.3" r="0.6"/><path d="M86.3,11.8a.63.63,0,0,0-.6.5v.1a.6.6,0,1,0,1.2,0v-.1A.63.63,0,0,0,86.3,11.8Z"/><path d="M83.4,12.4a.6.6,0,1,0,1.2,0v-.1a.61.61,0,0,0-1.2,0Z"/><circle cx="86.3" cy="10" r="0.6"/><circle cx="84" cy="10" r="0.6"/><circle cx="82.8" cy="11.2" r="0.6"/><circle cx="85.1" cy="11.2" r="0.6"/><circle cx="82.8" cy="8.8" r="0.6"/><circle cx="85.1" cy="8.8" r="0.6"/><path d="M85.7,16.9V17a.6.6,0,1,0,1.2,0v-.1a.63.63,0,0,0-.6-.5A1,1,0,0,0,85.7,16.9Z"/><path d="M84,17.6a.65.65,0,0,0,.6-.6v-.1a.61.61,0,0,0-1.2,0V17A.53.53,0,0,0,84,17.6Z"/><circle cx="86.3" cy="14.7" r="0.6"/><circle cx="84" cy="14.7" r="0.6"/><circle cx="82.8" cy="15.9" r="0.6"/><circle cx="85.1" cy="15.9" r="0.6"/><circle cx="82.8" cy="13.5" r="0.6"/><circle cx="85.1" cy="13.5" r="0.6"/><circle cx="84" cy="19.4" r="0.6"/><circle cx="82.8" cy="20.6" r="0.6"/><circle cx="85.1" cy="20.6" r="0.6"/><circle cx="82.8" cy="18.2" r="0.6"/><circle cx="85.1" cy="18.2" r="0.6"/><circle cx="84" cy="24.1" r="0.6"/><circle cx="82.8" cy="25.3" r="0.6"/><circle cx="85.1" cy="25.3" r="0.6"/><circle cx="75.7" cy="25.3" r="0.6"/><circle cx="68.7" cy="25.3" r="0.6"/><circle cx="66.3" cy="25.3" r="0.6"/><circle cx="73.4" cy="25.3" r="0.6"/><circle cx="82.8" cy="22.9" r="0.6"/><circle cx="85.1" cy="22.9" r="0.6"/><path d="M78.7,12.4a.65.65,0,0,0,.6.6c.2,0,.5-.2.5-.4v-.3a.61.61,0,0,0-1.2,0C78.7,12.3,78.7,12.3,78.7,12.4Z"/><circle cx="79.3" cy="10" r="0.6"/><circle cx="78.1" cy="11.2" r="0.6"/><circle cx="80.4" cy="11.2" r="0.6"/><circle cx="78.1" cy="8.8" r="0.6"/><circle cx="80.4" cy="8.8" r="0.6"/><path d="M79.8,16.9a.61.61,0,0,0-1.2,0V17a.65.65,0,0,0,.6.6c.2,0,.5-.2.5-.4V17C79.8,17,79.8,17,79.8,16.9Z"/><circle cx="79.3" cy="14.7" r="0.6"/><circle cx="78.1" cy="15.9" r="0.6"/><circle cx="80.4" cy="15.9" r="0.6"/><circle cx="78.1" cy="13.5" r="0.6"/><circle cx="80.4" cy="13.5" r="0.6"/><circle cx="79.3" cy="19.4" r="0.6"/><circle cx="79.3" cy="21.7" r="0.6"/><circle cx="79.3" cy="24.1" r="0.6"/><circle cx="80.4" cy="20.6" r="0.6"/><circle cx="80.4" cy="22.9" r="0.6"/><circle cx="78.1" cy="18.2" r="0.6"/><circle cx="80.4" cy="18.2" r="0.6"/><path d="M75.1,16.9a.61.61,0,0,0-1.2,0V17a.65.65,0,0,0,.6.6c.2,0,.5-.2.5-.4V17C75.1,17,75.1,17,75.1,16.9Z"/><circle cx="74.6" cy="19.4" r="0.6"/><circle cx="73.4" cy="18.2" r="0.6"/><circle cx="75.7" cy="18.2" r="0.6"/><path d="M69.9,16.5a.63.63,0,0,0-.6.5v.1a.65.65,0,0,0,.6.6.66.66,0,0,0,.5-.4V17A.47.47,0,0,0,69.9,16.5Z"/><path d="M67.5,16.5a.63.63,0,0,0-.6.5v.1a.65.65,0,0,0,.6.6.82.82,0,0,0,.6-.4V17A.56.56,0,0,0,67.5,16.5Z"/><circle cx="69.9" cy="19.4" r="0.6"/><circle cx="67.5" cy="19.4" r="0.6"/><circle cx="68.7" cy="18.2" r="0.6"/><circle cx="71" cy="18.2" r="0.6"/><circle cx="66.3" cy="18.2" r="0.6"/><path d="M76.9,11.8a.63.63,0,0,0-.6.5v.1a.6.6,0,1,0,1.2,0v-.1A.63.63,0,0,0,76.9,11.8Z"/><path d="M74.6,11.8a.63.63,0,0,0-.6.5v.1a.6.6,0,1,0,1.2,0v-.1A.63.63,0,0,0,74.6,11.8Z"/><circle cx="76.9" cy="10" r="0.6"/><circle cx="74.6" cy="10" r="0.6"/><circle cx="73.4" cy="11.2" r="0.6"/><circle cx="75.7" cy="11.2" r="0.6"/><circle cx="73.4" cy="8.8" r="0.6"/><circle cx="75.7" cy="8.8" r="0.6"/><path d="M76.9,17.6a.65.65,0,0,0,.6-.6v-.1a.61.61,0,0,0-1.2,0V17A.58.58,0,0,0,76.9,17.6Z"/><path d="M77.5,19.3a.61.61,0,0,0-1.2,0v.1a.6.6,0,0,0,1.2,0Z"/><circle cx="76.9" cy="14.7" r="0.6"/><circle cx="74.6" cy="14.7" r="0.6"/><circle cx="75.7" cy="15.9" r="0.6"/><circle cx="73.4" cy="15.9" r="0.6"/><path d="M71.6,17a.6.6,0,0,0,1.2,0v-.1a.61.61,0,0,0-1.2,0Z"/><path d="M72.8,19.3a.61.61,0,0,0-1.2,0v.1a.6.6,0,0,0,1.2,0Z"/><circle cx="78.1" cy="20.6" r="0.6"/><circle cx="74.6" cy="21.7" r="0.6"/><circle cx="73.4" cy="20.6" r="0.6"/><circle cx="75.7" cy="20.6" r="0.6"/><circle cx="71" cy="20.6" r="0.6"/><path d="M76.9,22.3a.65.65,0,0,0,.6-.6v-.1a.61.61,0,0,0-1.2,0v.1A.58.58,0,0,0,76.9,22.3Z"/><path d="M72.2,22.3a.65.65,0,0,0,.6-.6v-.1a.61.61,0,0,0-1.2,0v.1A.58.58,0,0,0,72.2,22.3Z"/><circle cx="78.1" cy="22.9" r="0.6"/><circle cx="74.6" cy="24.1" r="0.6"/><circle cx="73.4" cy="22.9" r="0.6"/><circle cx="75.7" cy="22.9" r="0.6"/><circle cx="69.9" cy="24.1" r="0.6"/><circle cx="67.5" cy="24.1" r="0.6"/><circle cx="68.7" cy="22.9" r="0.6"/><circle cx="66.3" cy="22.9" r="0.6"/><path d="M72.8,24a.61.61,0,0,0-1.2,0v.1a.6.6,0,1,0,1.2,0Z"/><circle cx="72.2" cy="14.7" r="0.6"/><circle cx="71" cy="15.9" r="0.6"/><circle cx="68.7" cy="15.9" r="0.6"/><circle cx="66.3" cy="15.9" r="0.6"/><circle cx="73.4" cy="13.5" r="0.6"/><circle cx="75.7" cy="13.5" r="0.6"/><path d="M69.9,11.8a.63.63,0,0,0-.6.5v.1a.65.65,0,0,0,.6.6.66.66,0,0,0,.5-.4v-.3A.47.47,0,0,0,69.9,11.8Z"/><circle cx="69.9" cy="10" r="0.6"/><circle cx="68.7" cy="11.2" r="0.6"/><circle cx="71" cy="11.2" r="0.6"/><circle cx="68.7" cy="8.8" r="0.6"/><circle cx="71" cy="8.8" r="0.6"/><circle cx="69.9" cy="14.7" r="0.6"/><circle cx="68.7" cy="13.5" r="0.6"/><circle cx="66.3" cy="13.5" r="0.6"/><circle cx="71" cy="13.5" r="0.6"/><path d="M66.9,12.4a.6.6,0,1,0,1.2,0v-.1a.61.61,0,0,0-1.2,0Z"/><circle cx="67.5" cy="10" r="0.6"/><circle cx="66.3" cy="11.2" r="0.6"/><circle cx="66.3" cy="8.8" r="0.6"/><circle cx="67.5" cy="14.7" r="0.6"/><circle cx="98.1" cy="21.7" r="0.6"/><circle cx="95.7" cy="21.7" r="0.6"/><circle cx="93.4" cy="21.7" r="0.6"/><circle cx="91" cy="21.7" r="0.6"/><circle cx="91" cy="28.8" r="0.6"/><circle cx="91" cy="26.4" r="0.6"/><circle cx="91" cy="24.1" r="0.6"/><circle cx="91" cy="19.4" r="0.6"/><circle cx="91" cy="17" r="0.6"/><circle cx="91" cy="14.7" r="0.6"/><circle cx="91" cy="12.4" r="0.6"/><circle cx="91" cy="10" r="0.6"/><path d="M81.6,11.8a.63.63,0,0,0-.6.5v.1a.6.6,0,1,0,1.2,0v-.1A.63.63,0,0,0,81.6,11.8Z"/><circle cx="81.6" cy="10" r="0.6"/><path d="M72.2,11.8a.63.63,0,0,0-.6.5v.1a.6.6,0,1,0,1.2,0v-.1A.63.63,0,0,0,72.2,11.8Z"/><circle cx="72.2" cy="10" r="0.6"/><path d="M82.2,16.9a.61.61,0,0,0-1.2,0V17a.6.6,0,1,0,1.2,0Z"/><circle cx="81.6" cy="14.7" r="0.6"/><circle cx="81.6" cy="19.4" r="0.6"/><circle cx="81.6" cy="24.1" r="0.6"/><circle cx="81.6" cy="21.7" r="0.6"/><circle cx="88.7" cy="21.7" r="0.6"/><circle cx="86.3" cy="21.7" r="0.6"/><circle cx="84" cy="21.7" r="0.6"/><circle cx="88.7" cy="31.1" r="0.6"/><circle cx="96.9" cy="30" r="0.6"/><circle cx="95.7" cy="28.8" r="0.6"/><circle cx="98.1" cy="33.5" r="0.6"/><circle cx="98.1" cy="31.1" r="0.6"/><circle cx="98.1" cy="28.8" r="0.6"/><circle cx="79.3" cy="28.8" r="0.6"/><circle cx="79.3" cy="26.4" r="0.6"/><circle cx="78.1" cy="30" r="0.6"/><circle cx="78.1" cy="27.6" r="0.6"/><circle cx="78.1" cy="34.7" r="0.6"/><circle cx="78.1" cy="32.3" r="0.6"/><circle cx="80.4" cy="27.6" r="0.6"/><path d="M98.1,35.3a.6.6,0,1,0,0,1.2.82.82,0,0,0,.6-.4v-.2Q98.55,35.3,98.1,35.3Z"/><circle cx="96.9" cy="34.7" r="0.6"/><circle cx="76.9" cy="28.8" r="0.6"/><circle cx="76.9" cy="26.4" r="0.6"/><circle cx="75.7" cy="30" r="0.6"/><circle cx="75.7" cy="27.6" r="0.6"/><circle cx="76.9" cy="35.8" r="0.6"/><circle cx="76.9" cy="33.5" r="0.6"/><circle cx="75.7" cy="34.7" r="0.6"/><circle cx="74.6" cy="26.4" r="0.6"/><circle cx="72.2" cy="28.8" r="0.6"/><circle cx="72.2" cy="35.8" r="0.6"/><circle cx="72.2" cy="33.5" r="0.6"/><circle cx="73.4" cy="34.7" r="0.6"/><circle cx="73.4" cy="32.3" r="0.6"/><circle cx="72.2" cy="31.1" r="0.6"/><circle cx="74.6" cy="28.8" r="0.6"/><circle cx="74.6" cy="35.8" r="0.6"/><circle cx="74.6" cy="33.5" r="0.6"/><circle cx="71" cy="30" r="0.6"/><circle cx="71" cy="27.6" r="0.6"/><circle cx="71" cy="34.7" r="0.6"/><circle cx="71" cy="32.3" r="0.6"/><circle cx="69.9" cy="26.4" r="0.6"/><circle cx="67.5" cy="28.8" r="0.6"/><circle cx="67.5" cy="26.4" r="0.6"/><circle cx="67.5" cy="35.8" r="0.6"/><circle cx="67.5" cy="33.5" r="0.6"/><circle cx="68.7" cy="30" r="0.6"/><circle cx="68.7" cy="27.6" r="0.6"/><circle cx="68.7" cy="34.7" r="0.6"/><circle cx="68.7" cy="32.3" r="0.6"/><circle cx="67.5" cy="31.1" r="0.6"/><circle cx="69.9" cy="28.8" r="0.6"/><circle cx="69.9" cy="35.8" r="0.6"/><circle cx="69.9" cy="33.5" r="0.6"/><circle cx="69.9" cy="31.1" r="0.6"/><circle cx="66.3" cy="30" r="0.6"/><circle cx="66.3" cy="27.6" r="0.6"/><circle cx="66.3" cy="34.7" r="0.6"/><circle cx="66.3" cy="32.3" r="0.6"/><circle cx="98.1" cy="12.4" r="0.6"/><circle cx="95.7" cy="12.4" r="0.6"/><circle cx="93.4" cy="12.4" r="0.6"/></g></g></svg>